<svg width="104" height="16" viewBox="0 0 104 16" fill="none" xmlns="http://www.w3.org/2000/svg">
<path d="M7.8335 0.792969L9.51735 5.97534H14.9664L10.558 9.17822L12.2419 14.3606L7.8335 11.1577L3.42511 14.3606L5.10896 9.17822L0.700572 5.97534H6.14964L7.8335 0.792969Z" fill="#FFE492"/>
<path d="M29.8335 0.792969L31.5174 5.97534H36.9664L32.558 9.17822L34.2419 14.3606L29.8335 11.1577L25.4251 14.3606L27.109 9.17822L22.7006 5.97534H28.1496L29.8335 0.792969Z" fill="#FFE492"/>
<path d="M51.8335 0.792969L53.5174 5.97534H58.9664L54.558 9.17822L56.2419 14.3606L51.8335 11.1577L47.4251 14.3606L49.109 9.17822L44.7006 5.97534H50.1496L51.8335 0.792969Z" fill="#FFE492"/>
<path d="M73.8335 0.792969L75.5174 5.97534H80.9664L76.558 9.17822L78.2419 14.3606L73.8335 11.1577L69.4251 14.3606L71.109 9.17822L66.7006 5.97534H72.1496L73.8335 0.792969Z" fill="#FFE492"/>
<path d="M95.8335 0.792969L97.5174 5.97534H102.966L98.558 9.17822L100.242 14.3606L95.8335 11.1577L91.4251 14.3606L93.109 9.17822L88.7006 5.97534H94.1496L95.8335 0.792969Z" fill="#FFE492"/>
</svg>
