<svg width="206" height="53" viewBox="0 0 206 53" fill="none" xmlns="http://www.w3.org/2000/svg">
<path d="M194.321 13.464C194.055 13.4844 193.787 13.4983 193.526 13.5288C193.357 13.5479 193.285 13.492 193.172 13.4628C193.134 13.4526 193.094 13.4323 193.059 13.4348C192.796 13.4551 192.533 13.478 192.27 13.5009C192.189 13.5505 192.138 13.6165 192.015 13.6407C191.894 13.6636 191.752 13.6636 191.618 13.675C191.44 13.689 191.263 13.703 191.086 13.7157C190.997 13.722 190.925 13.7462 190.895 13.7919C190.89 13.7995 190.949 13.8186 190.981 13.83C191.089 13.8682 191.193 13.9114 191.311 13.9406C191.424 13.9686 191.564 13.9228 191.685 13.9584C191.956 14.0385 191.959 14.0372 192.165 14.0219C192.342 14.008 192.52 13.9927 192.697 13.9826C192.732 13.98 192.772 13.9991 192.81 14.0092C192.922 14.0372 192.995 14.1007 193.161 14.0766C193.287 14.0575 193.427 14.0537 193.559 14.0435C193.669 14.0804 193.771 14.1223 193.889 14.1516C193.999 14.1795 194.031 14.2011 193.972 14.238C193.918 14.2723 193.843 14.2863 193.744 14.2888C193.655 14.2901 193.567 14.3015 193.478 14.3079C193.432 14.3117 193.389 14.3142 193.346 14.3181C193.177 14.332 193.177 14.332 192.869 14.2507C192.748 14.2189 192.611 14.2634 192.495 14.2329C192.418 14.2126 192.35 14.1821 192.275 14.1605C192.243 14.1516 192.192 14.1503 192.152 14.1528C192.018 14.1617 191.883 14.1681 191.754 14.1846C191.663 14.196 191.609 14.2316 191.62 14.2672C191.623 14.2812 191.687 14.3015 191.725 14.3028C191.811 14.3053 191.902 14.2876 191.985 14.2964C192.066 14.3053 192.149 14.3308 192.208 14.3587C192.329 14.4172 192.466 14.3651 192.581 14.3803C192.702 14.3968 192.801 14.4477 192.917 14.4782C192.946 14.4858 193.003 14.4731 193.048 14.4693C193.18 14.4604 193.312 14.4528 193.443 14.4439C193.553 14.4807 193.671 14.5138 193.771 14.5557C193.951 14.632 194.144 14.6612 194.377 14.6243C194.509 14.604 194.638 14.6116 194.742 14.6612C194.85 14.712 194.973 14.7069 195.11 14.6968C195.236 14.6866 195.365 14.6586 195.494 14.6942C195.773 14.773 195.776 14.7768 196.106 14.7463C196.206 14.7374 196.281 14.7349 196.356 14.7641C196.426 14.7908 196.501 14.8137 196.573 14.8391C196.705 14.8302 196.839 14.8213 196.971 14.8111C197.14 14.7972 197.234 14.815 197.274 14.8861C197.298 14.9293 197.309 14.9687 197.368 14.998C197.438 15.0335 197.513 15.0323 197.615 15.0221C197.712 15.0132 197.781 14.9992 197.822 14.9535C197.838 14.9344 197.87 14.9166 197.9 14.9014C197.924 14.8899 197.961 14.8721 197.983 14.8747C198.023 14.8798 198.077 14.8937 198.09 14.9103C198.222 15.064 198.222 15.0653 198.356 15.1098C198.504 15.1594 198.657 15.2038 198.791 15.2597C198.912 15.3093 199.033 15.2877 199.164 15.2877C199.263 15.2877 199.328 15.3208 199.32 15.3538C199.314 15.3729 199.277 15.4008 199.245 15.4034C198.982 15.4288 198.716 15.4504 198.45 15.4682C198.418 15.4707 198.378 15.4478 198.34 15.4364C198.265 15.4135 198.198 15.3779 198.117 15.3703C198.037 15.3627 197.943 15.3818 197.854 15.3881C197.765 15.3945 197.671 15.411 197.591 15.4008C197.51 15.3907 197.446 15.3538 197.371 15.3297C197.336 15.3182 197.288 15.3017 197.258 15.3055C197.062 15.336 196.917 15.2941 196.777 15.2382C196.748 15.2267 196.697 15.2191 196.659 15.2216C196.348 15.2432 196.039 15.2686 195.728 15.2928C195.602 15.303 195.5 15.2585 195.473 15.1835C195.459 15.1416 195.432 15.0996 195.432 15.0577C195.432 14.9814 195.285 14.9395 195.177 14.9484C195 14.9611 194.82 14.9713 194.646 14.9903C194.504 15.0056 194.383 14.9903 194.286 14.9446C194.173 14.8925 194.044 14.9026 193.916 14.9166C193.819 14.9268 193.792 14.9687 193.797 15.0742C193.803 15.1594 193.757 15.186 193.583 15.2C193.363 15.2178 193.14 15.2356 192.917 15.2496C192.882 15.2521 192.842 15.2305 192.807 15.2191C192.732 15.1962 192.665 15.1594 192.584 15.1517C192.503 15.1428 192.409 15.1619 192.321 15.1695C192.232 15.1759 192.138 15.1937 192.058 15.1848C191.977 15.1759 191.91 15.1378 191.838 15.1136C191.803 15.1022 191.76 15.0856 191.725 15.0882C191.548 15.0984 191.371 15.1136 191.193 15.1276C190.995 15.1428 190.995 15.1428 190.713 15.064C190.584 15.0285 190.455 15.0564 190.329 15.0666C190.195 15.0768 190.068 15.0818 189.964 15.031C189.894 14.998 189.816 14.9776 189.733 14.984C189.51 14.9992 189.29 15.0183 189.067 15.0335C189.03 15.0361 188.979 15.0297 188.949 15.0183C188.807 14.9649 188.667 14.923 188.468 14.9497C188.297 14.9725 188.111 14.9738 187.94 14.9954C187.846 15.0069 187.803 15.0475 187.821 15.0793C187.832 15.0958 187.889 15.1149 187.926 15.1149C188.012 15.1162 188.106 15.0971 188.187 15.1047C188.353 15.12 188.436 15.2267 188.654 15.1975C188.783 15.1797 188.917 15.1733 189.051 15.1683C189.086 15.167 189.123 15.1911 189.161 15.2038C189.268 15.2382 189.362 15.2826 189.518 15.2597C189.647 15.242 189.784 15.2369 189.915 15.2267C190.125 15.2102 190.125 15.2115 190.396 15.289C190.525 15.3258 190.654 15.2966 190.78 15.2877C190.874 15.2814 190.962 15.2687 191.038 15.2864C191.153 15.3131 191.236 15.3741 191.379 15.3703C191.513 15.3665 191.644 15.3487 191.779 15.3424C191.862 15.3385 191.94 15.3589 192.007 15.3932C192.077 15.4275 192.152 15.4428 192.243 15.4351C192.375 15.425 192.509 15.4123 192.643 15.4059C192.681 15.4046 192.724 15.4161 192.759 15.4262C192.834 15.4491 192.906 15.4758 192.979 15.4999C193.11 15.4923 193.244 15.4898 193.373 15.4745C193.473 15.4631 193.542 15.4682 193.623 15.4936C193.725 15.5279 193.808 15.5889 193.975 15.5597C194.058 15.5457 194.155 15.5495 194.238 15.5368C194.34 15.5203 194.41 15.5266 194.482 15.5648C194.619 15.6372 194.791 15.6385 194.968 15.6105C195.161 15.58 195.306 15.6156 195.451 15.6715C195.604 15.73 195.604 15.7287 195.722 15.8698C195.757 15.9104 195.857 15.9295 195.94 15.9219C196.079 15.9092 196.2 15.9155 196.302 15.9638C196.41 16.0159 196.538 16.0096 196.67 15.9956C196.845 15.9765 197.019 15.96 197.161 16.0337C197.231 16.0693 197.306 16.0782 197.4 16.0693C197.666 16.0464 197.935 16.0324 198.195 16.0045C198.353 15.9867 198.445 16.0274 198.552 16.0617C198.697 16.1087 198.855 16.1506 198.855 16.251C198.855 16.2675 198.893 16.2866 198.925 16.2993C198.995 16.326 199.07 16.3489 199.143 16.3743C199.25 16.4124 199.355 16.4442 199.502 16.4239C199.631 16.4073 199.768 16.4022 199.9 16.3908C200.031 16.3794 200.152 16.373 200.27 16.4213C200.407 16.476 200.552 16.5281 200.708 16.5687C200.818 16.598 200.963 16.5484 201.081 16.5878C201.153 16.6119 201.223 16.6399 201.301 16.6602C201.333 16.6691 201.384 16.6628 201.427 16.6602C201.516 16.6551 201.607 16.6513 201.693 16.6386C201.792 16.6247 201.868 16.6272 201.943 16.6564C202.013 16.6831 202.082 16.72 202.163 16.7276C202.284 16.739 202.418 16.6882 202.539 16.7467C202.6 16.7759 202.678 16.8038 202.759 16.8127C202.839 16.8216 202.933 16.8026 203.019 16.8038C203.057 16.8038 203.103 16.8242 203.124 16.8407C203.137 16.8496 203.119 16.8737 203.1 16.8864C203.076 16.9017 203.041 16.922 203.006 16.9246C202.74 16.9475 202.474 16.9665 202.209 16.9881C202.05 17.0008 202.05 17.0008 201.731 16.9208C201.655 16.9017 201.572 16.9055 201.478 16.9144C201.352 16.9258 201.223 16.9475 201.092 16.9246C200.92 16.8382 200.708 16.8305 200.482 16.8636C200.388 16.8775 200.302 16.8775 200.233 16.8534C200.085 16.8051 199.929 16.7606 199.798 16.7034C199.696 16.659 199.647 16.6552 199.604 16.7162C199.591 16.7352 199.578 16.7555 199.58 16.7733C199.596 16.8369 199.626 16.8992 199.642 16.9627C199.647 16.9805 199.626 17.0008 199.612 17.0199C199.57 17.0733 199.513 17.0694 199.419 17.025C199.325 16.9805 199.212 16.9513 199.062 16.9716C198.933 16.9894 198.794 16.9869 198.665 17.0059C198.466 17.0339 198.327 16.9932 198.184 16.9386C198.155 16.9271 198.104 16.9208 198.066 16.9233C197.666 16.9525 197.269 16.9856 196.869 17.0148C196.783 17.0212 196.705 17.0021 196.638 16.9678C196.568 16.9335 196.49 16.9157 196.404 16.922C196.05 16.9487 195.696 16.9729 195.341 17.0059C195.196 17.0199 195.081 17.0034 194.981 16.9589C194.906 16.9258 194.836 16.9157 194.742 16.9195C194.64 16.9233 194.568 16.936 194.517 16.9729C194.469 17.0085 194.504 17.03 194.611 17.058C194.726 17.0885 194.834 17.1279 194.944 17.1635C195.032 17.1584 195.121 17.1482 195.207 17.1495C195.244 17.1495 195.279 17.1724 195.317 17.1851C195.424 17.2219 195.524 17.2588 195.677 17.2385C195.806 17.2207 195.943 17.2169 196.074 17.2054C196.257 17.1915 196.257 17.1915 196.552 17.2715C196.627 17.2919 196.708 17.2906 196.804 17.2791C196.887 17.2702 196.973 17.288 197.033 17.3262C197.057 17.3414 197.049 17.3668 196.998 17.4507C196.998 17.513 197.054 17.485 197.073 17.4444C197.102 17.3859 197.046 17.3668 196.939 17.3986C196.863 17.4215 196.826 17.4545 196.845 17.4812C196.855 17.4952 196.906 17.513 196.998 17.4507C197.234 17.3745 197.414 17.3656 197.586 17.3452C197.688 17.3338 197.752 17.3389 197.833 17.3719C197.929 17.4113 198.026 17.4533 198.184 17.4329C198.356 17.41 198.539 17.4075 198.713 17.3884C198.874 17.3706 198.957 17.4266 199.059 17.4596C199.183 17.499 199.32 17.4545 199.433 17.4774C199.551 17.5003 199.634 17.5562 199.771 17.5663C199.97 17.532 200.096 17.5956 200.246 17.6375C200.364 17.6693 200.504 17.6413 200.63 17.6273C200.772 17.6121 200.89 17.6261 200.99 17.6718C201.102 17.7239 201.229 17.7125 201.358 17.7011C201.658 17.6756 201.669 17.6718 201.843 17.7417C201.97 17.7926 202.09 17.7697 202.217 17.7633C202.327 17.7976 202.434 17.8345 202.549 17.865C202.579 17.8726 202.635 17.8599 202.681 17.8561C202.813 17.8459 202.947 17.8358 203.078 17.8256C203.167 17.8193 203.261 17.8002 203.341 17.8078C203.422 17.8167 203.489 17.8536 203.562 17.8777C203.634 17.9019 203.709 17.926 203.779 17.9514C203.886 17.9895 203.988 18.0213 204.139 18.0023C204.268 17.9857 204.402 17.9807 204.536 17.9692C204.705 17.9552 204.7 17.959 205.014 18.0353C205.183 18.0772 205.358 18.0264 205.529 18.0213C205.615 18.0188 205.699 18.0328 205.758 18.0696C205.782 18.0849 205.774 18.1103 205.782 18.1319C205.339 18.1662 204.893 18.1954 204.456 18.2374C204.286 18.2539 204.198 18.2081 204.107 18.17C203.956 18.109 203.758 18.198 203.615 18.1192C203.529 18.0721 203.406 18.0455 203.258 18.0683C203.172 18.0811 203.081 18.0798 202.992 18.0912C202.767 18.1192 202.56 18.1204 202.38 18.0328C202.319 18.0023 202.23 17.9857 202.166 17.9565C202.09 17.9247 202.018 17.9069 201.929 17.9133C201.529 17.9438 201.132 17.9743 200.735 18.0073C200.7 18.0099 200.665 18.0289 200.635 18.0429C200.56 18.0785 200.584 18.1065 200.705 18.1293C200.745 18.137 200.778 18.1535 200.815 18.1662C200.888 18.1903 200.955 18.2285 201.035 18.2374C201.116 18.2463 201.21 18.2285 201.298 18.2221C201.387 18.2158 201.481 18.1967 201.562 18.2043C201.642 18.2132 201.709 18.2501 201.784 18.2729C201.819 18.2844 201.862 18.3034 201.897 18.3022C202.074 18.2946 202.249 18.2806 202.426 18.2691C202.536 18.3034 202.63 18.353 202.762 18.3644C202.845 18.3721 202.933 18.3581 203.019 18.3606C203.057 18.3619 203.105 18.381 203.124 18.3975C203.135 18.4077 203.1 18.4331 203.073 18.4458C202.971 18.4941 202.831 18.4852 202.705 18.5004C202.568 18.5169 202.445 18.5119 202.34 18.4623C202.27 18.4293 202.192 18.4115 202.106 18.4178C201.884 18.4343 201.664 18.4534 201.441 18.4674C201.403 18.4699 201.357 18.4585 201.323 18.4496C201.041 18.3721 201.041 18.3695 200.842 18.3861C200.549 18.4102 200.549 18.4102 200.353 18.3428C200.316 18.3301 200.276 18.306 200.243 18.3073C199.932 18.3276 199.623 18.3479 199.314 18.3772C199.212 18.386 199.143 18.3861 199.067 18.353C199.003 18.3251 198.928 18.2933 198.847 18.2857C198.764 18.278 198.673 18.2971 198.584 18.3034C198.496 18.3098 198.402 18.3263 198.324 18.3162C198.243 18.306 198.173 18.2704 198.104 18.245C198.031 18.2183 197.953 18.2196 197.854 18.2297C197.548 18.259 197.545 18.2552 197.242 18.1764C197.207 18.1675 197.161 18.1573 197.124 18.1598C196.901 18.1751 196.681 18.1942 196.458 18.2094C196.372 18.2158 196.289 18.1992 196.23 18.1624C196.206 18.1471 196.214 18.1217 196.198 18.0721C196.179 18.0607 196.2 18.0811 196.206 18.1001C196.246 18.0976 196.294 18.1001 196.324 18.0899C196.399 18.0658 196.436 18.034 196.418 18.0073C196.407 17.9934 196.356 17.9756 196.324 17.9756C196.265 17.9756 196.214 18.0035 196.198 18.0721C196.028 18.1141 195.849 18.123 195.674 18.1433C195.572 18.156 195.508 18.1497 195.427 18.1166C195.33 18.076 195.231 18.0366 195.073 18.0569C194.901 18.0798 194.718 18.0836 194.541 18.1014C194.337 18.1217 194.248 18.0073 194.077 18.0099C193.899 18.0124 193.722 18.034 193.545 18.0493C193.389 18.062 193.389 18.062 193.067 17.9794C192.949 17.9489 192.81 17.9934 192.694 17.9616C192.616 17.9412 192.549 17.9108 192.474 17.8892C192.442 17.8803 192.391 17.8802 192.35 17.8828C192.128 17.898 191.902 17.9082 191.687 17.9362C191.443 17.9692 191.258 17.9336 191.083 17.8587C190.863 17.8726 190.64 17.8803 190.423 17.9044C190.264 17.9222 190.173 17.8803 190.066 17.8459C190.028 17.8345 189.996 17.8154 189.956 17.8104C189.915 17.8053 189.867 17.8154 189.824 17.8192C189.647 17.8332 189.464 17.8396 189.293 17.8625C189.08 17.8917 189 17.7875 188.836 17.7748C188.726 17.837 188.667 17.9222 188.45 17.9285C188.272 17.9336 188.095 17.954 187.918 17.9679C187.829 17.9743 187.741 17.9819 187.652 17.9883C187.51 17.9997 187.443 18.0493 187.472 18.1255C187.489 18.1675 187.502 18.2094 187.515 18.2513C187.542 18.3263 187.475 18.3899 187.362 18.3988C187.051 18.4229 186.742 18.4483 186.431 18.4699C186.348 18.4763 186.267 18.4547 186.2 18.4204C186.13 18.386 186.052 18.3708 185.966 18.3772C185.655 18.4013 185.346 18.4267 185.035 18.4483C185 18.4509 184.954 18.4382 184.919 18.428C184.844 18.4051 184.772 18.3784 184.699 18.3543C184.522 18.3657 184.347 18.3733 184.173 18.3886C183.891 18.4115 183.891 18.4127 183.684 18.3428C183.647 18.3301 183.609 18.306 183.574 18.3073C183.44 18.3123 183.309 18.3251 183.174 18.3365C182.78 18.3695 182.78 18.3695 182.664 18.3314C182.559 18.2958 182.465 18.2526 182.307 18.2729C182.135 18.2958 181.953 18.3034 181.776 18.3162C181.644 18.3251 181.512 18.3352 181.381 18.3378C181.346 18.339 181.308 18.3149 181.271 18.3022C181.163 18.2628 181.059 18.231 180.911 18.2526C180.825 18.2653 180.734 18.2679 180.645 18.2742C180.414 18.292 180.414 18.292 180.036 18.2158C179.998 18.2081 179.953 18.1992 179.915 18.203C179.604 18.2259 179.295 18.2513 178.983 18.2729C178.946 18.2755 178.9 18.2679 178.863 18.2615C178.439 18.1878 178.439 18.1878 177.987 18.2234C177.816 18.2361 177.81 18.2412 177.63 18.1738C177.55 18.1446 177.483 18.1306 177.389 18.1395C177.034 18.17 176.677 18.1903 176.326 18.2259C176.167 18.2412 176.076 18.203 175.969 18.1687C175.931 18.1573 175.891 18.1319 175.859 18.1332C175.504 18.1573 175.15 18.1865 174.795 18.2107C174.763 18.2132 174.723 18.1878 174.685 18.1764C174.613 18.1535 174.543 18.1192 174.462 18.1115C174.379 18.1039 174.288 18.123 174.197 18.1293C173.974 18.1459 173.974 18.1446 173.716 18.0696C173.681 18.0595 173.636 18.0455 173.601 18.048C173.246 18.0734 172.889 18.095 172.538 18.1319C172.336 18.1522 172.199 18.1154 172.057 18.062C172.028 18.0505 171.977 18.0455 171.939 18.048C171.539 18.0772 171.142 18.1103 170.742 18.1395C170.658 18.1459 170.578 18.1243 170.511 18.0912C170.403 18.0391 170.277 18.0455 170.143 18.0569C169.834 18.0836 169.831 18.0823 169.649 18.0213C169.611 18.0086 169.579 17.9921 169.539 17.9857C169.501 17.9794 169.453 17.9832 169.413 17.9857C169.236 17.9984 169.058 18.0124 168.881 18.0264C168.704 18.0404 168.524 18.048 168.35 18.0696C168.135 18.0963 168.033 18.0137 167.882 17.9756C167.662 17.9921 167.437 18.0023 167.219 18.0289C167.053 18.0493 166.975 17.9934 166.865 17.9641C166.827 17.954 166.787 17.9324 166.752 17.9349C166.352 17.9629 165.952 17.9934 165.555 18.0277C165.458 18.0353 165.394 18.0251 165.313 17.9946C165.133 17.926 165.125 17.9285 164.825 17.954C164.693 17.9654 164.567 17.9756 164.454 17.9235C164.355 17.8764 164.234 17.865 164.092 17.8802C163.917 17.8993 163.737 17.9095 163.56 17.9222C163.383 17.9362 163.206 17.9552 163.029 17.9616C162.886 17.9679 162.8 17.9082 162.688 17.8777C162.653 17.8688 162.604 17.8675 162.564 17.8701C162.387 17.8815 162.204 17.8904 162.033 17.912C161.823 17.9387 161.708 17.8688 161.56 17.8282C161.528 17.8193 161.474 17.8243 161.434 17.8282C161.122 17.851 160.814 17.8764 160.502 17.9006C160.392 17.8663 160.279 17.8332 160.169 17.7989C159.992 17.8116 159.815 17.8256 159.638 17.8383C159.504 17.8485 159.367 17.8523 159.24 17.8714C159.077 17.8968 158.996 17.837 158.886 17.8078C158.848 17.7976 158.808 17.776 158.773 17.7786C158.551 17.7926 158.328 17.8078 158.108 17.8294C157.898 17.851 157.815 17.7366 157.643 17.7379C157.466 17.7392 157.283 17.7557 157.112 17.7786C156.913 17.8053 156.773 17.7646 156.631 17.71C156.601 17.6985 156.55 17.6922 156.513 17.6947C156.29 17.71 156.07 17.729 155.847 17.7443C155.809 17.7468 155.764 17.7405 155.726 17.7328C155.302 17.6579 155.302 17.6566 155.117 17.6718C154.985 17.682 154.851 17.6947 154.717 17.7011C154.679 17.7036 154.634 17.6922 154.599 17.682C154.319 17.6045 154.319 17.6032 154.118 17.6185C153.941 17.6324 153.764 17.6464 153.587 17.6604C153.476 17.6261 153.364 17.593 153.254 17.5587C153.033 17.5753 152.808 17.5879 152.591 17.6108C152.489 17.621 152.421 17.6172 152.344 17.5854C152.247 17.5473 152.15 17.5028 151.989 17.5244C151.817 17.5473 151.635 17.5498 151.46 17.5689C151.251 17.5918 151.165 17.4761 150.996 17.4774C150.819 17.4787 150.636 17.4952 150.464 17.5181C150.266 17.5447 150.126 17.5041 149.984 17.4494C149.954 17.438 149.903 17.4316 149.866 17.4342C149.377 17.471 148.891 17.5079 148.402 17.5473C148.102 17.5714 148.102 17.5727 147.53 17.5028C147.49 17.4977 147.447 17.4926 147.406 17.4952C147.229 17.5066 147.047 17.5155 146.875 17.5371C146.665 17.5638 146.55 17.4952 146.402 17.4532C146.37 17.4443 146.319 17.4494 146.276 17.452C146.142 17.4609 146.01 17.4723 145.876 17.4825C145.699 17.4965 145.522 17.5104 145.345 17.5244C145.235 17.4914 145.122 17.4571 145.012 17.424C144.792 17.4405 144.566 17.4494 144.349 17.4761C144.182 17.4965 144.104 17.4431 143.994 17.4126C143.957 17.4024 143.916 17.3808 143.882 17.3821C143.481 17.41 143.081 17.4393 142.684 17.4749C142.52 17.4901 142.445 17.4329 142.335 17.4037C142.298 17.3948 142.255 17.3783 142.22 17.3808C141.954 17.3986 141.688 17.4202 141.422 17.4418C141.272 17.4545 141.272 17.4545 140.944 17.3757C140.907 17.3668 140.864 17.3579 140.826 17.3605C139.983 17.424 139.143 17.4914 138.3 17.5549C138.214 17.5613 138.136 17.5422 138.069 17.5079C137.999 17.4736 137.922 17.4558 137.836 17.4621C137.481 17.4888 137.124 17.513 136.773 17.546C136.628 17.56 136.512 17.5435 136.413 17.499C136.338 17.4659 136.268 17.4532 136.174 17.4609C135.997 17.4761 135.819 17.4888 135.642 17.5028C135.465 17.5168 135.288 17.5308 135.111 17.5448C134.934 17.5587 134.754 17.5664 134.579 17.588C134.364 17.6146 134.26 17.5359 134.112 17.4965C133.846 17.5155 133.58 17.5346 133.317 17.5549C132.963 17.5816 132.609 17.6108 132.254 17.6363C132.222 17.6388 132.182 17.6159 132.144 17.6045C132.034 17.5727 131.954 17.5282 131.79 17.5422C130.995 17.6096 130.195 17.6668 129.398 17.7328C129.231 17.7468 129.159 17.6922 129.046 17.6629C129.008 17.654 128.966 17.6363 128.931 17.6388C128.488 17.6706 128.045 17.7061 127.602 17.7405C127.422 17.7544 127.422 17.7544 127.121 17.6756C127.086 17.6667 127.041 17.6553 127.003 17.6578C126.426 17.7011 125.851 17.7468 125.274 17.7913C125.188 17.7976 125.11 17.7799 125.041 17.7455C124.973 17.7112 124.893 17.6922 124.81 17.6985C124.278 17.7392 123.744 17.7786 123.215 17.8231C123.073 17.8358 122.955 17.8243 122.852 17.7786C122.78 17.7455 122.708 17.7316 122.616 17.7392C121.819 17.8015 121.022 17.8612 120.224 17.9273C120.071 17.94 119.964 17.9158 119.867 17.8739C119.789 17.8409 119.722 17.8345 119.626 17.8396C119.523 17.8459 119.462 17.8599 119.405 17.898C119.333 17.9476 119.287 18.0099 119.115 18.0137C118.938 18.0175 118.758 18.0328 118.584 18.0544C118.417 18.076 118.34 18.0188 118.235 17.9845C118.157 17.9603 118.085 17.9565 117.985 17.9679C117.894 17.9781 117.838 17.9997 117.784 18.0404C117.666 18.1268 117.655 18.1268 117.51 18.0721C117.432 18.0429 117.362 18.02 117.276 18.0251C116.922 18.0505 116.568 18.0785 116.213 18.1077C116.009 18.1243 116.007 18.1268 115.854 18.0633C115.778 18.0315 115.706 18.0162 115.617 18.0239C114.643 18.1001 113.668 18.1738 112.694 18.2539C112.543 18.2666 112.441 18.2399 112.334 18.2018C112.299 18.1891 112.264 18.1713 112.224 18.1662C112.184 18.1611 112.138 18.1662 112.095 18.1687C111.386 18.2234 110.675 18.2755 109.969 18.3365C109.808 18.3505 109.722 18.3098 109.612 18.2768C109.574 18.2653 109.542 18.2475 109.502 18.2425C109.461 18.2386 109.413 18.2475 109.37 18.2513C108.661 18.306 107.95 18.3581 107.244 18.4191C107.075 18.4331 107.002 18.3797 106.892 18.3517C106.855 18.3416 106.814 18.3225 106.779 18.325C106.557 18.339 106.336 18.3581 106.114 18.3746C105.582 18.4165 105.05 18.456 104.519 18.4992C104.315 18.5157 104.226 18.4026 104.054 18.4077C103.832 18.414 103.611 18.4394 103.389 18.4572C103.211 18.4712 103.034 18.4839 102.857 18.4992C102.683 18.5131 102.683 18.5131 102.248 18.4394C102.21 18.4331 102.164 18.4242 102.127 18.4267C101.507 18.4737 100.884 18.5208 100.266 18.5716C100.124 18.583 100.006 18.5767 99.904 18.5297C99.8315 18.4966 99.7564 18.4801 99.6678 18.4877C98.7362 18.5602 97.8072 18.6326 96.8757 18.7038C96.8408 18.7063 96.7951 18.6936 96.7602 18.6834C96.6851 18.6606 96.6126 18.6339 96.5401 18.6097C96.4864 18.639 96.4166 18.6656 96.3817 18.6987C96.3334 18.7432 96.269 18.7559 96.1669 18.7635C96.0649 18.7711 96.0005 18.7686 95.92 18.7355C95.8233 18.6949 95.724 18.6631 95.5656 18.6758C94.591 18.7559 93.6165 18.8283 92.6419 18.9071C92.4809 18.9198 92.4057 18.8639 92.293 18.8347C92.2554 18.8258 92.2124 18.8118 92.1775 18.8143C91.7775 18.8436 91.3802 18.8753 90.9802 18.9058C89.8714 18.9923 88.7626 19.0749 87.6566 19.1664C87.4552 19.1829 87.3183 19.1511 87.176 19.0965C87.1465 19.085 87.0955 19.0787 87.0579 19.0812C85.5062 19.2007 83.9544 19.3214 82.4053 19.4421C82.3221 19.4485 82.2416 19.4281 82.1744 19.3951C82.1046 19.3608 82.0268 19.3443 81.9409 19.3506C81.2322 19.4053 80.5234 19.4599 79.8147 19.5158C79.6375 19.5298 79.6348 19.5311 79.4522 19.4701C79.4146 19.4574 79.3744 19.4332 79.3449 19.4358C79.2831 19.4421 79.224 19.4739 79.1811 19.5171C79.1381 19.5629 79.071 19.5756 78.9716 19.5845C78.8696 19.5934 78.8025 19.5896 78.7247 19.5591C78.6254 19.5209 78.5341 19.4841 78.373 19.4968C76.3353 19.6595 74.2976 19.8158 72.26 19.9772C72.0962 19.9899 72.021 19.9365 71.9083 19.9073C71.8707 19.8984 71.8331 19.8857 71.7929 19.8831C71.7499 19.8806 71.7043 19.8882 71.6613 19.892C68.3377 20.15 65.0141 20.4092 61.6905 20.6672C61.4918 20.6825 61.4945 20.6825 61.277 20.7994C61.2502 20.8134 61.2153 20.8324 61.1777 20.835C60.1602 20.9163 59.14 20.9951 58.1199 21.0739C57.6769 21.1082 57.2339 21.1438 56.791 21.1768C56.6326 21.1883 56.6326 21.1883 56.254 21.3255C56.2218 21.337 56.1842 21.3522 56.1466 21.3548C54.3747 21.4933 52.6028 21.6318 50.8283 21.7678C50.6887 21.778 50.5759 21.8008 50.5115 21.8618C50.4659 21.905 50.4068 21.9305 50.3182 21.9381C49.0779 22.0347 47.8376 22.1325 46.5946 22.2266C46.447 22.238 46.3583 22.2736 46.2859 22.327C46.2617 22.3448 46.2402 22.3651 46.2053 22.3778C46.1731 22.3892 46.1248 22.393 46.0845 22.3969C45.0214 22.4795 43.9583 22.5646 42.8925 22.6434C42.7341 22.6549 42.6696 22.7019 42.5917 22.7514C42.5649 22.768 42.5461 22.7908 42.5112 22.8023C42.4763 22.8124 42.4253 22.8124 42.3823 22.815C41.4964 22.8836 40.6105 22.9535 39.7245 23.0221C39.5527 23.0158 39.5151 23.0895 39.4319 23.134C39.4024 23.1492 39.3809 23.1695 39.346 23.1797C39.3084 23.1899 39.2601 23.1886 39.2144 23.1911C38.5057 23.2458 37.7969 23.3043 37.0855 23.3551C36.9217 23.3665 36.8895 23.4313 36.8009 23.4758C36.7714 23.4898 36.7419 23.5114 36.707 23.5152C36.264 23.5521 35.8211 23.5864 35.3781 23.6194C35.2304 23.6309 35.2304 23.6296 34.97 23.7554C34.9405 23.7694 34.9055 23.7846 34.868 23.7885C34.2048 23.8418 33.5391 23.8927 32.8733 23.9448C32.7874 23.9511 32.7283 23.9816 32.6854 24.0248C32.6424 24.068 32.5807 24.096 32.4948 24.1024C31.9632 24.1443 31.4316 24.1875 30.9 24.2256C30.7524 24.2358 30.6557 24.2676 30.5913 24.3247C30.543 24.368 30.4839 24.3896 30.39 24.3972C29.8584 24.4378 29.3268 24.4823 28.7926 24.5179C28.6369 24.5281 28.5563 24.5713 28.4919 24.6247C28.4409 24.6679 28.3818 24.6831 28.2825 24.6908C27.3079 24.7645 26.3307 24.8382 25.3589 24.9195C25.1951 24.9335 25.1119 24.889 25.0045 24.8572C24.8515 24.8127 24.7092 24.7645 24.7092 24.6653C24.7092 24.6501 24.6636 24.6323 24.6314 24.6196C24.3924 24.5243 24.3924 24.5243 24.3548 24.4226C24.3334 24.3603 24.3092 24.2968 24.2904 24.2333C24.2555 24.129 24.1696 24.1024 23.9226 24.1214C23.834 24.1278 23.7454 24.1367 23.6568 24.1417C23.5252 24.1506 23.4259 24.1087 23.4018 24.0324C23.3883 23.9905 23.3723 23.9486 23.3588 23.9066C23.4931 23.8965 23.4903 23.8952 23.7266 23.7414C23.8259 23.6766 23.826 23.6766 23.6354 23.6118C23.5629 23.5877 23.4931 23.561 23.4152 23.5381C23.3803 23.5279 23.3347 23.5216 23.2971 23.5241C23.0743 23.5394 22.8541 23.5572 22.634 23.5749C22.2796 23.6029 22.2796 23.6029 21.9198 23.4733C21.8903 23.4631 21.8447 23.444 21.85 23.4339C21.8796 23.3869 21.952 23.3665 22.0433 23.3614C22.1775 23.3538 22.3091 23.3411 22.4406 23.3309C22.5292 23.3246 22.6178 23.317 22.7064 23.3106C22.7896 23.2623 22.8756 23.2153 22.9534 23.1657C23.0769 23.0895 23.0769 23.0869 22.9078 23.0336C22.8004 22.998 22.6849 22.9662 22.5749 22.9332C22.4433 22.9433 22.3091 22.9548 22.1775 22.9637C22.0111 22.9751 21.944 22.9509 21.901 22.8683C21.8634 22.7959 21.9091 22.7336 22.0379 22.7184C22.1695 22.7031 22.293 22.693 22.3601 22.6282C22.4246 22.5659 22.5373 22.5417 22.6769 22.5367C22.7655 22.5328 22.8541 22.524 22.9427 22.5163C23.0581 22.5062 23.1199 22.4413 23.0957 22.3689C23.0823 22.3219 23.0555 22.2825 22.9508 22.2723C22.4863 22.2278 22.4809 22.2291 22.25 22.1427C22.2286 22.1351 22.2125 22.1122 22.2205 22.1008C22.234 22.0817 22.2635 22.0537 22.2957 22.0499C22.6045 22.022 22.9132 21.9966 23.2219 21.9775C23.3239 21.9711 23.3991 21.9622 23.434 21.9152C23.4823 21.8504 23.4609 21.7907 23.3669 21.7462C23.3374 21.7322 23.289 21.7144 23.2568 21.7157C22.9024 21.7386 22.5507 21.7678 22.1964 21.7907C22.1641 21.7932 22.1051 21.7716 22.0917 21.7551C22.0648 21.7246 22.1051 21.6839 22.199 21.6699C22.3225 21.6509 22.4487 21.6496 22.5319 21.5861C22.6474 21.4958 22.7896 21.4132 22.9185 21.3268C22.94 21.3116 22.9749 21.2823 22.9669 21.2798C22.8998 21.2518 22.8219 21.2302 22.7521 21.2035C22.634 21.159 22.6339 21.0968 22.6608 21.0371C22.6823 20.9888 22.7628 20.9697 22.8621 20.9697C22.9051 20.9697 22.9588 20.9697 22.9937 20.9583C23.085 20.9303 23.1145 20.8947 23.0689 20.868C23.042 20.8528 22.9937 20.8312 22.9615 20.8337C22.387 20.8757 21.8097 20.9163 21.2379 20.9684C21.0688 20.9837 20.991 20.9354 20.889 20.9011C20.8111 20.8744 20.7386 20.8642 20.6419 20.8833C20.5506 20.9011 20.4621 20.8909 20.4057 20.849C20.3601 20.8147 20.4406 20.7854 20.658 20.7524C20.6983 20.746 20.7439 20.7422 20.7735 20.7295C21.0849 20.5923 21.0849 20.591 21.2997 20.5732C21.5091 20.5567 21.5091 20.5554 21.6192 20.4817C21.6702 20.4474 21.7265 20.4131 21.7748 20.3775C21.7936 20.3635 21.8259 20.3381 21.8152 20.3305C21.7561 20.2911 21.6755 20.2822 21.5816 20.2911C21.3722 20.3127 21.1252 20.2949 21.0151 20.4156C20.9722 20.4614 20.9051 20.4741 20.8084 20.4817C19.8366 20.5554 18.8647 20.6342 17.8901 20.7054C17.7317 20.7168 17.6593 20.7638 17.5976 20.8159C17.5439 20.8591 17.4848 20.8718 17.3828 20.8795C17.2807 20.8871 17.2002 20.8909 17.1411 20.849C17.1062 20.8236 17.1357 20.788 17.2163 20.7524C17.3317 20.7015 17.3102 20.638 17.2727 20.5783C17.2458 20.5389 17.1626 20.5109 17.074 20.5135C16.9424 20.5185 16.8163 20.5325 16.7062 20.4817C16.6418 20.4525 16.5612 20.4321 16.4888 20.4067C16.3492 20.3546 16.2095 20.3012 16.0136 20.3355C15.8793 20.3228 15.7854 20.2771 15.678 20.2415C15.4981 20.183 15.482 20.1741 15.6109 20.1119C15.7558 20.042 15.6431 19.9505 15.7236 19.8818C15.8095 19.8081 15.9277 19.7433 16.0324 19.6747C16.0592 19.6569 16.0834 19.6404 16.1102 19.6226C16.0485 19.5972 15.9921 19.5654 15.9196 19.5476C15.8257 19.5247 15.7773 19.4968 15.7827 19.418C15.7639 19.4066 15.7719 19.4358 15.7934 19.4434C15.8176 19.451 15.8767 19.4447 15.9062 19.4358C15.9814 19.4116 16.0189 19.3799 16.0001 19.3532C15.9894 19.3392 15.9384 19.3214 15.9062 19.3214C15.8471 19.3214 15.7961 19.3494 15.78 19.418C15.4793 19.4701 15.1679 19.4955 14.8565 19.5158C14.8242 19.5184 14.784 19.493 14.7464 19.4803C14.6229 19.437 14.6229 19.4383 14.2605 19.4256C14.2229 19.4243 14.1719 19.4066 14.1531 19.3888C14.0753 19.3112 14.078 19.2261 14.0404 19.1435C14.1102 19.0901 14.1799 19.038 14.2524 18.9859C14.3974 18.8804 14.5853 18.7876 14.6981 18.672C14.6739 18.6097 14.6417 18.5475 14.7598 18.4966C15.0954 18.4331 15.0928 18.4331 15.184 18.3721C15.4445 18.1992 15.7022 18.0251 15.9733 17.8548C16.0458 17.8104 16.0458 17.7862 15.917 17.7672C15.8767 17.7621 15.8337 17.7608 15.7907 17.7633C15.6565 17.7722 15.5222 17.7951 15.3907 17.79C15.2592 17.7862 15.1625 17.7303 15.0551 17.696C14.945 17.6604 14.835 17.6235 14.7249 17.5867C14.5987 17.5905 14.4726 17.6261 14.3464 17.5689C14.2497 17.5244 14.1289 17.4926 14.0189 17.4558C14.1021 17.3592 14.2578 17.2855 14.3786 17.2003C14.4887 17.1228 14.4913 17.1241 14.7867 17.0644C14.9263 17.0364 14.9746 16.8928 14.8565 16.8509C14.7142 16.8 14.5639 16.753 14.4189 16.7047C14.2927 16.7085 14.1639 16.7428 14.0431 16.6857C13.9491 16.6424 13.8417 16.6132 13.686 16.6297C13.4229 16.6577 13.1544 16.6717 12.8886 16.6945C12.7974 16.7022 12.698 16.6971 12.6577 16.6539C12.6309 16.6234 12.7087 16.5814 12.7973 16.5725C12.9316 16.5598 13.0524 16.5446 13.1195 16.4811C13.1839 16.4175 13.302 16.3984 13.4416 16.3895C13.4792 16.387 13.5222 16.3717 13.541 16.3565C13.6376 16.2828 13.745 16.2193 13.9518 16.2218C14.0377 16.1964 14.0833 16.1646 14.0564 16.1341C14.0403 16.1176 13.984 16.096 13.9518 16.0985C13.7289 16.1112 13.5061 16.1239 13.2887 16.1468C13.1866 16.157 13.1087 16.1595 13.0443 16.1214C12.9987 16.096 13.0228 16.0617 13.1087 16.0248C13.1839 15.993 13.2054 15.9562 13.2 15.913C13.1866 15.8126 13.1061 15.7833 12.8483 15.7897C12.6631 15.7948 12.6174 15.7783 12.5772 15.6918C12.5664 15.6715 12.5396 15.6435 12.5584 15.6296C12.6739 15.5432 12.749 15.4364 12.9665 15.3957C13.0524 15.3805 13.1437 15.3805 13.1974 15.3474C13.251 15.3144 13.2994 15.2763 13.3558 15.2445C13.4256 15.2064 13.4738 15.1708 13.4416 15.1467C13.3879 15.1034 13.3021 15.0996 13.2027 15.1149C13.1168 15.1276 13.0255 15.1289 12.9369 15.1365C12.7786 15.1505 12.6497 15.1174 12.6309 15.0615C12.5799 14.9141 12.5262 14.7679 12.4806 14.6205C12.4752 14.6027 12.4886 14.5798 12.5101 14.5646C12.5852 14.5112 12.6658 14.4604 12.7437 14.4083C12.8349 14.3486 12.9799 14.36 13.1034 14.3486C13.2779 14.332 13.2779 14.3333 13.5114 14.2113C13.6027 14.163 13.7611 14.1821 13.8551 14.1389C13.8846 14.1249 13.9303 14.102 13.9222 14.0893C13.9115 14.0728 13.8578 14.0601 13.8175 14.0524C13.7799 14.0448 13.7343 14.041 13.694 14.0448C13.2054 14.0817 12.7195 14.1211 12.2309 14.1567C12.1477 14.163 12.0564 14.1351 12.0269 14.0957C11.9973 14.0588 12.0054 14.0143 12 13.9724C12.0779 13.9203 12.1664 13.872 12.2335 13.8161C12.2845 13.7729 12.3436 13.7538 12.4456 13.7512C12.5799 13.7474 12.7114 13.7322 12.8618 13.7207C13.141 13.5352 13.4148 13.3408 13.7155 13.1552C13.8363 13.0802 13.8068 13.004 13.831 12.9239C13.8551 12.8502 14.035 12.8617 14.1558 12.8401C14.2524 12.8223 14.2846 12.7816 14.247 12.7536C14.2256 12.7371 14.1773 12.718 14.1397 12.718C14.0511 12.718 13.9625 12.7295 13.8739 12.7358C13.7853 12.7422 13.6833 12.7384 13.6108 12.76C13.541 12.7803 13.4953 12.8235 13.4497 12.8604C13.3987 12.901 13.3316 12.915 13.2296 12.9176C13.098 12.9201 12.9665 12.9315 12.835 12.9404C12.69 12.8909 12.5396 12.8426 12.4 12.7905C12.3732 12.7803 12.3678 12.7511 12.3705 12.732C12.3758 12.6825 12.3356 12.652 12.247 12.6278C12.1718 12.6075 12.11 12.5783 12.0402 12.5528C12.0939 12.5185 12.153 12.4855 12.196 12.4486C12.2899 12.3711 12.4081 12.3152 12.6121 12.3177C12.6927 12.2682 12.7571 12.2072 12.8618 12.1729C12.9611 12.1398 13.1302 12.1728 13.2054 12.0979C13.243 12.061 13.2994 12.0191 13.3719 12.0038C13.4873 11.9797 13.6377 11.9924 13.7048 11.9212C13.7451 11.8806 13.8041 11.8437 13.882 11.8335C13.9705 11.8221 14.0618 11.8196 14.1262 11.7954C14.1611 11.7827 14.1987 11.7624 14.1987 11.7446C14.1987 11.7331 14.1451 11.7153 14.1075 11.7077C14.0726 11.6988 14.0269 11.6925 13.9866 11.695C13.8524 11.7026 13.7208 11.7166 13.5866 11.7242C13.549 11.7268 13.5061 11.7179 13.4658 11.7103C13.3477 11.6899 13.3557 11.6645 13.4497 11.6188C13.5437 11.5743 13.6108 11.5171 13.6887 11.465C13.7746 11.4561 13.8819 11.4599 13.941 11.4358C14.0403 11.3964 14.1101 11.3392 14.1907 11.2896C14.2793 11.282 14.3705 11.2794 14.4538 11.2655C14.4887 11.2604 14.5048 11.2324 14.5343 11.2159C14.588 11.1841 14.6337 11.1384 14.7062 11.1231C14.8243 11.1003 14.9693 11.1091 15.0391 11.0393C15.0793 10.9986 15.1411 10.9554 15.2162 10.9528C15.4256 10.9478 15.5142 10.8778 15.6216 10.8118C15.7022 10.7622 15.874 10.7876 15.9626 10.7381C16.0216 10.7063 16.0646 10.6669 16.1237 10.6364C16.1478 10.6237 16.1988 10.6173 16.2391 10.6135C16.4592 10.5945 16.6821 10.5805 16.9022 10.5601C16.9371 10.5563 16.9693 10.5373 16.9962 10.522C17.0526 10.489 17.0874 10.4432 17.1572 10.4216C17.227 10.4 17.3264 10.4 17.4123 10.3937C17.6888 10.3746 17.7103 10.3797 17.8365 10.2717C17.9385 10.184 18.1882 10.2462 18.2714 10.1497C18.3197 10.0937 18.4083 10.048 18.5667 10.0416C18.7895 10.0327 19.0096 10.0086 19.2325 9.99207C19.4311 9.97682 19.4285 9.97681 19.6432 9.85862C19.7399 9.80525 19.8822 9.81288 20.0084 9.80271C20.1426 9.79255 20.2661 9.7773 20.3305 9.71376C20.395 9.65149 20.5131 9.63114 20.65 9.62225C20.7762 9.61335 20.9185 9.61972 21.0178 9.56888C21.2594 9.44688 21.2568 9.4456 21.4259 9.43289C21.6917 9.41256 21.9574 9.39223 22.2232 9.37062C22.4004 9.35664 22.5856 9.3541 22.7521 9.32615C22.8729 9.30581 22.9266 9.23464 23.0044 9.18508C23.2246 9.16602 23.4447 9.14695 23.6649 9.12916C23.9736 9.10374 24.285 9.08087 24.5964 9.05672C24.7307 9.00843 24.7495 8.90168 24.975 8.8966C25.1092 8.89405 25.2408 8.87754 25.375 8.86737C25.5978 8.84958 25.818 8.8267 26.0408 8.8178C26.2099 8.81145 26.2394 8.74282 26.328 8.69961C26.3576 8.68436 26.3844 8.66276 26.4193 8.65895C26.7683 8.62336 27.1281 8.61574 27.469 8.56363C27.5039 8.55855 27.5361 8.53186 27.5442 8.5128C27.5496 8.50263 27.5039 8.48358 27.4744 8.47468C27.4395 8.46451 27.3939 8.45434 27.3563 8.45689C26.2475 8.54203 25.1388 8.62845 24.03 8.7136C23.8743 8.72631 23.8743 8.72503 23.4958 8.86483C23.4635 8.87626 23.4259 8.88897 23.3856 8.89278C23.2085 8.90803 23.0286 8.91694 22.8541 8.936C22.7118 8.95125 22.5937 8.93599 22.4917 8.89024C22.4192 8.85719 22.344 8.84703 22.2527 8.84958C22.1507 8.85339 22.0836 8.86737 22.0246 8.90168C21.9467 8.94871 21.9064 9.0097 21.7427 9.02241C20.9883 9.07706 20.2338 9.13806 19.4821 9.19652C19.3774 9.17872 19.3264 9.15204 19.3533 9.12027C19.3694 9.1012 19.4016 9.07579 19.4338 9.07325C19.7426 9.04656 20.054 9.02369 20.3627 8.99827C20.4057 8.99446 20.4647 8.99699 20.4889 8.98428C20.607 8.92709 20.65 8.83432 20.8728 8.82796C21.0017 8.82415 21.1332 8.8051 21.2567 8.7873C21.2916 8.78222 21.3238 8.75553 21.3319 8.73647C21.3346 8.7263 21.2916 8.70723 21.2594 8.69834C21.1413 8.66148 21.0044 8.70597 20.8863 8.68056C20.846 8.67166 20.7896 8.65895 20.7815 8.6437C20.7762 8.62972 20.8218 8.60684 20.854 8.59286C20.8836 8.58015 20.9238 8.56872 20.9641 8.56491C21.3184 8.53568 21.6729 8.50517 22.0273 8.4823C22.1722 8.4734 22.2742 8.44163 22.3386 8.38317C22.387 8.33996 22.446 8.31709 22.5373 8.31074C23.1575 8.26371 23.7776 8.21161 24.4005 8.1684C24.5562 8.15823 24.6367 8.1163 24.7012 8.06165C24.7522 8.01844 24.8112 8.00319 24.9106 7.99557C25.7992 7.92948 26.6824 7.85578 27.5711 7.79223C27.7348 7.7808 27.7832 7.72615 27.8664 7.67913C27.8959 7.6626 27.9147 7.64227 27.9523 7.6321C27.9898 7.62194 28.0382 7.6232 28.0838 7.62066C28.7926 7.56601 29.5014 7.50756 30.2128 7.45673C30.3792 7.44529 30.4114 7.38174 30.4973 7.33726C30.5268 7.32328 30.5537 7.30041 30.5886 7.2966C31.1202 7.25339 31.6517 7.21272 32.1833 7.17078C32.5377 7.14283 32.892 7.11486 33.2464 7.08818C33.4209 7.07547 33.4209 7.07419 33.6572 6.95346C33.684 6.93948 33.7216 6.92296 33.7565 6.91914C34.7767 6.83781 35.7942 6.7603 36.8143 6.68024C36.9003 6.67388 36.962 6.64464 37.0049 6.60143C37.0479 6.55822 37.1097 6.52899 37.1929 6.52264C37.9903 6.45909 38.7876 6.39683 39.5876 6.3371C39.7326 6.32693 39.8346 6.29643 39.899 6.23924C39.9473 6.19603 40.0064 6.17316 40.0977 6.16681C40.895 6.10581 41.6924 6.04098 42.4924 5.98252C42.6455 5.97109 42.7206 5.92788 42.7958 5.87705C42.8226 5.85926 42.8441 5.83003 42.8763 5.82748C43.2737 5.7919 43.6683 5.75504 44.0683 5.7309C44.2348 5.72073 44.2912 5.66735 44.3583 5.61652C44.412 5.57585 44.4737 5.56188 44.5758 5.55679C44.7986 5.54535 45.0187 5.52376 45.2362 5.50215C45.2684 5.49834 45.3087 5.47038 45.3113 5.45259C45.3167 5.41955 45.2549 5.39667 45.1529 5.38523C44.0898 5.46784 43.024 5.55044 41.9609 5.63304C41.7864 5.64702 41.7864 5.64703 41.5501 5.76776C41.5233 5.78174 41.4857 5.79826 41.4481 5.80207C40.4279 5.88214 39.4104 5.96093 38.3903 6.04099C38.3044 6.04735 38.2426 6.07658 38.1997 6.11979C38.1567 6.163 38.0949 6.19222 38.0117 6.19858C37.0372 6.27483 36.0627 6.35236 35.0854 6.42479C34.9405 6.43496 34.8385 6.46418 34.774 6.52264C34.7257 6.56585 34.6667 6.58873 34.5754 6.59508C33.6438 6.66625 32.7149 6.74123 31.7806 6.80985C31.6866 6.81621 31.6169 6.77935 31.6222 6.74504C31.6249 6.72724 31.6651 6.69803 31.6974 6.69549C32.1833 6.65355 32.6666 6.61033 33.1552 6.57856C33.3189 6.5684 33.3672 6.51248 33.4504 6.46546C33.4773 6.44893 33.4988 6.42733 33.5337 6.41843C33.5713 6.40827 33.6196 6.40954 33.6652 6.407C34.817 6.31677 35.9687 6.22527 37.1231 6.14012C37.2896 6.12742 37.3217 6.06514 37.4076 6.02066C37.4372 6.00541 37.464 5.98254 37.4989 5.98C37.8533 5.9495 38.2077 5.9228 38.5621 5.89612C39.1822 5.84782 39.8024 5.79953 40.4252 5.75124C40.6051 5.73726 40.6051 5.73725 40.836 5.61779C40.8628 5.60381 40.9004 5.58603 40.9353 5.58349C42.5757 5.45513 44.216 5.32678 45.8563 5.19969C45.9423 5.19334 46.004 5.16411 46.0469 5.1209C46.0899 5.07896 46.1516 5.04846 46.2349 5.04083C48.4524 4.868 50.6672 4.69516 52.8848 4.52486C53.0298 4.51342 53.1317 4.48673 53.1962 4.427C53.2418 4.38379 53.3036 4.36092 53.3948 4.3533C55.8325 4.16394 58.2702 3.97459 60.7106 3.78396C62.3509 3.65687 63.9912 3.52725 65.6316 3.4027C65.7819 3.39127 65.8624 3.35186 65.9376 3.29976C65.9618 3.28197 65.9859 3.25273 66.0181 3.25019C66.3698 3.21842 66.7215 3.1892 67.0732 3.15997C67.1833 3.19428 67.2933 3.22733 67.4034 3.26164C67.4866 3.21335 67.5672 3.16378 67.6504 3.11549C68.182 3.07863 68.7055 3.02145 69.2424 3.00365C69.2773 3.00238 69.3149 3.02653 69.3525 3.03924C69.6021 3.11931 69.7444 3.11295 69.9028 3.0062C69.9592 2.96807 70.0075 2.93376 70.0934 2.92741C70.3592 2.90453 70.6278 2.88928 70.8908 2.86259C71.0331 2.84861 71.1512 2.86132 71.2532 2.90707C71.3257 2.94011 71.4009 2.9541 71.4895 2.94647C71.9781 2.90835 72.464 2.87149 72.9527 2.83082C72.9876 2.82828 73.0197 2.80667 73.0466 2.79142C73.103 2.75837 73.1513 2.7228 73.205 2.68849C73.2775 2.71009 73.358 2.72661 73.4171 2.75457C73.4923 2.78761 73.562 2.78761 73.6641 2.77871C75.6131 2.62494 77.5649 2.47498 79.514 2.31993C79.6804 2.30723 79.7529 2.36061 79.8657 2.38857C79.9033 2.39873 79.9408 2.41143 79.9811 2.41398C80.024 2.41652 80.0697 2.4089 80.1126 2.40509C81.5758 2.29071 83.0389 2.1776 84.5021 2.06322C84.6954 2.04797 84.6954 2.04797 84.9827 2.12676C85.0176 2.13693 85.0632 2.14837 85.1008 2.14456C85.7666 2.09499 86.4323 2.04162 87.0955 1.99079C87.1814 1.98443 87.2539 2.00476 87.3317 2.03399C87.4848 2.09118 87.4954 2.09119 87.6082 2.00731C87.6619 1.96791 87.7183 1.94376 87.8069 1.93232C87.9035 1.91961 87.9814 1.92344 88.0566 1.94631C88.164 1.97808 88.2418 2.03145 88.4056 2.01747C89.1143 1.95774 89.8258 1.90818 90.5318 1.84718C90.6929 1.8332 90.7788 1.87641 90.8862 1.90818C90.9238 1.91962 90.9587 1.93741 90.999 1.94122C91.0392 1.94504 91.0876 1.93613 91.1305 1.93232C92.0164 1.86369 92.905 1.79635 93.7883 1.72264C93.9548 1.70866 94.0273 1.7633 94.14 1.79126C94.1776 1.80142 94.2205 1.81922 94.2554 1.81668C94.787 1.77729 95.3213 1.73534 95.8529 1.6934C96.0435 1.67815 96.0434 1.67942 96.3334 1.75694C96.3683 1.76711 96.4139 1.77728 96.4515 1.77473C97.0717 1.72771 97.6945 1.67942 98.3147 1.63113C98.5053 1.61588 98.5053 1.61588 99.0556 1.68196C99.0959 1.68705 99.1389 1.69468 99.1791 1.69214C99.8879 1.63749 100.599 1.58411 101.308 1.52565C101.45 1.51421 101.568 1.52438 101.671 1.57013C101.743 1.60317 101.818 1.61716 101.907 1.60953C102.704 1.54726 103.504 1.48753 104.299 1.42145C104.452 1.40874 104.551 1.43669 104.659 1.47354C104.693 1.48625 104.728 1.50405 104.769 1.50913C104.809 1.51421 104.855 1.50913 104.897 1.50531C105.695 1.44304 106.495 1.38459 107.289 1.31723C107.451 1.30325 107.536 1.34646 107.644 1.37823C107.681 1.38967 107.722 1.41254 107.754 1.41127C108.065 1.38967 108.377 1.37061 108.686 1.33884C108.852 1.32105 108.924 1.3795 109.037 1.40746C109.075 1.41635 109.118 1.43542 109.153 1.43288C109.818 1.38332 110.484 1.33122 111.147 1.27784C111.241 1.27022 111.311 1.28164 111.386 1.31469C111.486 1.35917 111.601 1.37696 111.746 1.36298C112.055 1.33375 112.366 1.31342 112.678 1.28928C112.86 1.2753 112.86 1.2753 113.419 1.34138C113.459 1.34647 113.502 1.35409 113.542 1.35155C114.074 1.31088 114.608 1.27148 115.137 1.227C115.279 1.2143 115.397 1.22573 115.499 1.27148C115.572 1.30452 115.644 1.31851 115.735 1.31089C116.224 1.27276 116.71 1.23463 117.199 1.19651C117.376 1.18253 117.553 1.15837 117.73 1.15837C117.859 1.15964 117.953 1.22064 118.068 1.25114C118.101 1.26004 118.154 1.24988 118.197 1.24734C118.817 1.19905 119.44 1.15457 120.058 1.09992C120.219 1.08594 120.305 1.12915 120.412 1.16092C120.45 1.17236 120.49 1.19523 120.522 1.19396C120.745 1.17998 120.965 1.16092 121.188 1.1444C121.454 1.12406 121.722 1.10881 121.985 1.08085C122.2 1.05798 122.281 1.16854 122.452 1.17235C122.584 1.17616 122.718 1.15456 122.85 1.1444C123.116 1.12406 123.381 1.10119 123.647 1.0834C123.741 1.07704 123.814 1.0567 123.843 1.01095C123.849 1.00205 123.803 0.983 123.773 0.971562C123.416 0.841935 123.416 0.841929 123.057 0.869888C122.834 0.88768 122.614 0.905475 122.391 0.920725C122.353 0.923267 122.31 0.9131 122.273 0.905475C122.165 0.883871 122.176 0.858456 122.267 0.812705C122.359 0.766955 122.428 0.711042 122.506 0.658937C122.616 0.691979 122.724 0.72501 122.834 0.758052C122.922 0.751698 123.011 0.744084 123.1 0.737729C123.542 0.704687 123.985 0.670372 124.428 0.639871C124.461 0.63733 124.501 0.66275 124.538 0.675459C124.646 0.712314 124.743 0.744076 124.898 0.730097C125.296 0.693242 125.696 0.666554 126.093 0.634783C126.267 0.620804 126.267 0.620805 126.573 0.699598C126.608 0.708494 126.654 0.718661 126.692 0.716119C127.092 0.68689 127.489 0.655122 127.889 0.624622C127.975 0.618267 128.058 0.634788 128.12 0.671643C128.144 0.686893 128.139 0.712305 128.241 0.920725C128.557 1.08975 128.775 1.07196 128.995 1.05671C129.089 1.05036 129.172 1.044 129.234 1.01858C129.266 1.0046 129.306 0.984267 129.306 0.967746C129.306 0.955037 129.247 0.9347 129.21 0.932158C128.944 0.906741 128.692 0.960124 128.431 0.971562C128.31 0.976645 128.206 0.932165 128.184 0.859726C128.179 0.839393 128.171 0.817789 128.163 0.797456C128.155 0.777122 128.149 0.755519 128.141 0.735185C128.037 0.728831 127.975 0.751703 127.929 0.794912C127.892 0.830496 127.838 0.871163 127.765 0.890226C127.693 0.910559 127.594 0.906753 127.505 0.913108C127.419 0.919462 127.325 0.935981 127.245 0.927085C127.164 0.916918 127.1 0.880058 127.024 0.857182C126.99 0.845744 126.947 0.82923 126.912 0.831771C126.603 0.853376 126.297 0.874972 125.991 0.902931C125.83 0.918181 125.749 0.864813 125.647 0.831771C125.567 0.806354 125.486 0.8127 125.473 0.87116C125.438 1.01095 125.561 1.06941 125.835 1.04272C126.061 1.01985 126.265 1.01605 126.442 1.10246C126.466 1.1139 126.522 1.11898 126.557 1.11644C126.777 1.10119 126.995 1.08213 127.215 1.06688C127.255 1.06433 127.298 1.06941 127.336 1.07449C127.884 1.14312 127.884 1.1444 128.069 1.12915C128.157 1.12152 128.243 1.11517 128.235 0.921997C128.404 0.714848 128.673 0.700871 128.933 0.670371C129.102 0.651308 129.175 0.707228 129.285 0.736457C129.323 0.746624 129.363 0.766954 129.398 0.764412C129.975 0.722474 130.549 0.677988 131.124 0.630967C131.221 0.623342 131.29 0.630968 131.366 0.66401C131.462 0.705948 131.57 0.732642 131.723 0.717391C132.029 0.686891 132.34 0.667833 132.652 0.642416C132.81 0.629707 132.81 0.629694 133.129 0.708487C133.164 0.717383 133.21 0.72755 133.248 0.725009C133.559 0.703404 133.868 0.676724 134.176 0.653849C134.262 0.647495 134.34 0.665285 134.407 0.699598C134.474 0.733911 134.555 0.751701 134.638 0.745347C134.95 0.722471 135.258 0.697062 135.567 0.674187C135.605 0.671645 135.65 0.68054 135.685 0.689436C136.013 0.768229 136.013 0.768216 136.163 0.755508C136.383 0.736445 136.609 0.727559 136.826 0.702142C137.038 0.676725 137.148 0.750428 137.293 0.791095C137.691 0.761866 138.091 0.737726 138.485 0.702142C138.646 0.686892 138.732 0.728826 138.84 0.761868C138.877 0.773306 138.915 0.797455 138.95 0.796184C139.084 0.7911 139.216 0.777123 139.347 0.766957C139.479 0.75679 139.613 0.746624 139.744 0.736457C139.895 0.773312 139.994 0.859729 140.209 0.830499C140.338 0.812707 140.475 0.808895 140.606 0.798728C140.738 0.788561 140.872 0.778396 141.004 0.768229C141.092 0.761874 141.183 0.758056 141.269 0.746619C141.428 0.727556 141.506 0.789835 141.618 0.817794C141.656 0.82669 141.699 0.84193 141.734 0.839388C142 0.821596 142.268 0.806347 142.528 0.777118C142.73 0.754242 142.867 0.792373 143.009 0.845749C143.039 0.857187 143.09 0.86354 143.127 0.860998C143.439 0.839394 143.747 0.812699 144.056 0.789823C144.139 0.783469 144.22 0.803802 144.287 0.836844C144.357 0.871157 144.435 0.887691 144.52 0.881336C144.829 0.858461 145.141 0.833037 145.449 0.810161C145.487 0.80762 145.533 0.817788 145.567 0.827955C145.868 0.906748 145.868 0.90802 146.045 0.89277C146.088 0.888957 146.134 0.886406 146.177 0.882593C146.397 0.864801 146.625 0.858456 146.84 0.827955C147.087 0.793642 147.267 0.836853 147.441 0.909291C147.662 0.894041 147.887 0.885143 148.102 0.859726C148.263 0.840664 148.349 0.888953 148.456 0.920725C148.494 0.932162 148.534 0.955038 148.566 0.952496C148.878 0.930892 149.189 0.911836 149.495 0.880064C149.662 0.862272 149.734 0.91945 149.847 0.94868C149.884 0.958847 149.925 0.976648 149.96 0.974106C150.137 0.963939 150.314 0.948682 150.491 0.934702C150.698 0.918181 150.698 0.919451 150.972 0.996973C151.101 1.03383 151.229 1.0046 151.356 0.995701C151.49 0.985534 151.616 0.977911 151.723 1.03002C151.791 1.06306 151.871 1.08339 151.954 1.07831C152.131 1.06687 152.311 1.05544 152.486 1.03638C152.625 1.02113 152.746 1.03129 152.848 1.07831C152.921 1.11135 152.996 1.12788 153.085 1.12026C153.482 1.08976 153.882 1.05797 154.279 1.02874C154.314 1.0262 154.362 1.03764 154.395 1.04908C154.47 1.07196 154.542 1.09737 154.615 1.12279C154.789 1.11135 154.969 1.10628 155.141 1.08849C155.324 1.07069 155.49 1.06434 155.632 1.13423C155.662 1.14949 155.705 1.17108 155.74 1.16981C155.874 1.16472 156.005 1.15202 156.137 1.14185C156.269 1.13169 156.403 1.12152 156.534 1.11135C156.687 1.14312 156.784 1.23462 156.999 1.20539C157.128 1.1876 157.265 1.18379 157.396 1.17362C157.528 1.16346 157.662 1.15202 157.793 1.14312C157.836 1.14058 157.885 1.13422 157.922 1.13931C157.963 1.14439 157.997 1.16219 158.032 1.1749C158.14 1.21175 158.239 1.24861 158.392 1.227C158.521 1.20921 158.658 1.2054 158.789 1.19396C158.969 1.17998 158.969 1.17998 159.267 1.26005C159.388 1.29309 159.525 1.24988 159.64 1.27784C159.718 1.2969 159.785 1.32867 159.861 1.35027C159.893 1.35917 159.944 1.36298 159.981 1.36043C160.159 1.349 160.338 1.33757 160.513 1.3185C160.655 1.30325 160.773 1.3185 160.873 1.36425C160.945 1.39729 161.018 1.41128 161.109 1.40365C161.552 1.36807 161.995 1.33756 162.435 1.29816C162.586 1.28418 162.706 1.3058 162.79 1.35155C162.932 1.43034 163.133 1.33757 163.281 1.40111C163.372 1.44051 163.463 1.48626 163.63 1.4672C163.936 1.43416 164.247 1.41635 164.556 1.39348C164.666 1.42779 164.776 1.46211 164.889 1.49642C165.066 1.48245 165.243 1.46846 165.421 1.45575C165.552 1.44558 165.686 1.43415 165.818 1.42525C165.861 1.42271 165.906 1.41762 165.947 1.42398C165.987 1.43033 166.019 1.44686 166.057 1.45957C166.242 1.52184 166.242 1.52311 166.548 1.4977C166.68 1.48626 166.806 1.47863 166.916 1.52947C167.018 1.57649 167.139 1.58538 167.278 1.5714C167.541 1.54598 167.807 1.52692 168.076 1.50913C168.159 1.50278 168.237 1.52438 168.307 1.55742C168.411 1.60953 168.54 1.60445 168.672 1.59047C168.846 1.57267 169.018 1.55489 169.166 1.62605C169.195 1.6413 169.241 1.6629 169.273 1.66163C169.493 1.65146 169.716 1.64384 169.931 1.61969C170.146 1.59555 170.25 1.67434 170.398 1.71246C170.618 1.69594 170.841 1.67942 171.061 1.6629C171.104 1.65909 171.155 1.64766 171.193 1.65401C171.351 1.6807 171.442 1.77601 171.66 1.74678C171.786 1.73026 171.923 1.72518 172.054 1.72137C172.089 1.7201 172.135 1.74169 172.159 1.75821C172.173 1.76711 172.159 1.79125 172.143 1.80396C172.095 1.83955 172.036 1.8726 171.993 1.90945C171.987 1.91454 172.038 1.9374 172.068 1.94757C172.14 1.97044 172.223 1.96664 172.32 1.95647C172.403 1.94758 172.489 1.96537 172.548 2.00349C172.573 2.01874 172.564 2.04416 172.513 2.12803C172.513 2.19031 172.57 2.16234 172.589 2.12167C172.618 2.06322 172.562 2.04415 172.454 2.07593C172.379 2.0988 172.342 2.13185 172.36 2.15853C172.371 2.17251 172.422 2.19031 172.513 2.12803C172.75 2.05178 172.927 2.03781 173.104 2.02383C173.15 2.02002 173.203 2.0073 173.236 2.01493C173.351 2.04543 173.458 2.08229 173.571 2.1166C173.7 2.10898 173.821 2.0899 173.947 2.13947C174.124 2.20937 174.132 2.20301 174.304 2.18903C174.393 2.18141 174.481 2.17506 174.57 2.16871C174.659 2.16236 174.728 2.18141 174.806 2.21064C174.965 2.27037 174.978 2.27037 175.083 2.18903C175.144 2.13947 175.187 2.12295 175.265 2.14583C175.523 2.22335 175.526 2.22843 175.746 2.20555C175.928 2.18649 176.1 2.18141 176.234 2.25385C176.326 2.30468 176.355 2.29325 176.428 2.23987C176.621 2.09881 176.71 2.10134 177.072 2.20301C177.241 2.2513 177.416 2.1992 177.587 2.19285C177.732 2.18777 177.834 2.21826 177.845 2.29832C177.853 2.34789 177.877 2.38348 177.974 2.4C178.012 2.40635 178.057 2.41525 178.095 2.4127C178.318 2.39745 178.538 2.37966 178.761 2.36187C178.873 2.35297 178.935 2.29325 178.914 2.21446C178.89 2.13058 178.932 2.10007 179.094 2.07593C179.19 2.06195 179.268 2.0645 179.346 2.08737C179.432 2.11279 179.408 2.13567 179.333 2.18142C179.153 2.29325 179.174 2.36187 179.405 2.43939C179.486 2.46608 179.55 2.49023 179.569 2.52963C179.579 2.54996 179.569 2.57665 179.593 2.5919C179.724 2.67705 179.907 2.7317 180.111 2.77237C180.307 2.73805 180.441 2.79523 180.592 2.84098C180.71 2.87656 180.849 2.84607 180.975 2.83336C181.118 2.81938 181.236 2.82955 181.338 2.87657C181.41 2.90961 181.486 2.92486 181.574 2.9185C181.751 2.90452 181.931 2.89563 182.106 2.8753C182.256 2.8575 182.369 2.88292 182.463 2.92613C182.581 2.98078 182.713 2.94392 182.836 2.95154C183.002 2.96044 183.086 3.07354 183.303 3.04304C183.432 3.02525 183.566 3.0189 183.7 3.01382C183.735 3.01254 183.778 3.03415 183.808 3.0494C183.95 3.1193 184.117 3.11549 184.299 3.09515C184.425 3.08117 184.549 3.06847 184.672 3.11676C184.876 3.1981 185.102 3.26927 185.317 3.34425C185.346 3.40271 185.325 3.47132 185.478 3.50563C185.558 3.52343 185.633 3.55012 185.695 3.57935C185.77 3.61367 185.84 3.62257 185.937 3.61367C186.111 3.59588 186.294 3.59205 186.466 3.56918C186.624 3.54884 186.723 3.59079 186.82 3.63019C186.898 3.66196 186.97 3.67721 187.064 3.65433C187.161 3.63273 187.231 3.6467 187.309 3.68101C187.419 3.72803 187.427 3.72296 187.792 3.73694C187.829 3.73821 187.875 3.75726 187.897 3.77378C187.907 3.78268 187.883 3.80811 187.864 3.82082C187.84 3.83607 187.803 3.85385 187.768 3.85766C187.37 3.89071 186.97 3.91993 186.573 3.95298C186.533 3.95679 186.49 3.96569 186.46 3.9784C186.428 3.99238 186.388 4.01143 186.388 4.02923C186.388 4.04193 186.441 4.05719 186.479 4.06608C186.597 4.09531 186.737 4.05084 186.852 4.08388C186.93 4.10548 186.995 4.13598 187.072 4.15631C187.105 4.16521 187.156 4.16394 187.196 4.1614C187.33 4.1525 187.462 4.1398 187.596 4.13217C187.634 4.1309 187.676 4.14362 187.711 4.15378C187.969 4.23003 187.969 4.23003 188.192 4.21351C188.281 4.20715 188.374 4.18809 188.458 4.19571C188.538 4.20334 188.608 4.23765 188.681 4.25926C188.831 4.30501 188.973 4.34949 188.984 4.44861C188.989 4.48674 189.078 4.51977 189.166 4.52232C189.252 4.52486 189.344 4.51089 189.432 4.50327C189.642 4.48802 189.642 4.48801 189.913 4.56554C189.988 4.58714 190.068 4.58968 190.165 4.57697C190.203 4.57189 190.248 4.57698 190.289 4.58333C190.42 4.60239 190.42 4.62653 190.334 4.67228C190.213 4.73964 190.224 4.746 190.562 4.80319C190.691 4.82479 190.791 4.86546 190.898 4.90104C191.073 4.95823 191.07 4.95822 190.954 5.0332C190.928 5.04972 190.903 5.06752 190.877 5.08531C190.799 5.13487 190.737 5.18825 190.576 5.19333C190.399 5.19841 190.221 5.21875 190.044 5.23273C189.872 5.24671 189.827 5.2772 189.843 5.36362C189.862 5.46783 189.897 5.47927 190.205 5.478C190.294 5.478 190.372 5.48816 190.439 5.52248C190.407 5.56314 190.348 5.59492 190.262 5.60254C190.042 5.6216 189.819 5.63813 189.599 5.65465C189.421 5.66863 189.244 5.6826 189.067 5.69658C188.957 5.70548 188.887 5.77157 188.917 5.84528C188.933 5.88722 188.946 5.92915 188.96 5.97109C188.989 6.05497 189.046 6.07658 189.225 6.07277C189.271 6.0715 189.314 6.06132 189.357 6.06386C189.532 6.07276 189.615 6.17824 189.824 6.15663C189.999 6.13884 190.181 6.13503 190.353 6.11215C190.511 6.09182 190.6 6.13758 190.71 6.1719C190.748 6.18333 190.788 6.20747 190.82 6.2062C191.043 6.19222 191.266 6.17825 191.483 6.1541C191.585 6.14394 191.647 6.15156 191.728 6.18206C191.921 6.25577 191.926 6.25195 192.214 6.22908C192.423 6.21129 192.426 6.21383 192.694 6.29135C192.769 6.31295 192.85 6.31295 192.946 6.30278C193.073 6.29007 193.204 6.26974 193.336 6.2888C193.376 6.29389 193.427 6.30914 193.44 6.32566C193.449 6.3371 193.411 6.36506 193.379 6.37396C193.142 6.44004 192.866 6.42861 192.608 6.45529C192.528 6.46292 192.447 6.43877 192.38 6.40446C192.31 6.37014 192.235 6.35617 192.144 6.36252C191.967 6.3765 191.787 6.3854 191.612 6.40573C191.462 6.42352 191.357 6.39429 191.252 6.35489C191.217 6.34218 191.177 6.31803 191.142 6.3193C190.745 6.34472 190.345 6.37014 189.95 6.40573C189.792 6.42098 189.701 6.38032 189.593 6.346C189.556 6.33456 189.518 6.31042 189.483 6.31169C189.349 6.31677 189.217 6.33075 189.083 6.34091C188.595 6.37904 188.109 6.41717 187.62 6.45275C187.588 6.45529 187.548 6.4286 187.51 6.41716C187.438 6.39429 187.362 6.37268 187.287 6.35108C187.153 6.36124 187.021 6.37395 186.887 6.38157C186.79 6.38666 186.705 6.40446 186.691 6.45275C186.683 6.48452 186.772 6.51375 186.866 6.5112C186.957 6.50866 187.048 6.49341 187.123 6.50993C187.497 6.59127 187.497 6.59254 187.73 6.57602C187.934 6.56077 187.913 6.54805 188.093 6.61795C188.17 6.64845 188.24 6.66625 188.329 6.65863C188.549 6.64084 188.772 6.62304 188.995 6.60779C189.03 6.60525 189.075 6.61796 189.11 6.62813C189.373 6.70438 189.373 6.70692 189.591 6.68785C189.875 6.66498 189.886 6.65863 190.077 6.73615C190.208 6.78952 190.329 6.75267 190.455 6.75012C190.6 6.79969 190.758 6.84417 190.89 6.90009C191.046 6.96618 191.209 6.95473 191.387 6.93566C191.518 6.92168 191.647 6.9166 191.754 6.96871C191.856 7.017 191.98 7.02209 192.12 7.00938C192.246 6.99795 192.375 6.97379 192.506 7.00175C192.541 7.00938 192.595 7.02845 192.592 7.03988C192.589 7.05767 192.554 7.0831 192.52 7.09072C192.273 7.14283 192.001 7.14155 191.741 7.1657C191.706 7.16951 191.661 7.15552 191.626 7.14536C191.55 7.12248 191.478 7.0958 191.405 7.07165C191.274 7.07928 191.14 7.08181 191.011 7.09706C190.911 7.1085 190.836 7.10724 190.764 7.07674C190.697 7.04878 190.624 7.01446 190.544 7.00557C190.463 6.99667 190.369 7.01574 190.281 7.02336C190.192 7.03099 190.09 7.02717 190.02 7.0475C189.95 7.06783 189.907 7.11232 189.862 7.1479C189.811 7.1873 189.741 7.20002 189.639 7.20383C189.545 7.20764 189.47 7.20255 189.4 7.16697C189.37 7.15172 189.33 7.14028 189.29 7.13011C189.252 7.12121 189.209 7.10723 189.174 7.10977C188.774 7.139 188.377 7.17078 187.977 7.20128C187.778 7.21653 187.781 7.21652 187.368 7.14154C187.33 7.13519 187.284 7.12629 187.247 7.12884C187.024 7.14409 186.804 7.16188 186.581 7.17967C186.356 7.19747 186.358 7.19492 185.974 7.11486C185.905 7.09961 185.803 7.11994 185.719 7.1174C185.545 7.11105 185.459 7.0043 185.255 7.02463C185.08 7.04243 184.898 7.04623 184.723 7.06911C184.565 7.08944 184.474 7.04497 184.366 7.01066C184.329 6.99922 184.288 6.9738 184.256 6.97634C183.856 7.0043 183.459 7.03607 182.927 7.03988C182.796 7.03988 182.855 7.06657 182.941 7.07547C183.064 7.08945 183.104 7.06276 183.037 7.01193C182.989 6.97634 182.919 6.95854 182.863 6.96744C182.833 6.97252 182.796 6.99667 182.927 7.03988C183.067 7.08818 183.059 7.11486 183.083 7.13011C183.142 7.16696 183.225 7.18221 183.311 7.17713C183.445 7.16823 183.577 7.15553 183.711 7.1479C183.749 7.14536 183.794 7.15426 183.829 7.16442C184.125 7.24322 184.127 7.24831 184.441 7.21781C184.541 7.20891 184.613 7.20891 184.691 7.23306C184.798 7.2661 184.876 7.32201 185.04 7.30421C185.258 7.28007 185.48 7.2661 185.703 7.25212C185.738 7.24958 185.776 7.27245 185.816 7.28262C185.926 7.31312 186.007 7.37031 186.17 7.34616C186.297 7.3271 186.433 7.322 186.568 7.31819C186.603 7.31692 186.656 7.33726 186.672 7.35378C186.705 7.38301 186.664 7.41733 186.573 7.44148C186.535 7.45164 186.484 7.4491 186.441 7.45291C186.264 7.46689 186.087 7.48213 185.91 7.49357C185.816 7.49992 185.727 7.519 185.717 7.56602C185.709 7.59779 185.805 7.62574 185.897 7.6232C186.031 7.61939 186.165 7.60922 186.294 7.5927C186.522 7.56474 186.721 7.57236 186.906 7.65243C187.037 7.70834 187.029 7.68802 187.169 7.85323C187.204 7.89517 187.309 7.89898 187.4 7.89644C187.62 7.89008 187.722 7.90915 187.703 7.94855C187.679 7.99684 187.601 8.01208 187.502 8.01843C187.325 8.0286 187.148 8.04513 186.97 8.05911C186.927 8.06292 186.879 8.07054 186.839 8.068C186.799 8.06546 186.761 8.05021 186.726 8.03877C186.651 8.01463 186.586 7.97776 186.506 7.96887C186.425 7.95997 186.331 7.97904 186.243 7.98666C186.154 7.99302 186.06 8.01208 185.98 8.00318C185.899 7.99429 185.832 7.95617 185.76 7.9333C185.725 7.92186 185.682 7.90405 185.647 7.90533C185.47 7.91549 185.292 7.93202 185.115 7.94473C184.898 7.96125 184.898 7.96125 184.635 7.88246C184.56 7.85958 184.482 7.86086 184.382 7.87103C184.168 7.89136 184.165 7.88754 183.773 7.81383C183.735 7.8062 183.69 7.79731 183.652 7.80112C183.252 7.83035 182.855 7.86212 182.457 7.89262C182.116 7.91931 182.116 7.91932 181.929 8.0464C181.789 8.14045 181.786 8.14044 181.923 8.18365C182.033 8.21923 182.133 8.27133 182.253 8.2904C182.366 8.30819 182.506 8.251 182.629 8.30946C182.691 8.33869 182.772 8.37047 182.849 8.37555C182.973 8.3819 183.104 8.34504 183.223 8.40096C183.282 8.42892 183.37 8.45816 183.445 8.45943C183.577 8.46197 183.711 8.44163 183.843 8.43273C183.883 8.43019 183.929 8.43019 183.966 8.43655C184.007 8.44417 184.041 8.45943 184.076 8.47214C184.184 8.51535 184.299 8.53567 184.439 8.51407C184.667 8.47848 184.871 8.49628 185.048 8.57761C185.072 8.58905 185.131 8.59033 185.169 8.58524C185.266 8.57254 185.349 8.57126 185.421 8.59541C185.451 8.60557 185.494 8.62336 185.488 8.63479C185.48 8.65386 185.448 8.67928 185.413 8.68563C185.161 8.72884 184.89 8.73393 184.629 8.75681C184.594 8.75935 184.552 8.74282 184.517 8.73138C184.441 8.7085 184.377 8.67039 184.296 8.66149C184.216 8.6526 184.122 8.66912 184.033 8.67547C183.945 8.68182 183.851 8.70089 183.77 8.69326C183.69 8.68437 183.615 8.65259 183.55 8.62463C183.475 8.59286 183.402 8.58906 183.303 8.60177C183.174 8.61829 183.04 8.62082 182.909 8.62972C182.836 8.60557 182.764 8.57888 182.688 8.556C182.653 8.54456 182.611 8.53059 182.573 8.53186C182.396 8.54203 182.218 8.55727 182.041 8.57125C181.864 8.58523 181.864 8.58524 181.563 8.50645C181.529 8.49756 181.483 8.48739 181.445 8.48993C181.222 8.50518 181.002 8.52423 180.78 8.53948C180.694 8.54583 180.616 8.52804 180.546 8.49373C180.479 8.45942 180.398 8.44036 180.315 8.44671C179.961 8.4734 179.606 8.49882 179.252 8.53059C179.11 8.5433 178.989 8.53186 178.892 8.48611C178.779 8.43401 178.653 8.44672 178.522 8.45689C178.224 8.4823 178.221 8.48102 178.03 8.41621C177.993 8.4035 177.955 8.37935 177.92 8.38062C177.612 8.39969 177.3 8.41748 176.994 8.44798C176.833 8.4645 176.747 8.42003 176.64 8.38698C176.602 8.37555 176.562 8.3514 176.53 8.35394C176.307 8.36792 176.084 8.38063 175.867 8.40605C175.649 8.43147 175.566 8.31328 175.402 8.31455C175.179 8.31582 174.959 8.34505 174.739 8.36284C174.562 8.37682 174.385 8.3908 174.207 8.40478C174.03 8.41876 173.853 8.43019 173.676 8.44671C173.582 8.45561 173.512 8.44417 173.434 8.41239C173.335 8.37046 173.217 8.33743 173.109 8.2993C172.946 8.24466 172.946 8.24465 172.747 8.2599C172.704 8.26371 172.658 8.26625 172.615 8.27006C172.291 8.29802 172.291 8.29549 171.877 8.21542C171.858 8.21161 171.81 8.22559 171.791 8.23576C171.735 8.2688 171.684 8.30438 171.633 8.33869C171.56 8.31836 171.472 8.30692 171.424 8.27769C171.287 8.19509 171.072 8.30819 170.932 8.22685C170.881 8.19635 170.793 8.16967 170.712 8.16204C170.629 8.15442 170.535 8.17221 170.449 8.17983C170.226 8.1989 170.226 8.19763 170.035 8.31074C169.939 8.36665 169.799 8.35648 169.673 8.36919C169.542 8.38317 169.415 8.3908 169.305 8.33869C169.206 8.29167 169.085 8.28024 168.943 8.29549C168.768 8.31455 168.589 8.32598 168.411 8.33742C168.374 8.33996 168.328 8.33361 168.29 8.32598C167.88 8.251 167.88 8.24974 167.681 8.26626C167.592 8.27388 167.501 8.27642 167.415 8.28785C167.27 8.30819 167.16 8.2815 167.056 8.24083C167.021 8.22812 166.98 8.20399 166.945 8.20526C166.768 8.21161 166.594 8.22305 166.419 8.23449C166.285 8.24338 166.151 8.24847 166.022 8.26626C165.807 8.29549 165.702 8.21287 165.555 8.17475C165.335 8.19127 165.112 8.20271 164.892 8.22558C164.79 8.23575 164.723 8.23194 164.645 8.20144C164.545 8.16332 164.454 8.12011 164.293 8.13917C164.078 8.16459 163.853 8.17349 163.633 8.18874C163.485 8.14934 163.378 8.06927 163.165 8.0985C163.037 8.11629 162.9 8.1201 162.768 8.13027C162.591 8.14425 162.414 8.15697 162.237 8.17222C162.046 8.18747 162.049 8.18365 161.756 8.10867C161.587 8.06419 161.412 8.11375 161.241 8.12138C161.106 8.12773 161.039 8.18619 161.071 8.26117C161.104 8.33615 161.031 8.39461 160.908 8.40478C160.599 8.42892 160.287 8.45433 159.979 8.47594C159.941 8.47848 159.896 8.46958 159.861 8.46069C159.53 8.38062 159.53 8.38191 159.383 8.39334C159.163 8.41241 158.937 8.42256 158.72 8.44671C158.569 8.46323 158.459 8.43655 158.363 8.39334C158.287 8.3603 158.218 8.35268 158.121 8.3603C157.058 8.44545 155.995 8.52424 154.934 8.61193C154.776 8.62464 154.685 8.58779 154.577 8.55347C154.54 8.54204 154.505 8.51789 154.467 8.51789C154.379 8.51789 154.29 8.52933 154.201 8.53695C153.804 8.56745 153.407 8.6043 153.007 8.62718C152.838 8.63734 152.792 8.69581 152.719 8.7441C152.663 8.78096 152.599 8.7962 152.499 8.80128C152.403 8.80637 152.333 8.80001 152.258 8.76697C152.161 8.72376 152.051 8.69707 151.901 8.71486C151.726 8.73519 151.549 8.7441 151.369 8.75808C151.278 8.76443 151.208 8.7873 151.178 8.83305C151.173 8.84068 151.229 8.85975 151.262 8.87119C151.369 8.90931 151.471 8.95379 151.592 8.98048C151.715 9.00716 151.85 8.97665 151.978 8.96903C152.024 8.96649 152.067 8.95887 152.11 8.96014C152.15 8.96141 152.199 8.96777 152.228 8.9792C152.368 9.03639 152.515 9.07579 152.709 9.04148C152.875 9.058 152.961 9.16348 153.173 9.13552C153.302 9.119 153.436 9.11137 153.57 9.10502C153.605 9.10375 153.643 9.12662 153.681 9.13806C153.788 9.16983 153.874 9.22066 154.035 9.19906C154.207 9.17618 154.389 9.17237 154.564 9.15458C154.66 9.14442 154.73 9.15331 154.805 9.18635C154.902 9.22829 155.012 9.26005 155.162 9.23972C155.291 9.22193 155.428 9.21811 155.56 9.20668C155.732 9.1927 155.732 9.19397 156.038 9.27276C156.073 9.28166 156.118 9.29183 156.156 9.28929C156.379 9.27403 156.599 9.25497 156.822 9.23972C156.907 9.23337 156.991 9.24989 157.05 9.28674C157.074 9.30199 157.066 9.32742 157.074 9.34903C156.631 9.38334 156.188 9.41256 155.748 9.4545C155.581 9.47102 155.506 9.41892 155.396 9.38969C155.358 9.37952 155.318 9.35792 155.283 9.36046C154.972 9.38206 154.663 9.40493 154.354 9.43289C154.258 9.44179 154.185 9.4367 154.113 9.39985C153.928 9.30199 153.702 9.35537 153.493 9.36935C153.332 9.37952 153.281 9.41892 153.299 9.5028C153.323 9.60192 153.42 9.63242 153.667 9.61463C153.756 9.60828 153.844 9.59938 153.933 9.59429C154.019 9.58921 154.097 9.60573 154.166 9.64004C154.234 9.67435 154.314 9.69215 154.397 9.68706C154.574 9.67562 154.754 9.66419 154.926 9.64513C155.068 9.62988 155.187 9.64259 155.286 9.68961C155.396 9.74171 155.525 9.73027 155.654 9.71883C155.954 9.69342 155.957 9.6947 156.145 9.75824C156.183 9.77095 156.22 9.7951 156.255 9.79383C156.564 9.77476 156.875 9.75824 157.179 9.72774C157.337 9.71249 157.428 9.75315 157.533 9.78619C157.571 9.79763 157.608 9.82305 157.643 9.82051C157.866 9.80653 158.089 9.79255 158.306 9.7684C158.408 9.75696 158.47 9.76458 158.553 9.79508C158.752 9.87006 158.757 9.86752 159.039 9.84338C159.125 9.83575 159.219 9.82177 159.3 9.83194C159.38 9.84211 159.445 9.87897 159.52 9.90184C159.555 9.91201 159.598 9.92598 159.635 9.92344C159.812 9.91327 159.989 9.89803 160.167 9.88405C160.333 9.87007 160.333 9.87134 160.645 9.95014C160.771 9.98318 160.902 9.95522 161.028 9.94505C161.165 9.93361 161.289 9.93362 161.394 9.98318C161.498 10.0327 161.624 10.0302 161.759 10.02C161.885 10.0099 162.014 9.98191 162.143 10.0162C162.438 10.095 162.438 10.0963 162.62 10.081C162.886 10.0594 163.149 10.0391 163.418 10.02C163.453 10.0175 163.498 10.0327 163.533 10.0429C163.608 10.0658 163.673 10.1039 163.753 10.1128C163.834 10.123 163.928 10.1077 164.014 10.1001C164.29 10.0759 164.309 10.0671 164.494 10.1509C164.65 10.2196 164.843 10.1204 164.988 10.1992C165.072 10.2437 165.184 10.2793 165.34 10.2577C165.469 10.2399 165.603 10.2348 165.737 10.2246C165.949 10.2081 165.949 10.2094 166.218 10.2856C166.253 10.2958 166.298 10.3085 166.333 10.306C166.511 10.2958 166.69 10.2869 166.862 10.264C167.064 10.2373 167.192 10.2856 167.343 10.3327C167.461 10.3695 167.601 10.339 167.727 10.3263C167.864 10.3136 167.987 10.3174 168.089 10.367C168.196 10.4178 168.323 10.4114 168.457 10.4013C168.583 10.3924 168.712 10.3632 168.841 10.3987C169.117 10.4775 169.117 10.4775 169.319 10.4623C169.496 10.4483 169.673 10.4331 169.85 10.4229C169.885 10.4203 169.928 10.4369 169.963 10.4483C170.038 10.4712 170.103 10.5093 170.183 10.5182C170.264 10.5271 170.358 10.5106 170.446 10.5042C170.535 10.4979 170.629 10.4788 170.709 10.4864C170.79 10.4941 170.865 10.5258 170.93 10.5538C171.005 10.5868 171.074 10.5906 171.176 10.5779C171.305 10.5614 171.44 10.5576 171.571 10.5487C171.644 10.5729 171.719 10.597 171.789 10.6237C171.861 10.6516 171.939 10.6491 172.038 10.6402C172.368 10.6097 172.371 10.6135 172.648 10.6923C172.774 10.7279 172.905 10.6987 173.032 10.6898C173.166 10.6796 173.292 10.6745 173.397 10.7254C173.499 10.7736 173.625 10.78 173.759 10.7647C173.845 10.7546 173.936 10.7482 174.025 10.7444C174.065 10.7431 174.114 10.7482 174.143 10.7584C174.285 10.8118 174.425 10.8601 174.621 10.8258C174.793 10.8359 174.879 10.9401 175.085 10.9198C175.26 10.902 175.442 10.8982 175.614 10.8753C175.773 10.855 175.885 10.8906 175.966 10.935C176.111 11.0138 176.315 10.9071 176.46 10.9846C176.543 11.0291 176.65 11.0647 176.812 11.0456C176.989 11.0253 177.045 11.052 177.096 11.132C177.126 11.1778 177.12 11.2146 177.067 11.2502C177.013 11.2871 176.954 11.2807 176.868 11.2388C176.769 11.1918 176.651 11.1829 176.508 11.193C176.369 11.2032 176.283 11.1371 176.167 11.1117C176.052 11.085 175.915 11.1295 175.794 11.0952C175.51 11.0151 175.51 11.0151 175.316 11.0304C175.185 11.0405 175.048 11.0456 174.919 11.0634C174.766 11.085 174.667 11.0456 174.562 11.01C174.524 10.9973 174.487 10.9732 174.454 10.9744C174.146 10.9935 173.834 11.0113 173.528 11.0431C173.367 11.0596 173.281 11.0138 173.174 10.9821C173.136 10.9706 173.096 10.9478 173.064 10.9503C172.798 10.9681 172.535 10.991 172.269 11.0126C172.218 11.0469 172.162 11.0799 172.113 11.1168C172.062 11.1549 171.993 11.1714 171.891 11.1702C171.721 11.1702 171.555 11.2235 171.386 11.1562C171.211 11.0875 171.198 11.0914 171.029 11.1079C170.814 11.1295 170.586 11.1244 170.385 11.174C170.35 11.1829 170.312 11.207 170.312 11.2248C170.309 11.2362 170.366 11.2528 170.401 11.2629C170.519 11.2934 170.656 11.2489 170.774 11.2807C170.852 11.3011 170.916 11.3315 170.994 11.3531C171.026 11.362 171.074 11.3608 171.117 11.3595C171.163 11.3582 171.206 11.3493 171.249 11.3506C171.289 11.3519 171.332 11.3595 171.364 11.3709C171.512 11.4192 171.668 11.4637 171.799 11.5209C171.928 11.5768 172.049 11.5387 172.178 11.5362C172.693 11.6251 172.693 11.6264 173.04 11.5984C173.126 11.5921 173.214 11.5845 173.303 11.5857C173.34 11.5857 173.375 11.6086 173.413 11.6213C173.52 11.6594 173.622 11.6937 173.773 11.6734C173.901 11.6556 174.038 11.6518 174.17 11.6404C174.347 11.6264 174.347 11.6264 174.648 11.7064C174.723 11.7268 174.803 11.7242 174.9 11.7141C174.983 11.7052 175.069 11.7242 175.128 11.7611C175.152 11.7764 175.144 11.8018 175.152 11.8234C174.887 11.8437 174.618 11.8577 174.361 11.8882C174.194 11.9073 174.119 11.8526 174.009 11.8234C173.971 11.8132 173.931 11.7916 173.896 11.7941C173.633 11.8132 173.37 11.8348 173.107 11.8602C173.075 11.8628 173.034 11.892 173.032 11.9098C173.026 11.9428 173.093 11.9746 173.19 11.9733C173.319 11.9721 173.445 11.9504 173.56 12.0026C173.657 12.0483 173.778 12.0687 173.92 12.0483C174.006 12.0369 174.097 12.0369 174.183 12.0267C174.412 11.9962 174.618 12.0026 174.79 12.089C174.922 12.1119 175.05 12.0903 175.177 12.0788C175.271 12.0699 175.362 12.061 175.429 12.0852C175.571 12.136 175.711 12.1868 175.907 12.1525C176.119 12.1881 176.28 12.2631 176.457 12.3241C176.54 12.3533 176.605 12.3698 176.702 12.3508C176.742 12.3432 176.79 12.3431 176.833 12.3393C176.922 12.333 177.016 12.3139 177.096 12.3215C177.177 12.3304 177.244 12.3673 177.316 12.3902C177.351 12.4016 177.391 12.4207 177.426 12.4194C177.561 12.413 177.692 12.4003 177.824 12.3902C177.955 12.3813 178.087 12.3724 178.218 12.3635C178.328 12.3965 178.441 12.4296 178.551 12.4626C178.728 12.4486 178.906 12.4346 179.08 12.4219C179.276 12.4067 179.276 12.408 179.558 12.4868C179.684 12.5223 179.818 12.4995 179.939 12.4829C180.141 12.4563 180.275 12.5046 180.417 12.5554C180.447 12.5656 180.5 12.5719 180.535 12.5668C180.675 12.549 180.796 12.563 180.898 12.61C180.97 12.6431 181.043 12.6583 181.131 12.652C181.44 12.6278 181.749 12.6024 182.057 12.5808C182.095 12.5783 182.138 12.5897 182.173 12.5999C182.447 12.6774 182.449 12.6812 182.651 12.6609C182.831 12.6431 182.997 12.6354 183.139 12.7053C183.169 12.7206 183.214 12.7422 183.247 12.7409C183.467 12.7282 183.69 12.7142 183.907 12.6926C184.007 12.6825 184.076 12.6863 184.154 12.7155C184.253 12.7524 184.342 12.7969 184.506 12.7803C184.96 12.7333 184.962 12.7409 185.499 12.8286C185.537 12.835 185.588 12.8248 185.631 12.8197C185.722 12.807 185.789 12.8248 185.87 12.854C186.05 12.9201 186.055 12.9163 186.227 12.9023C186.358 12.8909 186.495 12.8883 186.624 12.8693C186.823 12.8413 186.954 12.8909 187.102 12.9379C187.22 12.9748 187.357 12.9443 187.483 12.9328C187.62 12.9201 187.744 12.9239 187.846 12.9722C187.915 13.0053 187.991 13.0231 188.079 13.0167C188.388 12.9938 188.697 12.9684 189.005 12.9455C189.043 12.943 189.089 12.9532 189.123 12.9621C189.43 13.0408 189.43 13.0447 189.733 13.0154C189.83 13.0065 189.91 13.004 189.983 13.0307C190.052 13.0561 190.128 13.0802 190.2 13.1044C190.332 13.0955 190.466 13.093 190.595 13.0777C190.694 13.0663 190.764 13.0714 190.842 13.098C190.944 13.1324 191.03 13.1921 191.191 13.1628C191.274 13.1489 191.371 13.1527 191.454 13.14C191.553 13.1235 191.62 13.1336 191.698 13.1667C191.795 13.2061 191.894 13.2467 192.05 13.2264C192.222 13.2035 192.404 13.1997 192.579 13.1819C192.675 13.1717 192.742 13.1819 192.82 13.215C192.917 13.2569 193.027 13.2836 193.177 13.2671C193.483 13.2353 193.486 13.2416 193.784 13.3217C193.859 13.342 193.94 13.3395 194.036 13.3293C194.12 13.3204 194.206 13.3395 194.265 13.3764C194.321 13.417 194.316 13.4424 194.321 13.464ZM170.398 2.00222C170.309 2.00858 170.221 2.0162 170.092 1.90564C170.084 1.88657 170.089 1.8637 170.07 1.84718C170.027 1.81287 169.96 1.78872 169.88 1.78491C169.735 1.77983 169.56 1.82303 169.563 1.85607C169.566 1.88403 169.611 1.90817 169.7 1.93105C169.737 1.93994 169.767 1.9552 169.802 1.96536C169.904 1.99459 169.985 2.05179 170.132 2.02256C170.105 1.94377 170.119 1.98316 170.132 2.02256C170.119 2.07085 170.159 2.10517 170.256 2.11915C170.282 2.12296 170.323 2.12041 170.344 2.11279C170.427 2.08483 170.441 2.04671 170.379 1.94631C170.368 1.96283 170.376 1.99205 170.401 1.99968C170.425 2.0073 170.484 2.00096 170.513 1.99206C170.589 1.96791 170.626 1.93614 170.607 1.90945C170.597 1.89547 170.546 1.87768 170.513 1.87768C170.457 1.87768 170.406 1.90564 170.398 2.00222ZM192.106 16.7403C191.91 16.7644 191.685 16.7555 191.489 16.8051C191.454 16.814 191.419 16.8369 191.416 16.8547C191.414 16.8661 191.467 16.8826 191.499 16.8915C191.572 16.9119 191.652 16.9055 191.746 16.8992C191.889 16.8903 191.972 16.9487 192.082 16.9779C192.117 16.9868 192.163 16.9932 192.2 16.9906C192.418 16.9754 192.632 16.9589 192.85 16.9411C192.887 16.9373 192.928 16.9284 192.96 16.9169C193.067 16.8801 193.057 16.8559 192.952 16.828C192.836 16.7975 192.745 16.7466 192.627 16.7225C192.458 16.6882 192.286 16.7339 192.106 16.7403ZM176.86 17.668C176.728 17.6782 176.599 17.6884 176.468 17.6985C176.425 17.7023 176.379 17.7036 176.339 17.7087C176.256 17.7176 176.194 17.7443 176.154 17.7862C176.216 17.8192 176.291 17.8383 176.374 17.8345C176.506 17.8269 176.634 17.8104 176.766 17.8065C176.908 17.8015 176.991 17.8586 177.102 17.8879C177.136 17.8968 177.179 17.898 177.22 17.8993C177.418 17.9044 177.539 17.8383 177.502 17.7455C177.475 17.6731 177.373 17.6299 177.249 17.6388C177.12 17.6477 176.989 17.6579 176.86 17.668ZM193.024 14.862C193.057 14.8404 193.091 14.8251 193.108 14.8061C193.156 14.7412 193.137 14.6929 193.048 14.6421C192.941 14.5798 192.81 14.6218 192.689 14.6281C192.659 14.6294 192.627 14.6561 192.611 14.6726C192.6 14.6841 192.6 14.7082 192.616 14.7146C192.748 14.7654 192.887 14.8124 193.024 14.862ZM169.735 11.1079C169.606 11.118 169.474 11.1257 169.346 11.1397C169.313 11.1435 169.284 11.1676 169.265 11.1841C169.23 11.2146 169.268 11.2566 169.378 11.2604C169.504 11.2655 169.635 11.2439 169.767 11.2337C169.933 11.221 170.033 11.174 169.971 11.1333C169.912 11.0939 169.831 11.0863 169.735 11.1079ZM28.4167 8.39207C28.5026 8.38572 28.5912 8.38063 28.6771 8.37173C28.7576 8.36284 28.8194 8.33488 28.8597 8.29294C28.7926 8.2599 28.7174 8.24211 28.6342 8.24592C28.5026 8.25355 28.3738 8.26371 28.2449 8.27642C28.1644 8.28405 28.0865 8.312 28.0677 8.35521C28.049 8.38825 28.2288 8.40732 28.4167 8.39207ZM158.381 8.19636C158.416 8.20779 158.451 8.23067 158.486 8.23067C158.572 8.23067 158.661 8.22304 158.741 8.21033C158.776 8.20525 158.803 8.18238 158.819 8.16458C158.83 8.15315 158.827 8.13282 158.811 8.12265C158.733 8.06165 158.422 8.08325 158.371 8.15315C158.365 8.16586 158.379 8.18238 158.381 8.19636ZM149.911 1.23717C149.919 1.2575 149.922 1.27783 149.933 1.29816C149.954 1.33629 150.013 1.36425 150.099 1.38332C150.166 1.35155 150.201 1.31597 150.199 1.27784C150.196 1.25751 150.188 1.23716 150.177 1.21683C150.156 1.1787 150.097 1.15075 150.011 1.13169C149.943 1.16219 149.911 1.19777 149.911 1.23717ZM199.229 17.8892C199.204 17.9057 199.18 17.9222 199.153 17.9374C199.226 17.9743 199.293 17.9857 199.344 17.9654C199.376 17.9527 199.395 17.9336 199.419 17.9171C199.347 17.8803 199.282 17.8701 199.229 17.8892ZM197.559 18.062C197.594 18.0734 197.626 18.0887 197.663 18.0963C197.725 18.109 197.782 18.0874 197.824 18.0416C197.79 18.0302 197.757 18.015 197.72 18.0073C197.658 17.9946 197.602 18.0162 197.559 18.062ZM198.616 17.8294C198.598 17.8599 198.635 17.8853 198.735 17.9069C198.759 17.8904 198.791 17.8752 198.807 17.8574C198.834 17.8281 198.788 17.8015 198.692 17.7811C198.665 17.7964 198.641 17.8129 198.616 17.8294ZM192.949 16.4594C192.93 16.4899 192.968 16.5154 193.067 16.537C193.091 16.5204 193.124 16.5052 193.14 16.4874C193.167 16.4582 193.121 16.4315 193.024 16.4111C192.997 16.4264 192.973 16.4429 192.949 16.4594ZM185.228 7.46689C185.204 7.48341 185.18 7.49993 185.153 7.51518C185.225 7.55204 185.292 7.56347 185.343 7.54314C185.376 7.53043 185.394 7.51136 185.419 7.49484C185.346 7.45799 185.282 7.44782 185.228 7.46689ZM177.832 2.6961C177.896 2.705 177.95 2.68721 177.996 2.64019C177.961 2.62875 177.928 2.6135 177.891 2.60588C177.829 2.59317 177.773 2.61478 177.73 2.66053C177.765 2.67324 177.8 2.68466 177.832 2.6961ZM173.904 2.39745C173.88 2.41398 173.856 2.4305 173.829 2.44575C173.901 2.4826 173.969 2.49404 174.02 2.4737C174.052 2.46099 174.071 2.44193 174.095 2.42541C174.022 2.38856 173.958 2.37966 173.904 2.39745ZM147.27 1.23589C147.245 1.25241 147.221 1.26894 147.194 1.28419C147.267 1.32104 147.334 1.33248 147.385 1.31214C147.417 1.29943 147.436 1.28037 147.46 1.26385C147.388 1.22699 147.323 1.2181 147.27 1.23589ZM14.6497 11.5755C14.6148 11.5641 14.58 11.5527 14.5477 11.54C14.4699 11.5743 14.4457 11.6061 14.4887 11.6302C14.5155 11.6455 14.5558 11.6544 14.5907 11.6658C14.6712 11.6315 14.69 11.601 14.6497 11.5755Z" fill="#FFE492"/>
<path d="M13.3446 35.9937C13.0359 36.0178 12.7299 36.0483 12.4211 36.0636C12.2574 36.0712 12.1984 36.1258 12.1312 36.1767C12.0775 36.2173 12.0158 36.23 11.9164 36.2377C11.0788 36.2999 10.2439 36.366 9.40895 36.4308C9.30425 36.4143 9.25324 36.3876 9.2774 36.3559C9.29083 36.3368 9.32305 36.3101 9.35527 36.3076C9.9271 36.2605 10.4962 36.2122 11.0707 36.1754C11.2345 36.1652 11.2802 36.1093 11.3634 36.0636C11.3902 36.0483 11.4117 36.0254 11.4466 36.0165C11.4815 36.0064 11.5325 36.0076 11.5782 36.0051C12.5017 35.9327 13.4252 35.8615 14.3488 35.7891C14.4535 35.8056 14.5045 35.8323 14.4803 35.864C14.4669 35.8831 14.4347 35.9098 14.4025 35.9123C14.0481 35.939 13.6963 35.9657 13.3446 35.9937Z" fill="#FFE492"/>
<path d="M182.386 42.7607C182.246 42.7759 182.069 42.7975 181.924 42.7238C181.854 42.6882 181.779 42.6768 181.688 42.6844C181.556 42.6971 181.422 42.7073 181.288 42.7149C181.253 42.7162 181.207 42.7022 181.172 42.6908C181.097 42.6679 181.033 42.6298 180.952 42.6196C180.871 42.6095 180.775 42.6374 180.692 42.6311C180.582 42.6222 180.536 42.5879 180.565 42.5561C180.582 42.5383 180.614 42.5129 180.649 42.5091C181.145 42.462 181.148 42.462 181.288 42.5078C181.395 42.5434 181.494 42.5828 181.647 42.5612C181.776 42.5434 181.913 42.5395 182.045 42.5281C182.227 42.5129 182.227 42.5141 182.523 42.5942C182.598 42.6145 182.678 42.6133 182.775 42.6018C182.858 42.5929 182.939 42.6133 183.006 42.6476C182.963 42.6908 182.901 42.7187 182.818 42.7264C182.684 42.7391 182.552 42.748 182.386 42.7607Z" fill="#FFE492"/>
<path d="M177.445 42.37C177.784 42.3433 178.125 42.3204 178.463 42.2899C178.602 42.2772 178.712 42.2912 178.809 42.3344C178.914 42.3814 179.032 42.3776 179.161 42.3687C179.241 42.3636 179.319 42.3839 179.373 42.4195C179.394 42.4335 179.389 42.4589 179.397 42.4793C179.102 42.5021 178.804 42.5263 178.506 42.5466C178.471 42.5491 178.428 42.5364 178.396 42.5263C178.323 42.5047 178.261 42.4665 178.184 42.4589C178.017 42.4411 177.851 42.4754 177.682 42.4818C177.601 42.4843 177.523 42.4653 177.469 42.431C177.448 42.4144 177.453 42.3903 177.445 42.37Z" fill="#FFE492"/>
<path d="M55.2036 31.4429C55.5553 31.415 55.907 31.3883 56.2587 31.3604C56.3634 31.3781 56.4117 31.4036 56.3902 31.4353C56.3768 31.4544 56.3446 31.4811 56.3123 31.4836C55.609 31.5408 54.9056 31.5954 54.2049 31.6501C54.1002 31.6323 54.0519 31.6069 54.0734 31.5751C54.0868 31.5561 54.119 31.5294 54.1512 31.5268C54.5002 31.4976 54.8519 31.4709 55.2036 31.4429Z" fill="#FFE492"/>
<path d="M1.01039 38.5051C0.851998 38.5076 0.685583 38.5546 0.508395 38.519C0.473494 38.5127 0.425157 38.4924 0.427842 38.4809C0.433211 38.4619 0.465432 38.4377 0.500333 38.4301C0.653359 38.3983 0.843988 38.3945 0.921844 38.3055C0.959429 38.2598 1.02923 38.2445 1.12319 38.2357C1.22253 38.2255 1.29231 38.2293 1.37016 38.256C1.47218 38.2903 1.5581 38.3538 1.71918 38.3208C1.72724 38.3411 1.74598 38.364 1.73793 38.3831C1.72987 38.4021 1.69503 38.4199 1.66281 38.4339C1.63328 38.4466 1.59297 38.458 1.55539 38.4618C1.3782 38.4771 1.201 38.4898 1.01039 38.5051Z" fill="#FFE492"/>
<path d="M140.628 38.249C140.759 38.2388 140.896 38.2337 141.025 38.2159C141.127 38.2019 141.191 38.2108 141.272 38.2413C141.409 38.2947 141.417 38.2896 141.753 38.2973C141.79 38.2985 141.836 38.3176 141.857 38.3341C141.871 38.343 141.852 38.3672 141.836 38.3799C141.812 38.3964 141.777 38.418 141.745 38.418C141.532 38.4218 141.318 38.4968 141.111 38.4104C141.006 38.3672 140.891 38.3468 140.749 38.3659C140.663 38.3773 140.571 38.3824 140.483 38.3875C140.397 38.3926 140.308 38.3786 140.255 38.3405C140.177 38.2845 140.222 38.2629 140.362 38.2668C140.451 38.2693 140.539 38.2553 140.628 38.249Z" fill="#FFE492"/>
<path d="M189.287 47.0099C189.456 46.9971 189.625 46.9819 189.797 46.9717C189.832 46.9692 189.875 46.9832 189.907 46.9921C190.036 47.0302 190.017 47.095 190.023 47.1522C190.025 47.2119 189.727 47.2602 189.601 47.2195C189.462 47.1738 189.335 47.1217 189.142 47.1497C189.067 47.1598 188.978 47.137 188.93 47.1001C188.858 47.0467 188.898 47.0251 189.035 47.0289C189.115 47.0315 189.201 47.0175 189.287 47.0099Z" fill="#FFE492"/>
<path d="M104.057 29.7119C104.231 29.6979 104.406 29.6763 104.58 29.6751C104.682 29.6738 104.733 29.7157 104.709 29.7462C104.695 29.7653 104.663 29.792 104.631 29.7945C104.282 29.825 103.933 29.8505 103.584 29.8784C103.482 29.8606 103.431 29.8339 103.455 29.8034C103.469 29.7844 103.501 29.759 103.533 29.7551C103.708 29.7373 103.882 29.7259 104.057 29.7119Z" fill="#FFE492"/>
<path d="M185.937 42.8728C186.106 42.8601 186.278 42.841 186.447 42.8346C186.536 42.8321 186.606 42.8613 186.616 42.8944C186.622 42.9096 186.579 42.9363 186.544 42.9426C186.302 42.9859 186.042 42.9909 185.789 43.0125C185.709 43.0189 185.623 42.9986 185.575 42.963C185.502 42.9083 185.542 42.888 185.679 42.8918C185.765 42.8931 185.851 42.8791 185.937 42.8728Z" fill="#FFE492"/>
<path d="M145.064 38.4211C145.15 38.4147 145.238 38.3982 145.321 38.4033C145.41 38.4097 145.466 38.4465 145.493 38.4834C145.523 38.5253 145.52 38.5647 145.493 38.6003C145.45 38.6613 145.407 38.6588 145.308 38.6181C145.155 38.5545 145.144 38.5622 144.841 38.5647C144.806 38.5647 144.763 38.5456 144.736 38.5291C144.696 38.5037 144.717 38.4643 144.811 38.4414C144.881 38.4249 144.978 38.4274 145.064 38.4211Z" fill="#FFE492"/>
<path d="M179.648 42.4562C179.774 42.446 179.9 42.4295 180.027 42.4295C180.115 42.4282 180.185 42.4574 180.193 42.4892C180.196 42.5045 180.155 42.5299 180.123 42.5375C179.97 42.5718 179.798 42.5744 179.632 42.5858C179.554 42.5909 179.468 42.5705 179.42 42.535C179.347 42.4816 179.39 42.4574 179.522 42.4651C179.562 42.4676 179.605 42.46 179.648 42.4562Z" fill="#FFE492"/>
<path d="M159.794 40.8965C159.606 40.9117 159.429 40.8927 159.442 40.8596C159.461 40.8164 159.539 40.7885 159.619 40.7808C159.748 40.7681 159.877 40.758 160.009 40.7503C160.092 40.7452 160.167 40.7643 160.234 40.7973C160.194 40.838 160.132 40.8672 160.052 40.8761C159.968 40.885 159.88 40.8901 159.794 40.8965Z" fill="#FFE492"/>
<path d="M158.562 40.7333C158.688 40.7231 158.814 40.7066 158.941 40.7066C159.029 40.7053 159.099 40.7345 159.107 40.7663C159.11 40.7816 159.069 40.807 159.037 40.8146C158.884 40.8489 158.712 40.8515 158.546 40.8629C158.468 40.868 158.382 40.8476 158.334 40.8121C158.261 40.7587 158.304 40.7345 158.436 40.7422C158.476 40.7447 158.519 40.7371 158.562 40.7333Z" fill="#FFE492"/>
<path d="M143.541 38.4103C143.667 38.4002 143.793 38.3836 143.919 38.3824C144.008 38.3811 144.077 38.4103 144.086 38.4421C144.088 38.4574 144.048 38.4815 144.016 38.4904C143.863 38.5247 143.691 38.5273 143.524 38.5387C143.447 38.5438 143.361 38.5234 143.312 38.4879C143.24 38.4345 143.283 38.4103 143.414 38.418C143.455 38.4205 143.498 38.4129 143.541 38.4103Z" fill="#FFE492"/>
<path d="M142.834 38.3356C142.969 38.3254 143.012 38.3191 143.055 38.3191C143.135 38.3191 143.218 38.3343 143.267 38.3712C143.339 38.4246 143.296 38.4398 143.165 38.4424C142.996 38.4449 142.829 38.4716 142.66 38.4767C142.571 38.4792 142.502 38.4487 142.496 38.4169C142.494 38.4017 142.534 38.375 142.566 38.3699C142.679 38.3509 142.802 38.3394 142.834 38.3356Z" fill="#FFE492"/>
<path d="M157.465 30.8598C157.379 30.8661 157.288 30.8839 157.207 30.8776C157.1 30.8687 157.057 30.8344 157.084 30.8026C157.1 30.7848 157.13 30.7594 157.162 30.7556C157.334 30.7378 157.508 30.7263 157.68 30.7136C157.782 30.7327 157.828 30.7594 157.801 30.7911C157.785 30.8089 157.755 30.8331 157.723 30.8382C157.64 30.8509 157.551 30.8534 157.465 30.8598Z" fill="#FFE492"/>
<path d="M53.2736 31.5928C53.3568 31.5916 53.432 31.6081 53.4964 31.6399C53.4561 31.6805 53.3971 31.7072 53.3166 31.7187C53.2763 31.7237 53.2306 31.7275 53.1877 31.7288C53.1045 31.7314 53.0293 31.7136 52.9648 31.6818C53.0051 31.6411 53.0668 31.6144 53.1447 31.603C53.185 31.5979 53.2307 31.5967 53.2736 31.5928Z" fill="#FFE492"/>
<path d="M185.022 42.8678C185.019 42.831 185.183 42.789 185.33 42.7903C185.408 42.7916 185.489 42.8094 185.534 42.8437C185.604 42.8958 185.564 42.9161 185.432 42.9123C185.352 42.9098 185.266 42.9314 185.185 42.9276C185.094 42.9263 185.04 42.8983 185.022 42.8678Z" fill="#FFE492"/>
<path d="M145.843 38.5745C145.84 38.5606 145.827 38.544 145.835 38.5313C145.885 38.4614 146.193 38.4398 146.273 38.5008C146.287 38.5123 146.292 38.5313 146.281 38.5428C146.265 38.5606 146.236 38.5834 146.204 38.5885C146.121 38.6012 146.035 38.6076 145.95 38.6089C145.912 38.6089 145.877 38.5872 145.843 38.5745Z" fill="#FFE492"/>
<path d="M1.95918 38.3017C1.64239 38.3284 1.63702 38.3258 1.6934 38.2623C1.74441 38.2051 1.83838 38.1708 1.9753 38.1708C2.01557 38.1708 2.05851 38.1683 2.09341 38.1733C2.131 38.1797 2.18472 38.1924 2.19277 38.2076C2.20888 38.2369 2.1632 38.2686 2.08266 38.2903C2.04776 38.3004 2.00213 38.2979 1.95918 38.3017Z" fill="#FFE492"/>
<path d="M57.2367 31.413C57.1431 31.4346 57.0628 31.4269 57.004 31.3863C56.9452 31.3456 57.0388 31.2973 57.2019 31.2859C57.2447 31.2833 57.2902 31.2732 57.3303 31.2783C57.3704 31.2821 57.4106 31.2973 57.4346 31.3126C57.4774 31.338 57.4507 31.3723 57.3651 31.4015C57.3303 31.413 57.2795 31.4104 57.2367 31.413Z" fill="#FFE492"/>
<path d="M184.461 42.7717C184.484 42.7552 184.507 42.7386 184.534 42.7234C184.63 42.745 184.672 42.7704 184.646 42.7996C184.63 42.8174 184.599 42.8327 184.575 42.8492C184.479 42.8276 184.44 42.8009 184.461 42.7717Z" fill="#FFE492"/>
<path d="M6.21484 52.7689C6.21484 52.7537 6.25229 52.7295 6.28171 52.7244C6.33787 52.7155 6.40738 52.7333 6.45552 52.7689C6.52239 52.8197 6.48231 52.8464 6.35928 52.8325C6.27369 52.8223 6.21484 52.7969 6.21484 52.7689Z" fill="#FFE492"/>
<path d="M146.933 37.3919C146.967 37.4033 147.002 37.4147 147.034 37.4274C146.989 37.4745 146.933 37.4948 146.874 37.4821C146.836 37.4745 146.804 37.4592 146.77 37.4478C146.815 37.4007 146.869 37.383 146.933 37.3919Z" fill="#FFE492"/>
<path d="M146.01 37.3341C146.063 37.3151 146.127 37.3252 146.202 37.3621C146.178 37.3786 146.157 37.3977 146.127 37.4104C146.077 37.4307 146.01 37.4205 145.938 37.3824C145.959 37.3672 145.983 37.3506 146.01 37.3341Z" fill="#FFE492"/>
<path d="M145.298 37.3906C145.333 37.402 145.367 37.4135 145.4 37.4262C145.354 37.4732 145.301 37.4935 145.239 37.4808C145.202 37.4732 145.17 37.4579 145.135 37.4465C145.18 37.3995 145.234 37.3804 145.298 37.3906Z" fill="#FFE492"/>
<path d="M144.767 37.3237C144.806 37.3491 144.786 37.3796 144.71 37.4139C144.676 37.4025 144.637 37.3936 144.611 37.3783C144.569 37.3542 144.59 37.3224 144.668 37.2881C144.7 37.3008 144.733 37.3122 144.767 37.3237Z" fill="#FFE492"/>
</svg>
