<svg width="278" height="30" viewBox="0 0 278 30" fill="none" xmlns="http://www.w3.org/2000/svg">
<path d="M260.059 15.9765C259.68 16.0002 259.297 16.0165 258.926 16.0521C258.685 16.0744 258.581 16.0091 258.421 15.975C258.367 15.9632 258.309 15.9394 258.26 15.9424C257.884 15.9661 257.509 15.9928 257.134 16.0195C257.019 16.0773 256.946 16.1544 256.77 16.1826C256.598 16.2093 256.395 16.2093 256.203 16.2227C255.951 16.239 255.698 16.2553 255.445 16.2701C255.319 16.2775 255.215 16.3057 255.173 16.3591C255.166 16.368 255.25 16.3902 255.296 16.4035C255.449 16.448 255.598 16.4984 255.767 16.5325C255.928 16.5652 256.127 16.5118 256.299 16.5533C256.686 16.6467 256.69 16.6452 256.985 16.6274C257.237 16.6111 257.49 16.5934 257.743 16.5815C257.793 16.5785 257.85 16.6008 257.904 16.6126C258.064 16.6452 258.168 16.7194 258.405 16.6912C258.585 16.669 258.784 16.6645 258.972 16.6527C259.129 16.6957 259.275 16.7446 259.443 16.7787C259.6 16.8113 259.646 16.8365 259.562 16.8795C259.485 16.9196 259.378 16.9359 259.236 16.9388C259.11 16.9403 258.983 16.9537 258.857 16.9611C258.792 16.9655 258.731 16.9685 258.669 16.9729C258.428 16.9893 258.428 16.9892 257.988 16.8944C257.815 16.8573 257.62 16.9092 257.456 16.8736C257.345 16.8499 257.249 16.8143 257.142 16.7891C257.096 16.7787 257.023 16.7772 256.965 16.7802C256.774 16.7906 256.582 16.798 256.399 16.8172C256.268 16.8306 256.192 16.8721 256.207 16.9136C256.211 16.9299 256.303 16.9537 256.357 16.9551C256.479 16.9581 256.609 16.9373 256.728 16.9477C256.843 16.9581 256.962 16.9878 257.046 17.0204C257.218 17.0886 257.413 17.0278 257.578 17.0456C257.75 17.0649 257.892 17.1242 258.057 17.1598C258.099 17.1687 258.179 17.1538 258.244 17.1494C258.432 17.139 258.62 17.1301 258.807 17.1197C258.964 17.1627 259.133 17.2013 259.275 17.2502C259.531 17.3392 259.807 17.3733 260.14 17.3303C260.328 17.3065 260.511 17.3155 260.661 17.3733C260.814 17.4326 260.99 17.4267 261.185 17.4148C261.365 17.4029 261.549 17.3703 261.733 17.4118C262.131 17.5038 262.135 17.5082 262.606 17.4726C262.748 17.4623 262.855 17.4593 262.962 17.4934C263.062 17.5245 263.169 17.5512 263.272 17.5809C263.46 17.5705 263.651 17.5601 263.839 17.5483C264.08 17.5319 264.214 17.5527 264.272 17.6357C264.306 17.6861 264.322 17.7321 264.406 17.7662C264.505 17.8077 264.613 17.8062 264.758 17.7944C264.896 17.784 264.996 17.7677 265.053 17.7143C265.076 17.6921 265.122 17.6713 265.164 17.6535C265.198 17.6402 265.252 17.6194 265.283 17.6224C265.34 17.6283 265.417 17.6446 265.436 17.6639C265.624 17.8433 265.624 17.8448 265.815 17.8967C266.026 17.9545 266.244 18.0064 266.435 18.0717C266.608 18.1295 266.78 18.1043 266.968 18.1043C267.109 18.1043 267.201 18.1428 267.19 18.1814C267.182 18.2036 267.129 18.2362 267.083 18.2392C266.707 18.2689 266.328 18.2941 265.949 18.3148C265.903 18.3178 265.846 18.2911 265.792 18.2778C265.685 18.2511 265.589 18.2096 265.474 18.2007C265.359 18.1918 265.225 18.214 265.099 18.2214C264.973 18.2288 264.839 18.2481 264.724 18.2363C264.609 18.2244 264.517 18.1814 264.41 18.1532C264.36 18.1399 264.291 18.1206 264.249 18.125C263.969 18.1606 263.763 18.1117 263.563 18.0465C263.521 18.0331 263.449 18.0242 263.395 18.0272C262.951 18.0524 262.51 18.082 262.066 18.1102C261.886 18.1221 261.741 18.0702 261.702 17.9827C261.683 17.9338 261.645 17.8848 261.645 17.8359C261.645 17.7469 261.434 17.698 261.281 17.7084C261.028 17.7232 260.772 17.7351 260.523 17.7573C260.32 17.7751 260.148 17.7573 260.01 17.7039C259.849 17.6431 259.665 17.655 259.481 17.6713C259.343 17.6832 259.305 17.7321 259.313 17.8552C259.32 17.9545 259.255 17.9857 259.006 18.002C258.692 18.0227 258.375 18.0435 258.057 18.0598C258.007 18.0628 257.95 18.0376 257.9 18.0242C257.793 17.9975 257.697 17.9545 257.582 17.9456C257.467 17.9352 257.333 17.9575 257.207 17.9664C257.08 17.9738 256.946 17.9946 256.831 17.9842C256.716 17.9738 256.621 17.9293 256.517 17.9012C256.468 17.8878 256.406 17.8685 256.357 17.8715C256.104 17.8833 255.851 17.9011 255.598 17.9175C255.315 17.9353 255.315 17.9353 254.913 17.8433C254.729 17.8018 254.545 17.8344 254.365 17.8463C254.174 17.8582 253.994 17.8641 253.844 17.8048C253.745 17.7662 253.634 17.7425 253.515 17.7499C253.197 17.7677 252.883 17.7899 252.565 17.8077C252.512 17.8107 252.439 17.8033 252.397 17.7899C252.194 17.7277 251.995 17.6787 251.712 17.7099C251.466 17.7366 251.202 17.738 250.957 17.7632C250.823 17.7766 250.762 17.824 250.789 17.8611C250.804 17.8804 250.884 17.9026 250.938 17.9026C251.061 17.9041 251.195 17.8819 251.309 17.8908C251.547 17.9086 251.666 18.0331 251.976 17.999C252.16 17.9782 252.351 17.9708 252.542 17.9649C252.592 17.9634 252.646 17.9916 252.699 18.0064C252.853 18.0465 252.987 18.0983 253.209 18.0717C253.393 18.0509 253.588 18.045 253.776 18.0331C254.074 18.0138 254.074 18.0153 254.461 18.1058C254.645 18.1488 254.829 18.1147 255.009 18.1043C255.143 18.0969 255.269 18.082 255.376 18.1028C255.541 18.1339 255.66 18.2051 255.863 18.2007C256.054 18.1962 256.242 18.1755 256.433 18.168C256.552 18.1636 256.663 18.1873 256.759 18.2274C256.858 18.2674 256.965 18.2852 257.096 18.2763C257.283 18.2644 257.475 18.2496 257.666 18.2422C257.72 18.2407 257.781 18.254 257.831 18.2659C257.938 18.2926 258.041 18.3237 258.145 18.3519C258.332 18.343 258.524 18.34 258.708 18.3223C258.849 18.3089 258.949 18.3148 259.064 18.3445C259.209 18.3845 259.328 18.4557 259.566 18.4216C259.684 18.4053 259.822 18.4097 259.941 18.3949C260.086 18.3756 260.186 18.383 260.289 18.4275C260.485 18.512 260.73 18.5135 260.982 18.4809C261.258 18.4453 261.465 18.4868 261.672 18.5521C261.89 18.6203 261.89 18.6188 262.058 18.7834C262.108 18.8308 262.25 18.8531 262.369 18.8442C262.568 18.8294 262.74 18.8368 262.886 18.8931C263.039 18.9539 263.223 18.9465 263.41 18.9302C263.659 18.9079 263.908 18.8887 264.111 18.9747C264.211 19.0162 264.318 19.0266 264.452 19.0162C264.831 18.9895 265.214 18.9732 265.585 18.9406C265.811 18.9198 265.941 18.9673 266.095 19.0073C266.301 19.0621 266.527 19.1111 266.527 19.2282C266.527 19.2475 266.581 19.2697 266.627 19.2846C266.726 19.3157 266.834 19.3424 266.937 19.372C267.09 19.4165 267.24 19.4536 267.45 19.4299C267.634 19.4106 267.829 19.4047 268.017 19.3913C268.205 19.378 268.377 19.3706 268.545 19.4269C268.741 19.4907 268.947 19.5515 269.17 19.5989C269.327 19.633 269.533 19.5752 269.702 19.6212C269.805 19.6493 269.905 19.6819 270.016 19.7057C270.062 19.716 270.135 19.7086 270.196 19.7057C270.322 19.6997 270.452 19.6953 270.575 19.6805C270.717 19.6642 270.824 19.6671 270.931 19.7012C271.031 19.7324 271.13 19.7754 271.245 19.7843C271.417 19.7976 271.609 19.7383 271.781 19.8065C271.869 19.8406 271.98 19.8732 272.095 19.8836C272.21 19.894 272.344 19.8717 272.467 19.8732C272.52 19.8732 272.585 19.8969 272.616 19.9162C272.635 19.9266 272.608 19.9548 272.582 19.9696C272.547 19.9874 272.497 20.0111 272.447 20.0141C272.068 20.0408 271.689 20.063 271.31 20.0882C271.084 20.1031 271.084 20.103 270.629 20.0096C270.521 19.9874 270.403 19.9918 270.269 20.0022C270.089 20.0156 269.905 20.0408 269.717 20.0141C269.472 19.9133 269.17 19.9043 268.848 19.9429C268.714 19.9592 268.591 19.9592 268.492 19.931C268.281 19.8747 268.059 19.8228 267.871 19.7561C267.726 19.7042 267.657 19.6997 267.596 19.7709C267.577 19.7932 267.557 19.8169 267.561 19.8376C267.584 19.9118 267.626 19.9844 267.649 20.0586C267.657 20.0793 267.626 20.1031 267.607 20.1253C267.546 20.1876 267.466 20.1831 267.332 20.1312C267.197 20.0793 267.037 20.0452 266.822 20.0689C266.638 20.0897 266.439 20.0867 266.255 20.109C265.972 20.1416 265.773 20.0942 265.57 20.0304C265.528 20.017 265.455 20.0096 265.401 20.0126C264.831 20.0467 264.264 20.0853 263.694 20.1194C263.571 20.1268 263.46 20.1045 263.364 20.0645C263.265 20.0245 263.154 20.0037 263.031 20.0111C262.526 20.0423 262.02 20.0704 261.515 20.109C261.308 20.1253 261.143 20.106 261.002 20.0541C260.894 20.0156 260.795 20.0037 260.661 20.0082C260.515 20.0126 260.412 20.0274 260.339 20.0704C260.27 20.1119 260.32 20.1371 260.473 20.1698C260.638 20.2054 260.791 20.2513 260.948 20.2928C261.074 20.2869 261.201 20.275 261.323 20.2765C261.377 20.2765 261.427 20.3032 261.48 20.318C261.633 20.361 261.775 20.404 261.993 20.3803C262.177 20.3596 262.372 20.3551 262.56 20.3418C262.82 20.3255 262.82 20.3255 263.242 20.4189C263.349 20.4426 263.464 20.4411 263.602 20.4278C263.72 20.4174 263.843 20.4381 263.927 20.4826C263.962 20.5004 263.95 20.5301 263.877 20.628C263.877 20.7006 263.958 20.668 263.985 20.6205C264.027 20.5523 263.946 20.5301 263.793 20.5672C263.686 20.5938 263.632 20.6324 263.659 20.6635C263.674 20.6798 263.747 20.7006 263.877 20.628C264.214 20.539 264.471 20.5286 264.716 20.5049C264.862 20.4915 264.953 20.4975 265.068 20.536C265.206 20.582 265.344 20.6309 265.57 20.6072C265.815 20.5805 266.075 20.5775 266.324 20.5553C266.554 20.5345 266.673 20.5998 266.818 20.6383C266.995 20.6843 267.19 20.6324 267.351 20.6591C267.519 20.6858 267.638 20.751 267.833 20.7629C268.116 20.7228 268.296 20.797 268.511 20.8459C268.679 20.883 268.878 20.8504 269.058 20.834C269.261 20.8162 269.43 20.8326 269.572 20.886C269.732 20.9467 269.913 20.9334 270.096 20.9201C270.525 20.8904 270.54 20.8859 270.789 20.9675C270.969 21.0268 271.142 21.0001 271.322 20.9927C271.479 21.0327 271.632 21.0757 271.797 21.1113C271.839 21.1202 271.919 21.1054 271.984 21.1009C272.172 21.0891 272.363 21.0772 272.551 21.0654C272.677 21.0579 272.811 21.0357 272.926 21.0446C273.041 21.055 273.137 21.098 273.24 21.1262C273.344 21.1543 273.451 21.1825 273.55 21.2122C273.704 21.2566 273.849 21.2937 274.063 21.2715C274.247 21.2522 274.439 21.2463 274.63 21.2329C274.871 21.2166 274.864 21.2211 275.312 21.31C275.553 21.359 275.802 21.2996 276.047 21.2937C276.17 21.2907 276.288 21.3071 276.373 21.3501C276.407 21.3679 276.396 21.3975 276.407 21.4227C275.775 21.4627 275.139 21.4968 274.515 21.5458C274.274 21.5651 274.148 21.5117 274.018 21.4672C273.803 21.396 273.52 21.4998 273.317 21.4079C273.194 21.353 273.018 21.3219 272.807 21.3486C272.685 21.3634 272.555 21.3619 272.428 21.3753C272.107 21.4079 271.812 21.4094 271.555 21.3071C271.467 21.2715 271.341 21.2522 271.249 21.2181C271.142 21.181 271.038 21.1602 270.912 21.1677C270.341 21.2032 269.775 21.2388 269.208 21.2774C269.158 21.2804 269.108 21.3026 269.066 21.3189C268.959 21.3604 268.993 21.3931 269.166 21.4197C269.223 21.4286 269.269 21.4479 269.323 21.4627C269.426 21.4909 269.522 21.5354 269.637 21.5458C269.752 21.5562 269.886 21.5354 270.012 21.528C270.138 21.5206 270.272 21.4983 270.387 21.5072C270.502 21.5176 270.598 21.5606 270.705 21.5873C270.755 21.6006 270.816 21.6229 270.866 21.6214C271.119 21.6125 271.368 21.5962 271.62 21.5828C271.777 21.6229 271.911 21.6807 272.099 21.694C272.218 21.7029 272.344 21.6866 272.467 21.6896C272.52 21.6911 272.589 21.7133 272.616 21.7326C272.631 21.7445 272.582 21.7741 272.543 21.7889C272.398 21.8453 272.199 21.8349 272.019 21.8527C271.823 21.872 271.647 21.8661 271.498 21.8082C271.398 21.7697 271.287 21.7489 271.165 21.7563C270.847 21.7756 270.533 21.7979 270.215 21.8142C270.161 21.8171 270.096 21.8038 270.046 21.7934C269.644 21.703 269.644 21.7 269.361 21.7193C268.944 21.7474 268.944 21.7474 268.664 21.6688C268.611 21.654 268.553 21.6259 268.507 21.6273C268.063 21.6511 267.622 21.6748 267.182 21.7089C267.037 21.7193 266.937 21.7193 266.83 21.6807C266.738 21.6481 266.631 21.611 266.516 21.6021C266.397 21.5932 266.267 21.6155 266.141 21.6229C266.014 21.6303 265.88 21.6496 265.769 21.6377C265.654 21.6258 265.555 21.5843 265.455 21.5547C265.352 21.5235 265.241 21.525 265.099 21.5369C264.662 21.571 264.659 21.5665 264.226 21.4746C264.176 21.4642 264.111 21.4524 264.057 21.4553C263.74 21.4731 263.426 21.4954 263.108 21.5132C262.985 21.5206 262.866 21.5013 262.782 21.4583C262.748 21.4405 262.759 21.4108 262.736 21.353C262.709 21.3397 262.74 21.3634 262.748 21.3856C262.805 21.3827 262.874 21.3856 262.916 21.3738C263.023 21.3456 263.077 21.3085 263.05 21.2774C263.035 21.2611 262.962 21.2403 262.916 21.2403C262.832 21.2403 262.759 21.2729 262.736 21.353C262.495 21.4019 262.238 21.4123 261.989 21.4361C261.844 21.4509 261.752 21.4435 261.637 21.4049C261.499 21.3575 261.358 21.3115 261.132 21.3352C260.887 21.3619 260.626 21.3664 260.374 21.3871C260.082 21.4109 259.956 21.2774 259.711 21.2804C259.458 21.2833 259.206 21.3085 258.953 21.3263C258.731 21.3412 258.731 21.3411 258.271 21.2448C258.103 21.2092 257.904 21.2611 257.739 21.224C257.628 21.2003 257.532 21.1647 257.425 21.1395C257.379 21.1291 257.306 21.1291 257.249 21.1321C256.931 21.1499 256.609 21.1617 256.303 21.1944C255.954 21.2329 255.69 21.1914 255.441 21.1039C255.127 21.1202 254.809 21.1291 254.499 21.1573C254.273 21.178 254.143 21.1291 253.99 21.0891C253.936 21.0757 253.89 21.0535 253.833 21.0476C253.776 21.0416 253.707 21.0535 253.645 21.0579C253.393 21.0742 253.132 21.0817 252.887 21.1084C252.585 21.1425 252.47 21.0209 252.236 21.006C252.079 21.0787 251.995 21.178 251.685 21.1855C251.432 21.1914 251.179 21.2151 250.926 21.2314C250.8 21.2388 250.674 21.2477 250.547 21.2552C250.344 21.2685 250.249 21.3263 250.291 21.4153C250.314 21.4642 250.333 21.5132 250.352 21.5621C250.39 21.6496 250.295 21.7237 250.134 21.7341C249.69 21.7623 249.249 21.7919 248.805 21.8171C248.686 21.8245 248.571 21.7993 248.476 21.7593C248.376 21.7192 248.265 21.7015 248.143 21.7089C247.698 21.737 247.258 21.7667 246.814 21.7919C246.764 21.7949 246.699 21.7801 246.649 21.7682C246.542 21.7415 246.438 21.7104 246.335 21.6822C246.082 21.6955 245.833 21.7044 245.585 21.7222C245.182 21.7489 245.182 21.7504 244.888 21.6688C244.834 21.654 244.78 21.6259 244.731 21.6273C244.539 21.6333 244.352 21.6481 244.16 21.6614C243.597 21.7 243.597 21.7 243.432 21.6555C243.283 21.614 243.149 21.5636 242.923 21.5873C242.678 21.614 242.418 21.6229 242.165 21.6377C241.977 21.6481 241.79 21.66 241.602 21.6629C241.552 21.6644 241.499 21.6362 241.445 21.6214C241.292 21.5754 241.142 21.5384 240.932 21.5636C240.809 21.5784 240.679 21.5814 240.553 21.5888C240.223 21.6095 240.223 21.6095 239.683 21.5206C239.63 21.5117 239.565 21.5013 239.511 21.5057C239.067 21.5324 238.627 21.5621 238.182 21.5873C238.129 21.5903 238.064 21.5814 238.01 21.5739C237.405 21.4879 237.405 21.4879 236.762 21.5295C236.517 21.5443 236.509 21.5502 236.252 21.4716C236.137 21.4375 236.042 21.4212 235.908 21.4316C235.402 21.4672 234.893 21.4909 234.391 21.5324C234.165 21.5502 234.035 21.5057 233.882 21.4657C233.828 21.4524 233.771 21.4227 233.725 21.4242C233.22 21.4524 232.714 21.4865 232.209 21.5146C232.163 21.5176 232.105 21.4879 232.052 21.4746C231.948 21.4479 231.849 21.4079 231.734 21.399C231.615 21.3901 231.485 21.4123 231.355 21.4197C231.037 21.439 231.037 21.4375 230.669 21.3501C230.619 21.3382 230.554 21.3219 230.504 21.3248C229.999 21.3545 229.49 21.3797 228.988 21.4227C228.701 21.4464 228.506 21.4034 228.303 21.3412C228.26 21.3278 228.188 21.3219 228.134 21.3248C227.564 21.3589 226.997 21.3975 226.426 21.4316C226.308 21.439 226.193 21.4138 226.097 21.3753C225.944 21.3145 225.764 21.3219 225.572 21.3352C225.132 21.3664 225.128 21.3649 224.868 21.2937C224.814 21.2789 224.768 21.2596 224.711 21.2522C224.657 21.2448 224.588 21.2492 224.531 21.2522C224.278 21.267 224.025 21.2833 223.773 21.2996C223.52 21.3159 223.263 21.3249 223.014 21.3501C222.708 21.3812 222.562 21.2848 222.348 21.2403C222.034 21.2596 221.712 21.2715 221.402 21.3026C221.165 21.3263 221.054 21.2611 220.897 21.227C220.843 21.2151 220.786 21.1899 220.736 21.1929C220.165 21.2255 219.595 21.2611 219.028 21.3011C218.89 21.31 218.798 21.2981 218.683 21.2626C218.427 21.1825 218.415 21.1855 217.986 21.2151C217.799 21.2285 217.619 21.2403 217.458 21.1795C217.316 21.1247 217.144 21.1113 216.941 21.1291C216.692 21.1514 216.435 21.1632 216.183 21.1781C215.93 21.1944 215.677 21.2166 215.425 21.224C215.222 21.2314 215.099 21.1617 214.938 21.1262C214.888 21.1158 214.819 21.1143 214.762 21.1173C214.509 21.1306 214.249 21.141 214.004 21.1662C213.705 21.1973 213.54 21.1158 213.33 21.0683C213.284 21.0579 213.207 21.0639 213.15 21.0683C212.706 21.095 212.265 21.1247 211.821 21.1528C211.664 21.1128 211.503 21.0743 211.346 21.0342C211.093 21.0491 210.841 21.0654 210.588 21.0802C210.397 21.092 210.201 21.0965 210.021 21.1187C209.788 21.1484 209.673 21.0787 209.516 21.0446C209.462 21.0327 209.405 21.0075 209.355 21.0105C209.037 21.0268 208.719 21.0446 208.405 21.0698C208.107 21.095 207.988 20.9616 207.743 20.963C207.49 20.9645 207.23 20.9838 206.985 21.0105C206.701 21.0416 206.502 20.9942 206.299 20.9304C206.257 20.9171 206.184 20.9097 206.131 20.9126C205.813 20.9304 205.499 20.9527 205.181 20.9705C205.127 20.9734 205.062 20.966 205.009 20.9571C204.404 20.8696 204.404 20.8682 204.139 20.886C203.952 20.8978 203.76 20.9126 203.569 20.9201C203.515 20.923 203.45 20.9097 203.4 20.8978C203.002 20.8074 203.002 20.8059 202.715 20.8237C202.462 20.84 202.209 20.8563 201.957 20.8726C201.8 20.8326 201.639 20.794 201.482 20.754C201.168 20.7733 200.846 20.7881 200.536 20.8148C200.39 20.8266 200.295 20.8222 200.184 20.7851C200.046 20.7406 199.908 20.6887 199.678 20.7139C199.433 20.7406 199.173 20.7436 198.924 20.7658C198.625 20.7925 198.503 20.6576 198.261 20.6591C198.009 20.6606 197.748 20.6798 197.503 20.7065C197.22 20.7377 197.021 20.6902 196.818 20.6265C196.775 20.6131 196.703 20.6057 196.649 20.6087C195.952 20.6517 195.259 20.6947 194.562 20.7406C194.133 20.7688 194.133 20.7703 193.318 20.6887C193.26 20.6828 193.199 20.6769 193.141 20.6798C192.889 20.6932 192.628 20.7036 192.383 20.7288C192.085 20.7599 191.92 20.6798 191.709 20.6309C191.663 20.6205 191.591 20.6265 191.529 20.6294C191.338 20.6398 191.15 20.6532 190.959 20.665C190.706 20.6813 190.453 20.6976 190.2 20.7139C190.043 20.6754 189.883 20.6354 189.726 20.5968C189.412 20.6161 189.09 20.6265 188.78 20.6576C188.542 20.6813 188.431 20.619 188.274 20.5835C188.221 20.5716 188.163 20.5464 188.113 20.5479C187.543 20.5805 186.972 20.6146 186.406 20.6561C186.172 20.6739 186.065 20.6072 185.908 20.5731C185.854 20.5627 185.793 20.5434 185.743 20.5464C185.364 20.5672 184.985 20.5924 184.606 20.6176C184.391 20.6324 184.391 20.6324 183.924 20.5405C183.871 20.5301 183.809 20.5197 183.756 20.5227C182.553 20.5968 181.355 20.6754 180.152 20.7495C180.03 20.7569 179.919 20.7347 179.823 20.6947C179.723 20.6546 179.612 20.6339 179.49 20.6413C178.984 20.6724 178.475 20.7006 177.973 20.7392C177.767 20.7555 177.602 20.7362 177.46 20.6843C177.353 20.6457 177.253 20.6309 177.119 20.6398C176.867 20.6576 176.614 20.6724 176.361 20.6887C176.108 20.705 175.856 20.7214 175.603 20.7377C175.35 20.754 175.094 20.7629 174.845 20.7881C174.538 20.8192 174.389 20.7273 174.178 20.6813C173.799 20.7036 173.42 20.7258 173.045 20.7495C172.539 20.7807 172.034 20.8148 171.529 20.8444C171.483 20.8474 171.425 20.8207 171.372 20.8074C171.215 20.7703 171.1 20.7184 170.866 20.7347C169.733 20.8133 168.591 20.88 167.454 20.9571C167.217 20.9734 167.113 20.9097 166.952 20.8756C166.899 20.8652 166.838 20.8444 166.788 20.8474C166.156 20.8845 165.524 20.926 164.892 20.966C164.636 20.9823 164.636 20.9823 164.207 20.8904C164.157 20.88 164.092 20.8667 164.038 20.8696C163.215 20.92 162.395 20.9734 161.572 21.0253C161.45 21.0327 161.339 21.012 161.239 20.9719C161.143 20.9319 161.028 20.9097 160.91 20.9171C160.151 20.9645 159.389 21.0105 158.635 21.0624C158.432 21.0772 158.264 21.0639 158.118 21.0105C158.015 20.9719 157.911 20.9556 157.781 20.9645C156.644 21.0372 155.506 21.1069 154.369 21.184C154.151 21.1988 153.998 21.1706 153.86 21.1217C153.749 21.0832 153.653 21.0757 153.515 21.0817C153.37 21.0891 153.282 21.1054 153.201 21.1499C153.098 21.2077 153.033 21.2804 152.788 21.2848C152.535 21.2893 152.278 21.3071 152.029 21.3323C151.792 21.3575 151.681 21.2907 151.532 21.2507C151.421 21.2225 151.317 21.2181 151.175 21.2314C151.045 21.2433 150.965 21.2685 150.888 21.3159C150.72 21.4168 150.704 21.4168 150.498 21.353C150.387 21.3189 150.287 21.2922 150.164 21.2981C149.659 21.3278 149.154 21.3604 148.648 21.3945C148.357 21.4138 148.353 21.4168 148.135 21.3426C148.028 21.3056 147.924 21.2878 147.798 21.2967C146.408 21.3856 145.018 21.4716 143.628 21.5651C143.413 21.5799 143.268 21.5487 143.115 21.5043C143.065 21.4894 143.015 21.4687 142.958 21.4627C142.9 21.4568 142.835 21.4627 142.774 21.4657C141.763 21.5295 140.748 21.5903 139.741 21.6614C139.511 21.6777 139.389 21.6303 139.232 21.5917C139.178 21.5784 139.132 21.5576 139.075 21.5517C139.017 21.5473 138.948 21.5576 138.887 21.5621C137.876 21.6258 136.861 21.6866 135.854 21.7578C135.613 21.7741 135.51 21.7118 135.353 21.6792C135.299 21.6674 135.242 21.6451 135.192 21.6481C134.874 21.6644 134.56 21.6866 134.242 21.7059C133.484 21.7548 132.726 21.8008 131.967 21.8512C131.676 21.8705 131.55 21.7385 131.305 21.7445C130.987 21.7519 130.673 21.7815 130.355 21.8023C130.102 21.8186 129.85 21.8334 129.597 21.8512C129.348 21.8675 129.348 21.8675 128.728 21.7815C128.674 21.7741 128.609 21.7637 128.555 21.7667C127.671 21.8216 126.782 21.8764 125.902 21.9357C125.699 21.9491 125.53 21.9417 125.385 21.8868C125.281 21.8483 125.174 21.829 125.048 21.8379C123.719 21.9224 122.394 22.0069 121.065 22.09C121.015 22.0929 120.95 22.0781 120.901 22.0662C120.793 22.0395 120.69 22.0084 120.587 21.9802C120.51 22.0143 120.41 22.0455 120.361 22.084C120.292 22.1359 120.2 22.1507 120.054 22.1596C119.909 22.1685 119.817 22.1656 119.702 22.127C119.564 22.0796 119.422 22.0425 119.197 22.0573C117.806 22.1507 116.416 22.2353 115.026 22.3272C114.797 22.342 114.689 22.2768 114.529 22.2427C114.475 22.2323 114.414 22.216 114.364 22.219C113.793 22.2531 113.227 22.2901 112.656 22.3257C111.074 22.4265 109.493 22.5229 107.915 22.6297C107.628 22.649 107.433 22.6119 107.23 22.5481C107.188 22.5348 107.115 22.5274 107.061 22.5303C104.848 22.6697 102.635 22.8106 100.425 22.9514C100.306 22.9588 100.191 22.9351 100.096 22.8966C99.996 22.8565 99.885 22.8373 99.7625 22.8447C98.7515 22.9084 97.7406 22.9722 96.7297 23.0374C96.4769 23.0538 96.4731 23.0552 96.2127 22.984C96.1591 22.9692 96.1017 22.9411 96.0595 22.944C95.9715 22.9514 95.8872 22.9885 95.8259 23.0389C95.7646 23.0923 95.6689 23.1071 95.5272 23.1175C95.3817 23.1279 95.286 23.1234 95.1749 23.0879C95.0332 23.0434 94.903 23.0004 94.6733 23.0152C91.7668 23.205 88.8603 23.3874 85.9538 23.5757C85.7202 23.5905 85.613 23.5282 85.4521 23.4941C85.3985 23.4837 85.3449 23.4689 85.2875 23.4659C85.2262 23.463 85.1611 23.4719 85.0999 23.4763C80.3591 23.7773 75.6184 24.0798 70.8777 24.3808C70.5943 24.3986 70.5981 24.3986 70.2879 24.535C70.2496 24.5513 70.1998 24.5736 70.1462 24.5765C68.6949 24.6714 67.2398 24.7634 65.7846 24.8553C65.1527 24.8953 64.5209 24.9369 63.8891 24.9754C63.6631 24.9887 63.6631 24.9888 63.1232 25.1489C63.0773 25.1622 63.0236 25.18 62.97 25.183C60.4426 25.3446 57.9152 25.5062 55.384 25.6649C55.1849 25.6768 55.0241 25.7034 54.9322 25.7746C54.8671 25.825 54.7828 25.8547 54.6565 25.8636C52.8873 25.9763 51.1182 26.0904 49.3452 26.2002C49.1346 26.2135 49.0081 26.255 48.9047 26.3173C48.8703 26.3381 48.8396 26.3618 48.7898 26.3766C48.7439 26.3899 48.675 26.3944 48.6175 26.3989C47.1011 26.4952 45.5847 26.5946 44.0645 26.6865C43.8385 26.6999 43.7466 26.7547 43.6355 26.8125C43.5972 26.8318 43.5704 26.8585 43.5206 26.8719C43.4709 26.8837 43.3981 26.8837 43.3368 26.8867C42.0732 26.9668 40.8095 27.0483 39.5458 27.1284C39.3007 27.121 39.2471 27.207 39.1284 27.2589C39.0863 27.2767 39.0557 27.3004 39.0059 27.3122C38.9523 27.3241 38.8833 27.3226 38.8182 27.3256C37.8072 27.3893 36.7963 27.4575 35.7815 27.5169C35.5479 27.5302 35.502 27.6058 35.3756 27.6577C35.3335 27.674 35.2914 27.6992 35.2416 27.7037C34.6098 27.7467 33.9779 27.7867 33.3461 27.8253C33.1355 27.8386 33.1355 27.8371 32.764 27.9839C32.7219 28.0002 32.6721 28.018 32.6185 28.0225C31.6726 28.0848 30.723 28.1441 29.7733 28.2049C29.6507 28.2123 29.5665 28.2479 29.5052 28.2983C29.444 28.3487 29.3559 28.3813 29.2334 28.3887C28.4752 28.4377 27.7169 28.4881 26.9587 28.5325C26.748 28.5444 26.6102 28.5815 26.5183 28.6482C26.4494 28.6986 26.3651 28.7238 26.2311 28.7327C25.4729 28.7802 24.7147 28.8321 23.9527 28.8736C23.7306 28.8855 23.6156 28.9359 23.5237 28.9981C23.451 29.0486 23.3667 29.0663 23.225 29.0752C21.835 29.1612 20.4411 29.2472 19.0549 29.3421C18.8213 29.3584 18.7026 29.3065 18.5494 29.2695C18.3311 29.2176 18.1282 29.1612 18.1282 29.0456C18.1282 29.0278 18.0631 29.007 18.0172 28.9922C17.6763 28.881 17.6763 28.881 17.6227 28.7624C17.5921 28.6897 17.5576 28.6156 17.5308 28.5415C17.481 28.4199 17.3585 28.3887 17.0062 28.411C16.8798 28.4184 16.7534 28.4287 16.6271 28.4347C16.4394 28.4451 16.2977 28.3961 16.2633 28.3072C16.2441 28.2582 16.2212 28.2093 16.202 28.1604C16.3935 28.1485 16.3896 28.147 16.7266 27.9676C16.8683 27.892 16.8684 27.892 16.5965 27.8164C16.4931 27.7882 16.3935 27.7571 16.2824 27.7304C16.2327 27.7185 16.1676 27.7111 16.114 27.7141C15.7961 27.7319 15.4821 27.7526 15.1681 27.7734C14.6627 27.806 14.6626 27.806 14.1495 27.6547C14.1073 27.6429 14.0422 27.6207 14.0499 27.6088C14.092 27.5539 14.1954 27.5302 14.3256 27.5243C14.5171 27.5154 14.7047 27.5005 14.8923 27.4887C15.0187 27.4813 15.1451 27.4724 15.2714 27.465C15.3902 27.4086 15.5128 27.3538 15.6238 27.2959C15.8 27.207 15.7999 27.204 15.5586 27.1417C15.4055 27.1002 15.2408 27.0631 15.0838 27.0246C14.8962 27.0364 14.7047 27.0498 14.5171 27.0602C14.2797 27.0735 14.1839 27.0453 14.1226 26.9489C14.069 26.8644 14.1341 26.7918 14.3179 26.774C14.5056 26.7562 14.6818 26.7443 14.7775 26.6687C14.8694 26.5961 15.0302 26.5679 15.2294 26.562C15.3557 26.5575 15.4821 26.5471 15.6085 26.5382C15.7731 26.5264 15.8612 26.4508 15.8268 26.3662C15.8076 26.3114 15.7693 26.2654 15.62 26.2535C14.9575 26.2016 14.9498 26.2031 14.6205 26.1023C14.5898 26.0934 14.5669 26.0667 14.5784 26.0534C14.5975 26.0311 14.6397 25.9985 14.6856 25.9941C15.126 25.9614 15.5664 25.9318 16.0067 25.9095C16.1523 25.9021 16.2595 25.8917 16.3093 25.8369C16.3782 25.7613 16.3476 25.6916 16.2135 25.6397C16.1714 25.6234 16.1024 25.6026 16.0565 25.6041C15.551 25.6308 15.0494 25.6649 14.5439 25.6916C14.498 25.6945 14.4137 25.6693 14.3946 25.6501C14.3563 25.6145 14.4137 25.567 14.5477 25.5507C14.7239 25.5285 14.9039 25.527 15.0226 25.4528C15.1872 25.3476 15.3902 25.2512 15.574 25.1504C15.6046 25.1326 15.6545 25.0985 15.643 25.0955C15.5472 25.0629 15.4362 25.0377 15.3366 25.0065C15.1681 24.9546 15.1681 24.882 15.2064 24.8123C15.237 24.756 15.3519 24.7337 15.4936 24.7337C15.5548 24.7337 15.6314 24.7337 15.6812 24.7204C15.8114 24.6878 15.8535 24.6462 15.7884 24.6151C15.7502 24.5973 15.6813 24.5721 15.6353 24.5751C14.8158 24.624 13.9924 24.6714 13.1768 24.7322C12.9355 24.75 12.8246 24.6937 12.6791 24.6536C12.568 24.6225 12.4645 24.6106 12.3267 24.6329C12.1965 24.6536 12.0702 24.6418 11.9897 24.5929C11.9247 24.5528 12.0395 24.5187 12.3497 24.4802C12.4071 24.4728 12.4722 24.4683 12.5143 24.4535C12.9585 24.2933 12.9585 24.2918 13.2649 24.2711C13.5636 24.2518 13.5636 24.2503 13.7206 24.1643C13.7934 24.1243 13.8737 24.0843 13.9427 24.0427C13.9695 24.0264 14.0155 23.9968 14.0002 23.9879C13.9159 23.9419 13.801 23.9315 13.667 23.9419C13.3683 23.9671 13.016 23.9464 12.859 24.0872C12.7978 24.1406 12.702 24.1554 12.5642 24.1643C11.1779 24.2503 9.79165 24.3423 8.40159 24.4253C8.17566 24.4386 8.07233 24.4935 7.98425 24.5543C7.90767 24.6047 7.8234 24.6195 7.67789 24.6284C7.53237 24.6373 7.41743 24.6418 7.33319 24.5929C7.28341 24.5632 7.32554 24.5217 7.44042 24.4802C7.60508 24.4209 7.57443 24.3467 7.52082 24.277C7.48253 24.2311 7.36382 24.1984 7.23745 24.2014C7.04981 24.2073 6.86988 24.2236 6.71288 24.1643C6.62098 24.1302 6.50607 24.1065 6.40268 24.0768C6.20355 24.016 6.00442 23.9538 5.72487 23.9938C5.53341 23.979 5.39938 23.9256 5.2462 23.8841C4.98964 23.8159 4.96666 23.8055 5.15047 23.7328C5.35726 23.6513 5.19639 23.5445 5.31127 23.4645C5.43381 23.3785 5.60236 23.3029 5.75171 23.2228C5.79 23.202 5.82448 23.1827 5.86277 23.162C5.7747 23.1323 5.6943 23.0953 5.5909 23.0745C5.45688 23.0478 5.38794 23.0152 5.3956 22.9233C5.3688 22.9099 5.38021 22.944 5.41084 22.9529C5.44531 22.9618 5.52961 22.9544 5.57174 22.944C5.67896 22.9159 5.73251 22.8788 5.70571 22.8476C5.69039 22.8313 5.61769 22.8106 5.57174 22.8106C5.48749 22.8106 5.41475 22.8432 5.39177 22.9233C4.96288 22.9841 4.5186 23.0137 4.0744 23.0374C4.02845 23.0404 3.97104 23.0107 3.91743 22.9959C3.74128 22.9455 3.74126 22.947 3.22429 22.9322C3.17068 22.9307 3.09796 22.9099 3.07115 22.8892C2.9601 22.7987 2.96396 22.6994 2.91035 22.603C3.00991 22.5407 3.1094 22.4799 3.21279 22.4191C3.41958 22.2961 3.68769 22.1878 3.84853 22.0529C3.81406 21.9802 3.7681 21.9076 3.93659 21.8483C4.41526 21.7741 4.41146 21.7741 4.54166 21.703C4.91311 21.5013 5.28071 21.2982 5.66747 21.0995C5.77086 21.0476 5.77088 21.0194 5.58707 20.9972C5.52963 20.9912 5.46828 20.9897 5.40701 20.9927C5.21554 21.0031 5.02408 21.0298 4.83644 21.0238C4.6488 21.0194 4.51094 20.9542 4.35777 20.9141C4.20076 20.8726 4.04377 20.8296 3.88676 20.7866C3.70678 20.791 3.52684 20.8326 3.34686 20.7658C3.209 20.7139 3.03669 20.6769 2.87969 20.6339C2.9984 20.5212 3.22053 20.4352 3.39285 20.3358C3.54986 20.2454 3.5536 20.2469 3.97483 20.1772C4.17396 20.1446 4.24289 19.977 4.0744 19.9281C3.87144 19.8688 3.65704 19.8139 3.45026 19.7576C3.27028 19.762 3.08651 19.8021 2.91418 19.7353C2.78016 19.6849 2.62695 19.6508 2.40485 19.6701C2.02957 19.7027 1.64665 19.719 1.26754 19.7457C1.13734 19.7546 0.995615 19.7487 0.938175 19.6983C0.899881 19.6627 1.01094 19.6137 1.13731 19.6034C1.32878 19.5885 1.50108 19.5707 1.59681 19.4966C1.68872 19.4225 1.85719 19.4002 2.05632 19.3898C2.10993 19.3869 2.17124 19.3691 2.19805 19.3513C2.33591 19.2653 2.48909 19.1912 2.78395 19.1941C2.90649 19.1645 2.97155 19.1274 2.93326 19.0918C2.91028 19.0725 2.8299 19.0473 2.78395 19.0503C2.46612 19.0651 2.14829 19.0799 1.83811 19.1066C1.6926 19.1185 1.58148 19.1215 1.48958 19.077C1.42448 19.0473 1.45894 19.0073 1.58148 18.9643C1.6887 18.9272 1.71937 18.8842 1.71171 18.8338C1.69257 18.7167 1.57766 18.6826 1.21004 18.69C0.945818 18.6959 0.880715 18.6766 0.823275 18.5758C0.807958 18.5521 0.769731 18.5195 0.796537 18.5031C0.961199 18.4023 1.06843 18.2778 1.37861 18.2303C1.50115 18.2125 1.63129 18.2125 1.70788 18.174C1.78447 18.1354 1.85343 18.0909 1.93385 18.0539C2.03341 18.0094 2.10227 17.9679 2.05632 17.9397C1.97973 17.8893 1.85723 17.8848 1.71555 17.9026C1.59301 17.9175 1.46281 17.9189 1.33644 17.9278C1.11051 17.9441 0.926743 17.9056 0.899937 17.8404C0.827179 17.6684 0.75057 17.4978 0.68547 17.3258C0.677812 17.3051 0.696906 17.2784 0.727541 17.2606C0.834763 17.1983 0.949689 17.139 1.06074 17.0782C1.19094 17.0085 1.39776 17.0219 1.57391 17.0085C1.82282 16.9893 1.82273 16.9907 2.15588 16.8484C2.28608 16.792 2.51203 16.8143 2.64605 16.7639C2.68818 16.7476 2.75328 16.7209 2.74179 16.706C2.72647 16.6868 2.64992 16.6719 2.59248 16.663C2.53887 16.6541 2.47379 16.6497 2.41635 16.6541C1.71941 16.6971 1.02631 16.7431 0.329366 16.7846C0.210656 16.792 0.080454 16.7594 0.038331 16.7135C-0.00379196 16.6705 0.00765872 16.6185 0 16.5696C0.111051 16.5088 0.237372 16.4525 0.333106 16.3872C0.405864 16.3368 0.490124 16.3146 0.63564 16.3116C0.827108 16.3072 1.01477 16.2894 1.22921 16.276C1.62746 16.0595 2.01803 15.8327 2.44692 15.6162C2.61924 15.5287 2.57719 15.4398 2.61165 15.3463C2.64611 15.2603 2.90267 15.2737 3.07499 15.2485C3.21284 15.2277 3.25874 15.1803 3.20513 15.1477C3.17449 15.1284 3.1056 15.1061 3.05199 15.1061C2.92562 15.1061 2.79925 15.1195 2.67289 15.1269C2.54652 15.1343 2.40101 15.1299 2.29762 15.1551C2.19805 15.1788 2.13292 15.2292 2.06782 15.2722C1.99506 15.3196 1.89939 15.336 1.75388 15.3389C1.56624 15.3419 1.37861 15.3552 1.19097 15.3656C0.984187 15.3078 0.769698 15.2515 0.570571 15.1907C0.532277 15.1788 0.524577 15.1447 0.528407 15.1225C0.536066 15.0646 0.47864 15.029 0.352271 15.0009C0.245049 14.9771 0.156966 14.943 0.057403 14.9134C0.13399 14.8733 0.218266 14.8348 0.279536 14.7918C0.413563 14.7013 0.582074 14.6361 0.873105 14.6391C0.987986 14.5812 1.07986 14.5101 1.22921 14.47C1.3709 14.4315 1.61216 14.47 1.71938 14.3825C1.77299 14.3395 1.85345 14.2906 1.95684 14.2728C2.12151 14.2446 2.33595 14.2595 2.43168 14.1765C2.48912 14.129 2.57333 14.086 2.68439 14.0741C2.81075 14.0608 2.94092 14.0578 3.03282 14.0297C3.08261 14.0148 3.13622 13.9911 3.13622 13.9703C3.13622 13.957 3.0597 13.9362 3.00609 13.9273C2.9563 13.917 2.89113 13.9096 2.83369 13.9125C2.64222 13.9214 2.45459 13.9377 2.26312 13.9466C2.20951 13.9496 2.14826 13.9392 2.09082 13.9303C1.92232 13.9066 1.93379 13.8769 2.06782 13.8236C2.20184 13.7717 2.29763 13.7049 2.40868 13.6441C2.53122 13.6337 2.68437 13.6382 2.76862 13.61C2.91031 13.5641 3.00984 13.4973 3.12472 13.4395C3.25109 13.4306 3.38128 13.4277 3.49999 13.4113C3.54978 13.4054 3.57277 13.3728 3.61489 13.3535C3.69148 13.3164 3.75663 13.2631 3.86003 13.2453C4.02852 13.2186 4.2353 13.229 4.33486 13.1474C4.3923 13.1 4.48034 13.0496 4.58757 13.0466C4.88626 13.0407 5.01263 12.9591 5.1658 12.882C5.28068 12.8242 5.52577 12.8538 5.65214 12.796C5.73639 12.7589 5.79769 12.713 5.88194 12.6774C5.9164 12.6625 5.98913 12.6551 6.04658 12.6507C6.36058 12.6284 6.67841 12.6121 6.99242 12.5884C7.0422 12.584 7.08819 12.5617 7.12648 12.5439C7.2069 12.5054 7.25662 12.452 7.35619 12.4268C7.45575 12.4016 7.59742 12.4016 7.71996 12.3942C8.11438 12.3719 8.14505 12.3778 8.32503 12.2518C8.47054 12.1495 8.82672 12.2222 8.94543 12.1095C9.01436 12.0442 9.14067 11.9909 9.3666 11.9834C9.68444 11.9731 9.99844 11.9449 10.3163 11.9256C10.5996 11.9078 10.5958 11.9078 10.9022 11.7699C11.04 11.7076 11.243 11.7165 11.423 11.7047C11.6145 11.6928 11.7906 11.675 11.8825 11.6009C11.9744 11.5282 12.1429 11.5045 12.3382 11.4941C12.5182 11.4837 12.7212 11.4912 12.8629 11.4319C13.2075 11.2895 13.2037 11.288 13.4449 11.2732C13.824 11.2495 14.2031 11.2257 14.5822 11.2005C14.835 11.1842 15.0992 11.1813 15.3366 11.1486C15.5089 11.1249 15.5855 11.0419 15.6965 10.9841C16.0106 10.9618 16.3245 10.9396 16.6386 10.9188C17.0789 10.8892 17.5231 10.8625 17.9673 10.8343C18.1588 10.778 18.1857 10.6534 18.5073 10.6475C18.6988 10.6445 18.8864 10.6252 19.0779 10.6134C19.3957 10.5926 19.7097 10.5659 20.0276 10.5555C20.2688 10.5481 20.3109 10.4681 20.4372 10.4176C20.4794 10.3998 20.5177 10.3746 20.5675 10.3702C21.0653 10.3287 21.5784 10.3198 22.0647 10.259C22.1145 10.2531 22.1605 10.2219 22.172 10.1997C22.1796 10.1878 22.1145 10.1656 22.0724 10.1552C22.0226 10.1433 21.9575 10.1315 21.9039 10.1344C20.3224 10.2338 18.7409 10.3346 17.1594 10.434C16.9373 10.4488 16.9373 10.4473 16.3973 10.6104C16.3514 10.6237 16.2977 10.6386 16.2403 10.643C15.9875 10.6608 15.731 10.6712 15.4821 10.6934C15.2791 10.7112 15.1107 10.6934 14.9652 10.6401C14.8618 10.6015 14.7545 10.5896 14.6243 10.5926C14.4788 10.5971 14.3831 10.6134 14.2989 10.6534C14.1878 10.7083 14.1304 10.7794 13.8968 10.7943C12.8207 10.858 11.7446 10.9292 10.6724 10.9974C10.523 10.9766 10.4503 10.9455 10.4886 10.9084C10.5116 10.8862 10.5575 10.8565 10.6035 10.8536C11.0439 10.8224 11.488 10.7958 11.9284 10.7661C11.9897 10.7617 12.0739 10.7646 12.1084 10.7498C12.2769 10.6831 12.3382 10.5748 12.6561 10.5674C12.8399 10.563 13.0275 10.5407 13.2036 10.52C13.2534 10.514 13.2994 10.4829 13.3109 10.4606C13.3147 10.4488 13.2534 10.4265 13.2075 10.4162C13.039 10.3732 12.8437 10.4251 12.6752 10.3954C12.6178 10.385 12.5373 10.3702 12.5258 10.3524C12.5182 10.3361 12.5833 10.3094 12.6292 10.2931C12.6713 10.2783 12.7288 10.2649 12.7862 10.2605C13.2917 10.2264 13.7972 10.1908 14.3027 10.1641C14.5095 10.1537 14.655 10.1166 14.7469 10.0484C14.8158 9.99802 14.9 9.97134 15.0302 9.96392C15.9148 9.90906 16.7994 9.84827 17.6878 9.79785C17.9099 9.78599 18.0248 9.73707 18.1167 9.67331C18.1895 9.62289 18.2737 9.6051 18.4154 9.5962C19.6829 9.5191 20.9428 9.4331 22.2103 9.35896C22.4439 9.34562 22.5128 9.28186 22.6316 9.22699C22.6737 9.20772 22.7004 9.184 22.754 9.17213C22.8076 9.16027 22.8766 9.16174 22.9417 9.15878C23.9526 9.09502 24.9636 9.02682 25.9784 8.96751C26.2158 8.95417 26.2617 8.88002 26.3843 8.82812C26.4264 8.81181 26.4647 8.78513 26.5145 8.78068C27.2727 8.73027 28.0309 8.68282 28.7891 8.63389C29.2946 8.60127 29.8 8.56864 30.3055 8.53751C30.5544 8.52268 30.5544 8.52119 30.8914 8.38033C30.9297 8.36401 30.9834 8.34474 31.0332 8.34029C32.4883 8.24539 33.9396 8.15496 35.3948 8.06155C35.5173 8.05413 35.6054 8.02001 35.6666 7.9696C35.7279 7.91918 35.816 7.88508 35.9347 7.87767C37.0721 7.80353 38.2094 7.73088 39.3505 7.66119C39.5573 7.64933 39.7028 7.61374 39.7947 7.54701C39.8636 7.4966 39.9479 7.46992 40.0781 7.4625C41.2154 7.39133 42.3528 7.3157 43.4939 7.24749C43.7122 7.23415 43.8194 7.18374 43.9266 7.12443C43.9649 7.10367 43.9955 7.06957 44.0415 7.0666C44.6082 7.02508 45.1711 6.98208 45.7417 6.95391C45.9791 6.94205 46.0596 6.87977 46.1553 6.82046C46.2319 6.77301 46.32 6.7567 46.4655 6.75077C46.7833 6.73743 47.0973 6.71223 47.4075 6.68702C47.4535 6.68257 47.5109 6.64995 47.5147 6.62919C47.5224 6.59064 47.4343 6.56395 47.2888 6.5506C45.7723 6.64698 44.2521 6.74335 42.7357 6.83973C42.4868 6.85604 42.4868 6.85605 42.1498 6.99691C42.1115 7.01323 42.0578 7.0325 42.0042 7.03695C40.5491 7.13037 39.0978 7.2223 37.6426 7.31571C37.5201 7.32313 37.432 7.35723 37.3708 7.40764C37.3095 7.45806 37.2213 7.49216 37.1026 7.49957C35.7126 7.58854 34.3226 7.67899 32.9287 7.76351C32.7219 7.77537 32.5764 7.80946 32.4845 7.87767C32.4156 7.92808 32.3313 7.95478 32.2011 7.96219C30.8723 8.04523 29.5473 8.1327 28.2147 8.21277C28.0807 8.22019 27.9812 8.17718 27.9888 8.13715C27.9927 8.11639 28.05 8.0823 28.096 8.07934C28.7891 8.03041 29.4784 7.97999 30.1754 7.94292C30.409 7.93106 30.4778 7.86581 30.5966 7.81095C30.6348 7.79167 30.6655 7.76647 30.7153 7.75609C30.7689 7.74423 30.8378 7.74571 30.9029 7.74275C32.5457 7.63747 34.1886 7.53072 35.8352 7.43137C36.0726 7.41654 36.1185 7.34388 36.241 7.29198C36.2831 7.27419 36.3215 7.24751 36.3713 7.24454C36.8767 7.20896 37.3822 7.17781 37.8877 7.14668C38.7723 7.09033 39.6568 7.03398 40.5452 6.97764C40.8018 6.96133 40.8018 6.96132 41.1311 6.82194C41.1694 6.80563 41.2231 6.78489 41.2729 6.78192C43.6126 6.63216 45.9524 6.4824 48.2921 6.33412C48.4146 6.32671 48.5027 6.29261 48.564 6.24219C48.6252 6.19326 48.7133 6.15768 48.832 6.14878C51.9951 5.94712 55.1543 5.74546 58.3173 5.54677C58.5241 5.53342 58.6696 5.50228 58.7615 5.43259C58.8266 5.38218 58.9147 5.3555 59.0449 5.3466C62.5219 5.12567 65.999 4.90474 69.4799 4.68233C71.8196 4.53405 74.1594 4.38281 76.4991 4.2375C76.7136 4.22415 76.8284 4.17818 76.9356 4.11738C76.9701 4.09663 77.0046 4.06252 77.0505 4.05955C77.5522 4.02249 78.0538 3.98839 78.5555 3.95428C78.7125 3.99432 78.8695 4.03288 79.0265 4.07291C79.1452 4.01657 79.2601 3.95874 79.3788 3.90239C80.137 3.85939 80.8837 3.79267 81.6496 3.77191C81.6994 3.77042 81.753 3.7986 81.8066 3.81343C82.1627 3.90684 82.3657 3.89943 82.5916 3.77488C82.672 3.73039 82.7409 3.69036 82.8635 3.68295C83.2426 3.65626 83.6256 3.63846 84.0009 3.60732C84.2038 3.59101 84.3723 3.60584 84.5178 3.65922C84.6212 3.69777 84.7285 3.71409 84.8548 3.70519C85.5518 3.66071 86.2449 3.6177 86.9418 3.57025C86.9916 3.56729 87.0375 3.54207 87.0758 3.52428C87.1562 3.48573 87.2252 3.44422 87.3018 3.40419C87.4051 3.42939 87.52 3.44867 87.6043 3.48129C87.7115 3.51984 87.811 3.51984 87.9566 3.50946C90.7367 3.33004 93.5206 3.15508 96.3007 2.97418C96.5382 2.95935 96.6416 3.02164 96.8024 3.05426C96.856 3.06612 96.9096 3.08094 96.967 3.0839C97.0283 3.08687 97.0934 3.07798 97.1547 3.07353C99.2417 2.94008 101.329 2.80811 103.416 2.67466C103.691 2.65687 103.691 2.65687 104.101 2.7488C104.151 2.76066 104.216 2.77401 104.27 2.76956C105.219 2.71173 106.169 2.64946 107.115 2.59015C107.237 2.58274 107.341 2.60646 107.452 2.64056C107.67 2.70728 107.685 2.70729 107.846 2.60943C107.923 2.56346 108.003 2.53528 108.13 2.52193C108.267 2.5071 108.379 2.51157 108.486 2.53826C108.639 2.57533 108.75 2.63759 108.984 2.62128C109.995 2.55159 111.009 2.49377 112.016 2.4226C112.246 2.40629 112.369 2.4567 112.522 2.49377C112.576 2.50711 112.625 2.52787 112.683 2.53232C112.74 2.53677 112.809 2.52638 112.87 2.52193C114.134 2.44186 115.402 2.36329 116.661 2.27729C116.899 2.26098 117.002 2.32473 117.163 2.35735C117.217 2.36921 117.278 2.38998 117.328 2.38701C118.086 2.34105 118.848 2.2921 119.606 2.24317C119.878 2.22538 119.878 2.22686 120.292 2.31731C120.341 2.32917 120.407 2.34104 120.46 2.33807C121.345 2.28321 122.233 2.22686 123.118 2.17052C123.39 2.15272 123.39 2.15273 124.175 2.22983C124.232 2.23576 124.293 2.24467 124.351 2.24171C125.362 2.17795 126.377 2.11566 127.387 2.04745C127.59 2.03411 127.759 2.04597 127.904 2.09935C128.008 2.1379 128.115 2.15422 128.241 2.14532C129.379 2.07267 130.52 2.00298 131.653 1.92588C131.872 1.91105 132.013 1.94366 132.167 1.98666C132.216 2.00148 132.266 2.02225 132.324 2.02818C132.381 2.03411 132.446 2.02817 132.507 2.02373C133.645 1.95107 134.786 1.88287 135.919 1.80428C136.149 1.78797 136.272 1.83838 136.425 1.87545C136.478 1.88879 136.536 1.91549 136.582 1.914C137.026 1.8888 137.47 1.86656 137.911 1.82949C138.148 1.80873 138.251 1.87693 138.412 1.90955C138.466 1.91993 138.527 1.94218 138.577 1.93922C139.527 1.88139 140.476 1.8206 141.422 1.75832C141.556 1.74943 141.656 1.76276 141.763 1.80131C141.905 1.85321 142.069 1.87397 142.276 1.85766C142.716 1.82355 143.161 1.79984 143.605 1.77166C143.865 1.75535 143.865 1.75536 144.662 1.83246C144.719 1.83839 144.78 1.84728 144.838 1.84432C145.596 1.79687 146.358 1.75091 147.113 1.69901C147.315 1.68418 147.484 1.69752 147.63 1.7509C147.733 1.78945 147.836 1.80577 147.966 1.79688C148.663 1.75239 149.357 1.70791 150.054 1.66342C150.306 1.64711 150.559 1.61893 150.812 1.61893C150.996 1.62042 151.13 1.69159 151.294 1.72717C151.34 1.73755 151.417 1.7257 151.478 1.72274C152.363 1.66639 153.251 1.61449 154.132 1.55073C154.362 1.53442 154.484 1.58483 154.637 1.6219C154.691 1.63525 154.748 1.66194 154.794 1.66046C155.112 1.64415 155.426 1.6219 155.744 1.60263C156.123 1.5789 156.506 1.56111 156.881 1.52849C157.188 1.5018 157.302 1.63079 157.548 1.63524C157.735 1.63969 157.927 1.61449 158.114 1.60263C158.493 1.5789 158.872 1.55222 159.252 1.53146C159.386 1.52404 159.489 1.50031 159.531 1.44693C159.539 1.43655 159.474 1.41432 159.432 1.40097C158.922 1.24973 158.922 1.24972 158.409 1.28234C158.091 1.3031 157.777 1.32387 157.459 1.34166C157.406 1.34462 157.345 1.33276 157.291 1.32387C157.138 1.29866 157.153 1.26901 157.283 1.21563C157.414 1.16225 157.513 1.09701 157.624 1.03622C157.781 1.07477 157.934 1.11331 158.091 1.15186C158.218 1.14445 158.344 1.13556 158.47 1.12815C159.102 1.0896 159.734 1.04956 160.366 1.01397C160.412 1.01101 160.469 1.04067 160.523 1.0555C160.676 1.0985 160.814 1.13555 161.036 1.11924C161.603 1.07624 162.173 1.04511 162.74 1.00804C162.989 0.991727 162.989 0.991728 163.426 1.08366C163.475 1.09404 163.54 1.1059 163.594 1.10294C164.165 1.06883 164.731 1.03177 165.302 0.996182C165.424 0.988768 165.543 1.00804 165.631 1.05104C165.666 1.06884 165.658 1.09849 165.804 1.34166C166.255 1.53887 166.566 1.51812 166.88 1.50032C167.014 1.49291 167.132 1.48549 167.22 1.45583C167.266 1.43952 167.324 1.4158 167.324 1.39652C167.324 1.38169 167.24 1.35796 167.186 1.355C166.807 1.32534 166.447 1.38763 166.076 1.40097C165.903 1.4069 165.754 1.35501 165.723 1.27049C165.716 1.24676 165.704 1.22156 165.693 1.19783C165.681 1.17411 165.673 1.14891 165.662 1.12518C165.513 1.11777 165.425 1.14445 165.359 1.19487C165.306 1.23638 165.229 1.28383 165.126 1.30607C165.022 1.3298 164.881 1.32536 164.754 1.33277C164.632 1.34019 164.498 1.35946 164.383 1.34908C164.268 1.33722 164.176 1.29421 164.069 1.26752C164.019 1.25418 163.958 1.23491 163.908 1.23787C163.468 1.26308 163.031 1.28828 162.595 1.3209C162.365 1.33869 162.25 1.27642 162.105 1.23787C161.99 1.20822 161.875 1.21562 161.856 1.28383C161.806 1.44693 161.982 1.51514 162.373 1.484C162.694 1.45731 162.985 1.45287 163.238 1.5537C163.272 1.56705 163.353 1.57298 163.403 1.57001C163.717 1.55222 164.027 1.52997 164.341 1.51218C164.398 1.50921 164.46 1.51514 164.513 1.52107C165.294 1.60114 165.294 1.60263 165.559 1.58483C165.685 1.57594 165.807 1.56852 165.796 1.34314C166.037 1.10145 166.42 1.08515 166.792 1.04956C167.033 1.02732 167.136 1.09256 167.293 1.12667C167.347 1.13853 167.404 1.16225 167.454 1.15928C168.277 1.11035 169.097 1.05845 169.916 1.00358C170.054 0.994688 170.154 1.00359 170.261 1.04214C170.399 1.09107 170.552 1.12221 170.77 1.10442C171.207 1.06883 171.651 1.0466 172.095 1.01694C172.321 1.00211 172.321 1.0021 172.777 1.09403C172.827 1.10441 172.892 1.11627 172.945 1.11331C173.39 1.0881 173.83 1.05697 174.27 1.03028C174.393 1.02287 174.504 1.04362 174.6 1.08366C174.695 1.12369 174.81 1.14445 174.929 1.13704C175.373 1.11035 175.814 1.0807 176.254 1.05401C176.308 1.05105 176.373 1.06142 176.422 1.0718C176.89 1.16374 176.89 1.16372 177.104 1.14889C177.418 1.12665 177.74 1.11628 178.05 1.08663C178.352 1.05697 178.509 1.14297 178.716 1.19041C179.283 1.15631 179.854 1.12815 180.416 1.08663C180.646 1.06883 180.769 1.11776 180.922 1.15631C180.976 1.16966 181.029 1.19783 181.079 1.19635C181.27 1.19042 181.458 1.17411 181.646 1.16225C181.833 1.15039 182.025 1.13853 182.212 1.12667C182.427 1.16967 182.569 1.27049 182.875 1.23639C183.059 1.21563 183.254 1.21118 183.442 1.19932C183.629 1.18746 183.821 1.1756 184.008 1.16373C184.135 1.15632 184.265 1.15187 184.388 1.13852C184.613 1.11628 184.725 1.18894 184.885 1.22156C184.939 1.23194 185 1.24973 185.05 1.24676C185.429 1.226 185.812 1.20821 186.183 1.17411C186.471 1.14742 186.666 1.1919 186.869 1.25418C186.911 1.26753 186.984 1.27494 187.037 1.27197C187.482 1.24677 187.922 1.21562 188.362 1.18893C188.481 1.18152 188.596 1.20524 188.692 1.24379C188.791 1.28383 188.902 1.30312 189.025 1.2957C189.465 1.26901 189.91 1.23935 190.35 1.21266C190.403 1.20969 190.469 1.22156 190.518 1.23342C190.947 1.32535 190.947 1.32684 191.2 1.30904C191.261 1.30459 191.326 1.30162 191.388 1.29717C191.702 1.27641 192.027 1.26901 192.333 1.23342C192.686 1.19339 192.942 1.2438 193.191 1.32832C193.505 1.31053 193.827 1.30014 194.133 1.27049C194.363 1.24825 194.486 1.30459 194.639 1.34166C194.692 1.355 194.75 1.38169 194.796 1.37873C195.24 1.35352 195.684 1.33129 196.121 1.29422C196.358 1.27346 196.461 1.34017 196.622 1.37427C196.676 1.38614 196.733 1.40691 196.783 1.40394C197.036 1.39208 197.289 1.37428 197.541 1.35797C197.836 1.33869 197.836 1.34017 198.227 1.43062C198.411 1.47362 198.594 1.43952 198.774 1.42914C198.966 1.41727 199.146 1.40838 199.299 1.46917C199.395 1.50773 199.51 1.53145 199.628 1.52552C199.881 1.51217 200.138 1.49884 200.387 1.47659C200.586 1.4588 200.758 1.47066 200.904 1.52552C201.007 1.56407 201.114 1.58336 201.241 1.57446C201.807 1.53888 202.378 1.50179 202.945 1.46769C202.994 1.46472 203.063 1.47807 203.109 1.49142C203.216 1.51811 203.32 1.54776 203.423 1.57741C203.672 1.56407 203.929 1.55815 204.174 1.53739C204.434 1.51663 204.672 1.50922 204.875 1.59077C204.917 1.60856 204.978 1.63376 205.028 1.63227C205.219 1.62634 205.407 1.61152 205.594 1.59966C205.782 1.5878 205.974 1.57593 206.161 1.56407C206.38 1.60114 206.517 1.7079 206.824 1.6738C207.008 1.65304 207.203 1.64859 207.391 1.63673C207.578 1.62486 207.77 1.61152 207.957 1.60114C208.019 1.59818 208.087 1.59076 208.141 1.59669C208.199 1.60262 208.248 1.62338 208.298 1.63821C208.451 1.68121 208.593 1.72422 208.811 1.69901C208.995 1.67825 209.19 1.6738 209.378 1.66046C209.635 1.64415 209.635 1.64415 210.06 1.73756C210.232 1.77611 210.427 1.7257 210.592 1.75832C210.703 1.78056 210.799 1.81763 210.906 1.84283C210.952 1.85321 211.025 1.85765 211.078 1.85469C211.331 1.84134 211.587 1.82801 211.836 1.80576C212.039 1.78797 212.208 1.80576 212.35 1.85914C212.453 1.89769 212.556 1.91401 212.686 1.90512C213.318 1.8636 213.95 1.828 214.578 1.78203C214.793 1.76572 214.965 1.79094 215.084 1.84432C215.287 1.93625 215.574 1.82801 215.784 1.90215C215.915 1.94811 216.045 2.00149 216.282 1.97925C216.719 1.9407 217.163 1.91993 217.603 1.89324C217.76 1.93328 217.917 1.97332 218.078 2.01335C218.331 1.99704 218.584 1.98072 218.836 1.9659C219.024 1.95403 219.216 1.94069 219.403 1.93031C219.464 1.92735 219.53 1.92141 219.587 1.92883C219.644 1.93624 219.69 1.95552 219.744 1.97035C220.008 2.043 220.008 2.04449 220.445 2.01484C220.632 2.00149 220.812 1.9926 220.969 2.05191C221.115 2.10677 221.287 2.11714 221.486 2.10083C221.862 2.07118 222.241 2.04894 222.624 2.02818C222.742 2.02076 222.853 2.04597 222.953 2.08452C223.102 2.14532 223.286 2.13939 223.474 2.12308C223.723 2.10232 223.968 2.08156 224.178 2.1646C224.221 2.18239 224.286 2.20759 224.332 2.2061C224.646 2.19424 224.963 2.18535 225.27 2.15718C225.576 2.12901 225.725 2.22093 225.936 2.26542C226.25 2.24614 226.568 2.22686 226.882 2.20759C226.943 2.20314 227.016 2.1898 227.07 2.19722C227.296 2.22835 227.426 2.33956 227.736 2.30545C227.916 2.28618 228.111 2.28025 228.299 2.27581C228.349 2.27432 228.414 2.29952 228.448 2.31879C228.467 2.32917 228.448 2.35734 228.425 2.37217C228.356 2.41369 228.272 2.45225 228.211 2.49525C228.203 2.50118 228.276 2.52786 228.318 2.53972C228.421 2.56641 228.54 2.56198 228.678 2.55011C228.797 2.53973 228.919 2.56049 229.003 2.60497C229.038 2.62277 229.026 2.65242 228.954 2.75028C228.954 2.82294 229.034 2.79031 229.061 2.74286C229.103 2.67465 229.023 2.65242 228.869 2.68948C228.762 2.71617 228.709 2.75473 228.735 2.78587C228.751 2.80218 228.823 2.82294 228.954 2.75028C229.291 2.66132 229.543 2.64501 229.796 2.6287C229.861 2.62426 229.938 2.60942 229.984 2.61831C230.148 2.6539 230.302 2.69691 230.462 2.73694C230.646 2.72805 230.819 2.70579 230.998 2.76362C231.251 2.84517 231.263 2.83776 231.508 2.82145C231.634 2.81256 231.761 2.80515 231.887 2.79774C232.013 2.79033 232.113 2.81256 232.224 2.84667C232.45 2.91636 232.469 2.91635 232.618 2.82145C232.706 2.76362 232.768 2.74435 232.879 2.77104C233.246 2.86149 233.25 2.86742 233.564 2.84073C233.825 2.81849 234.07 2.81256 234.261 2.89707C234.391 2.95638 234.433 2.94304 234.537 2.88077C234.813 2.71618 234.939 2.71914 235.456 2.83776C235.697 2.89411 235.946 2.83332 236.191 2.8259C236.398 2.81997 236.543 2.85555 236.559 2.94897C236.57 3.0068 236.605 3.04832 236.743 3.0676C236.796 3.07501 236.861 3.08539 236.915 3.08242C237.233 3.06463 237.547 3.04386 237.865 3.02311C238.025 3.01273 238.113 2.94305 238.083 2.85112C238.048 2.75326 238.11 2.71766 238.339 2.68948C238.477 2.67317 238.588 2.67615 238.699 2.70284C238.822 2.7325 238.787 2.75919 238.68 2.81256C238.424 2.94305 238.454 3.0231 238.784 3.11355C238.898 3.14469 238.99 3.17287 239.017 3.21884C239.032 3.24256 239.017 3.2737 239.052 3.29149C239.239 3.39084 239.5 3.4546 239.791 3.50205C240.07 3.46202 240.262 3.52873 240.476 3.58211C240.645 3.62363 240.844 3.58805 241.024 3.57322C241.227 3.55691 241.395 3.56877 241.541 3.62363C241.644 3.66218 241.751 3.67997 241.878 3.67256C242.13 3.65625 242.387 3.64587 242.636 3.62215C242.85 3.60139 243.011 3.63105 243.145 3.68146C243.314 3.74522 243.501 3.70221 243.678 3.71111C243.915 3.72149 244.034 3.85345 244.344 3.81786C244.528 3.79711 244.719 3.78969 244.911 3.78376C244.96 3.78228 245.022 3.80749 245.064 3.82528C245.267 3.90684 245.504 3.90239 245.765 3.87866C245.945 3.86235 246.121 3.84753 246.297 3.90388C246.588 3.99877 246.91 4.08181 247.216 4.1693C247.258 4.2375 247.227 4.31756 247.446 4.35759C247.56 4.37835 247.668 4.4095 247.756 4.4436C247.863 4.48364 247.963 4.49402 248.1 4.48364C248.349 4.46288 248.61 4.45842 248.855 4.43173C249.081 4.40801 249.222 4.45695 249.36 4.50292C249.471 4.53999 249.575 4.55777 249.709 4.53108C249.847 4.50587 249.946 4.52218 250.057 4.56221C250.214 4.61708 250.226 4.61115 250.747 4.62746C250.8 4.62895 250.865 4.65118 250.896 4.67045C250.911 4.68083 250.877 4.7105 250.85 4.72533C250.815 4.74312 250.762 4.76387 250.712 4.76832C250.145 4.80687 249.575 4.84097 249.008 4.87953C248.951 4.88397 248.889 4.89436 248.847 4.90919C248.801 4.9255 248.744 4.94773 248.744 4.96849C248.744 4.98332 248.82 5.00111 248.874 5.01149C249.042 5.0456 249.242 4.9937 249.406 5.03226C249.517 5.05746 249.609 5.09304 249.72 5.11676C249.766 5.12714 249.839 5.12567 249.896 5.1227C250.088 5.11232 250.276 5.0975 250.467 5.0886C250.521 5.08712 250.582 5.10195 250.632 5.11381C250.999 5.20278 250.999 5.20278 251.317 5.1835C251.443 5.17609 251.577 5.15384 251.696 5.16274C251.811 5.17164 251.911 5.21167 252.014 5.23688C252.229 5.29026 252.431 5.34215 252.447 5.45781C252.454 5.50229 252.581 5.54084 252.707 5.5438C252.83 5.54677 252.96 5.53047 253.086 5.52157C253.385 5.50378 253.385 5.50378 253.772 5.59423C253.879 5.61943 253.994 5.6224 254.132 5.60757C254.185 5.60164 254.25 5.60757 254.308 5.61499C254.495 5.63723 254.495 5.6654 254.373 5.71877C254.201 5.79736 254.216 5.80478 254.698 5.8715C254.882 5.89671 255.024 5.94416 255.177 5.98568C255.426 6.0524 255.422 6.05239 255.258 6.13987C255.219 6.15915 255.185 6.17991 255.146 6.20067C255.035 6.2585 254.947 6.32077 254.718 6.3267C254.465 6.33263 254.212 6.35637 253.959 6.37268C253.714 6.38899 253.649 6.42456 253.672 6.52539C253.699 6.64698 253.749 6.66032 254.189 6.65884C254.315 6.65884 254.426 6.6707 254.522 6.71073C254.476 6.75818 254.392 6.79525 254.27 6.80415C253.956 6.82639 253.638 6.84567 253.324 6.86495C253.071 6.88126 252.818 6.89756 252.565 6.91387C252.408 6.92425 252.309 7.00136 252.351 7.08736C252.374 7.13629 252.393 7.18522 252.412 7.23415C252.454 7.33202 252.535 7.35723 252.791 7.35278C252.856 7.3513 252.918 7.33943 252.979 7.34239C253.228 7.35277 253.347 7.47584 253.645 7.45063C253.894 7.42987 254.155 7.42543 254.4 7.39874C254.626 7.37501 254.752 7.42841 254.909 7.46844C254.963 7.48179 255.02 7.50994 255.066 7.50846C255.384 7.49215 255.702 7.47585 256.012 7.44768C256.157 7.43582 256.245 7.44471 256.36 7.4803C256.636 7.5663 256.644 7.56185 257.053 7.53516C257.352 7.5144 257.356 7.51736 257.739 7.60781C257.846 7.63302 257.961 7.63301 258.099 7.62115C258.279 7.60632 258.466 7.5826 258.654 7.60484C258.712 7.61077 258.784 7.62857 258.804 7.64785C258.815 7.66119 258.761 7.69382 258.715 7.7042C258.378 7.7813 257.984 7.76796 257.616 7.79909C257.501 7.80799 257.387 7.77981 257.291 7.73978C257.191 7.69975 257.084 7.68344 256.954 7.69086C256.701 7.70717 256.445 7.71754 256.196 7.74126C255.981 7.76202 255.832 7.72792 255.683 7.68195C255.633 7.66712 255.575 7.63895 255.526 7.64043C254.959 7.67008 254.388 7.69975 253.825 7.74126C253.599 7.75906 253.469 7.71161 253.316 7.67158C253.262 7.65823 253.209 7.63006 253.159 7.63154C252.968 7.63747 252.78 7.65378 252.588 7.66564C251.892 7.71012 251.198 7.75461 250.501 7.79613C250.455 7.79909 250.398 7.76795 250.344 7.7546C250.241 7.72791 250.134 7.7027 250.027 7.6775C249.835 7.68936 249.647 7.70419 249.456 7.71308C249.318 7.71901 249.196 7.73978 249.176 7.79613C249.165 7.83319 249.291 7.86729 249.425 7.86433C249.556 7.86136 249.686 7.84357 249.793 7.86284C250.325 7.95774 250.325 7.95923 250.658 7.93995C250.949 7.92216 250.919 7.90732 251.175 7.98887C251.286 8.02446 251.386 8.04523 251.512 8.03633C251.826 8.01557 252.144 7.99481 252.462 7.97702C252.512 7.97405 252.577 7.98889 252.627 8.00075C253.002 8.08971 253.002 8.09267 253.312 8.07043C253.718 8.04374 253.733 8.03633 254.005 8.12678C254.193 8.18905 254.365 8.14605 254.545 8.14309C254.752 8.20091 254.978 8.25282 255.166 8.31806C255.388 8.39516 255.621 8.38181 255.874 8.35956C256.062 8.34325 256.245 8.33732 256.399 8.39812C256.544 8.45446 256.72 8.4604 256.919 8.44558C257.099 8.43223 257.283 8.40405 257.471 8.43667C257.521 8.44557 257.597 8.46782 257.593 8.48116C257.59 8.50192 257.54 8.53158 257.49 8.54047C257.138 8.60127 256.751 8.59978 256.38 8.62795C256.33 8.6324 256.265 8.61609 256.215 8.60422C256.108 8.57753 256.004 8.5464 255.901 8.51823C255.713 8.52713 255.522 8.53009 255.338 8.54788C255.196 8.56122 255.089 8.55975 254.986 8.52417C254.89 8.49155 254.787 8.4515 254.672 8.44112C254.557 8.43074 254.423 8.45299 254.296 8.46188C254.17 8.47078 254.024 8.46632 253.925 8.49005C253.825 8.51377 253.764 8.56567 253.699 8.60719C253.626 8.65316 253.527 8.66799 253.381 8.67244C253.247 8.67689 253.14 8.67095 253.04 8.62944C252.998 8.61164 252.941 8.59829 252.883 8.58643C252.83 8.57605 252.768 8.55974 252.719 8.5627C252.148 8.59681 251.581 8.63389 251.011 8.66947C250.727 8.68727 250.731 8.68725 250.141 8.59977C250.088 8.59236 250.023 8.58198 249.969 8.58495C249.651 8.60274 249.337 8.6235 249.019 8.64426C248.698 8.66502 248.702 8.66205 248.154 8.56864C248.054 8.55085 247.909 8.57457 247.79 8.57161C247.541 8.56419 247.419 8.43964 247.128 8.46337C246.879 8.48413 246.618 8.48857 246.37 8.51526C246.144 8.53899 246.013 8.48709 245.86 8.44706C245.807 8.43372 245.749 8.40406 245.703 8.40702C245.133 8.43964 244.566 8.47671 243.808 8.48116C243.62 8.48116 243.704 8.5123 243.827 8.52268C244.003 8.53899 244.06 8.50785 243.965 8.44854C243.896 8.40703 243.796 8.38625 243.716 8.39663C243.674 8.40256 243.62 8.43075 243.808 8.48116C244.007 8.53751 243.995 8.56864 244.03 8.58643C244.114 8.62943 244.233 8.64722 244.355 8.64129C244.547 8.63091 244.734 8.61609 244.926 8.60719C244.98 8.60423 245.045 8.61461 245.094 8.62647C245.516 8.7184 245.519 8.72434 245.967 8.68875C246.109 8.67837 246.213 8.67837 246.324 8.70654C246.477 8.7451 246.588 8.81033 246.821 8.78957C247.132 8.7614 247.449 8.7451 247.767 8.72879C247.817 8.72582 247.871 8.75251 247.928 8.76437C248.085 8.79996 248.2 8.86668 248.434 8.83851C248.614 8.81627 248.809 8.81033 249 8.80588C249.05 8.80439 249.127 8.82812 249.15 8.8474C249.196 8.8815 249.138 8.92155 249.008 8.94972C248.954 8.96158 248.882 8.95861 248.82 8.96306C248.568 8.97937 248.315 8.99715 248.062 9.0105C247.928 9.01791 247.802 9.04016 247.786 9.09503C247.775 9.1321 247.913 9.16471 248.043 9.16174C248.234 9.1573 248.426 9.14543 248.61 9.12616C248.935 9.09354 249.219 9.10243 249.483 9.19584C249.67 9.26109 249.659 9.23737 249.858 9.43013C249.908 9.47906 250.057 9.48351 250.187 9.48054C250.501 9.47313 250.647 9.49537 250.62 9.54134C250.586 9.59768 250.475 9.61547 250.333 9.62288C250.08 9.63474 249.827 9.65403 249.575 9.67034C249.513 9.67479 249.445 9.68368 249.387 9.68071C249.33 9.67774 249.276 9.65996 249.226 9.64661C249.119 9.61844 249.027 9.57543 248.912 9.56505C248.797 9.55467 248.663 9.57691 248.537 9.58581C248.411 9.59323 248.277 9.61547 248.162 9.60509C248.047 9.59471 247.951 9.55024 247.848 9.52355C247.798 9.5102 247.737 9.48943 247.687 9.49091C247.434 9.50277 247.181 9.52206 246.929 9.53689C246.618 9.55616 246.618 9.55616 246.243 9.46423C246.136 9.43754 246.025 9.43903 245.883 9.45089C245.577 9.47462 245.573 9.47016 245.014 9.38416C244.96 9.37526 244.895 9.36489 244.842 9.36933C244.271 9.40344 243.704 9.4405 243.138 9.47609C242.651 9.50723 242.651 9.50724 242.383 9.65551C242.184 9.76524 242.18 9.76523 242.376 9.81565C242.533 9.85716 242.674 9.91795 242.847 9.94019C243.007 9.96095 243.207 9.89423 243.383 9.96244C243.471 9.99654 243.586 10.0336 243.697 10.0395C243.873 10.047 244.06 10.004 244.229 10.0692C244.313 10.1018 244.44 10.1359 244.547 10.1374C244.734 10.1404 244.926 10.1166 245.114 10.1063C245.171 10.1033 245.236 10.1033 245.29 10.1107C245.347 10.1196 245.397 10.1374 245.447 10.1522C245.6 10.2027 245.765 10.2264 245.964 10.2012C246.289 10.1596 246.58 10.1804 246.833 10.2753C246.867 10.2886 246.952 10.2901 247.005 10.2842C247.143 10.2694 247.262 10.2679 247.365 10.2961C247.407 10.3079 247.469 10.3287 247.461 10.342C247.449 10.3643 247.403 10.3939 247.354 10.4013C246.994 10.4517 246.607 10.4577 246.236 10.4844C246.186 10.4873 246.125 10.4681 246.075 10.4547C245.968 10.428 245.876 10.3835 245.761 10.3732C245.646 10.3628 245.512 10.3821 245.385 10.3895C245.259 10.3969 245.125 10.4191 245.01 10.4102C244.895 10.3999 244.788 10.3628 244.696 10.3302C244.589 10.2931 244.486 10.2887 244.344 10.3035C244.16 10.3228 243.969 10.3257 243.781 10.3361C243.678 10.3079 243.574 10.2768 243.467 10.2501C243.417 10.2367 243.356 10.2204 243.302 10.2219C243.05 10.2338 242.797 10.2516 242.544 10.2679C242.291 10.2842 242.291 10.2842 241.862 10.1923C241.813 10.1819 241.747 10.17 241.694 10.173C241.376 10.1908 241.062 10.213 240.744 10.2308C240.622 10.2382 240.511 10.2175 240.411 10.1774C240.315 10.1374 240.2 10.1152 240.082 10.1226C239.576 10.1537 239.071 10.1834 238.565 10.2204C238.362 10.2353 238.19 10.2219 238.052 10.1685C237.891 10.1078 237.711 10.1226 237.524 10.1344C237.099 10.1641 237.095 10.1626 236.823 10.087C236.769 10.0722 236.716 10.044 236.666 10.0455C236.226 10.0677 235.781 10.0885 235.345 10.1241C235.115 10.1433 234.993 10.0914 234.839 10.0529C234.786 10.0395 234.728 10.0114 234.682 10.0143C234.365 10.0306 234.047 10.0455 233.736 10.0751C233.426 10.1048 233.308 9.96689 233.074 9.96838C232.756 9.96986 232.442 10.004 232.128 10.0247C231.875 10.041 231.623 10.0573 231.37 10.0736C231.117 10.09 230.864 10.1033 230.612 10.1226C230.478 10.1329 230.378 10.1196 230.267 10.0825C230.125 10.0336 229.957 9.99507 229.804 9.95058C229.57 9.88682 229.57 9.88682 229.287 9.90461C229.226 9.90906 229.16 9.91202 229.099 9.91646C228.636 9.94909 228.636 9.94613 228.046 9.85272C228.019 9.84827 227.95 9.86458 227.924 9.87644C227.843 9.915 227.77 9.9565 227.698 9.99654C227.594 9.97282 227.468 9.95947 227.399 9.92537C227.204 9.82899 226.897 9.96095 226.698 9.86606C226.625 9.83047 226.499 9.79933 226.384 9.79043C226.265 9.78154 226.131 9.8023 226.009 9.81119C225.691 9.83344 225.691 9.83196 225.419 9.96392C225.281 10.0292 225.082 10.0173 224.902 10.0321C224.715 10.0484 224.535 10.0573 224.378 9.99654C224.236 9.94168 224.064 9.92834 223.861 9.94613C223.612 9.96837 223.355 9.98171 223.102 9.99506C223.049 9.99802 222.984 9.99061 222.93 9.98172C222.344 9.89423 222.344 9.89275 222.061 9.91203C221.934 9.92093 221.804 9.92388 221.682 9.93723C221.475 9.96095 221.318 9.92981 221.169 9.88236C221.119 9.86754 221.061 9.83938 221.011 9.84086C220.759 9.84827 220.51 9.86162 220.261 9.87496C220.069 9.88534 219.878 9.89127 219.694 9.91203C219.388 9.94613 219.239 9.84974 219.028 9.80526C218.714 9.82453 218.396 9.83788 218.082 9.86457C217.937 9.87643 217.841 9.87199 217.73 9.83641C217.588 9.79192 217.458 9.74151 217.228 9.76375C216.922 9.79341 216.6 9.80379 216.286 9.82158C216.076 9.77562 215.922 9.68219 215.62 9.7163C215.436 9.73705 215.241 9.7415 215.053 9.75336C214.8 9.76967 214.548 9.78451 214.295 9.80231C214.023 9.8201 214.027 9.81565 213.609 9.72817C213.368 9.67627 213.119 9.7341 212.874 9.74299C212.683 9.75041 212.587 9.81861 212.633 9.90609C212.679 9.99358 212.575 10.0618 212.399 10.0736C211.959 10.1018 211.515 10.1315 211.074 10.1567C211.021 10.1596 210.956 10.1493 210.906 10.1389C210.435 10.0455 210.435 10.047 210.224 10.0603C209.91 10.0825 209.589 10.0944 209.278 10.1226C209.064 10.1418 208.907 10.1107 208.769 10.0603C208.662 10.0218 208.562 10.0129 208.424 10.0218C206.908 10.1211 205.392 10.213 203.879 10.3153C203.653 10.3302 203.523 10.2872 203.37 10.2471C203.316 10.2338 203.266 10.2056 203.213 10.2056C203.086 10.2056 202.96 10.219 202.834 10.2279C202.267 10.2634 201.7 10.3064 201.129 10.3331C200.888 10.345 200.823 10.4132 200.72 10.4696C200.639 10.5126 200.547 10.5303 200.406 10.5363C200.268 10.5422 200.168 10.5348 200.061 10.4962C199.923 10.4458 199.766 10.4147 199.552 10.4354C199.303 10.4592 199.05 10.4695 198.794 10.4859C198.663 10.4933 198.564 10.52 198.522 10.5733C198.514 10.5822 198.594 10.6045 198.64 10.6178C198.794 10.6623 198.939 10.7142 199.111 10.7453C199.288 10.7765 199.479 10.7409 199.663 10.732C199.728 10.729 199.789 10.7201 199.85 10.7216C199.908 10.7231 199.977 10.7305 200.019 10.7439C200.218 10.8106 200.429 10.8565 200.704 10.8165C200.942 10.8358 201.064 10.9589 201.367 10.9262C201.551 10.907 201.742 10.8981 201.934 10.8906C201.983 10.8892 202.037 10.9159 202.091 10.9292C202.244 10.9663 202.366 11.0256 202.596 11.0004C202.841 10.9737 203.102 10.9692 203.351 10.9485C203.488 10.9366 203.588 10.947 203.695 10.9855C203.833 11.0345 203.99 11.0715 204.204 11.0478C204.388 11.0271 204.584 11.0226 204.771 11.0093C205.016 10.9929 205.016 10.9944 205.453 11.0864C205.503 11.0967 205.568 11.1086 205.621 11.1056C205.939 11.0878 206.253 11.0656 206.571 11.0478C206.694 11.0404 206.812 11.0597 206.897 11.1027C206.931 11.1205 206.919 11.1501 206.931 11.1753C206.299 11.2154 205.667 11.2495 205.039 11.2984C204.802 11.3177 204.695 11.2569 204.538 11.2228C204.484 11.2109 204.427 11.1857 204.377 11.1887C203.933 11.2139 203.492 11.2406 203.052 11.2732C202.914 11.2836 202.811 11.2776 202.707 11.2346C202.443 11.1205 202.121 11.1827 201.823 11.1991C201.593 11.2109 201.52 11.2569 201.547 11.3548C201.581 11.4704 201.719 11.506 202.071 11.4852C202.198 11.4778 202.324 11.4674 202.451 11.4615C202.573 11.4556 202.684 11.4749 202.784 11.5149C202.88 11.5549 202.994 11.5757 203.113 11.5697C203.366 11.5564 203.622 11.5431 203.867 11.5208C204.07 11.503 204.239 11.5179 204.381 11.5727C204.538 11.6335 204.721 11.6202 204.905 11.6068C205.334 11.5772 205.338 11.5787 205.606 11.6528C205.66 11.6676 205.713 11.6958 205.763 11.6943C206.203 11.6721 206.648 11.6528 207.08 11.6172C207.306 11.5994 207.436 11.6469 207.586 11.6854C207.639 11.6988 207.693 11.7284 207.743 11.7254C208.061 11.7091 208.378 11.6928 208.689 11.6646C208.834 11.6513 208.922 11.6602 209.041 11.6958C209.324 11.7833 209.332 11.7803 209.734 11.7521C209.857 11.7432 209.991 11.7269 210.105 11.7388C210.22 11.7506 210.312 11.7937 210.42 11.8203C210.469 11.8322 210.531 11.8485 210.584 11.8455C210.837 11.8337 211.09 11.8159 211.342 11.7996C211.58 11.7833 211.58 11.7848 212.024 11.8767C212.204 11.9152 212.392 11.8826 212.572 11.8708C212.767 11.8574 212.943 11.8574 213.092 11.9152C213.242 11.9731 213.422 11.9701 213.613 11.9582C213.793 11.9464 213.977 11.9138 214.161 11.9538C214.582 12.0457 214.582 12.0472 214.842 12.0294C215.222 12.0042 215.597 11.9805 215.98 11.9582C216.03 11.9553 216.095 11.9731 216.144 11.9849C216.252 12.0116 216.344 12.0561 216.458 12.0665C216.573 12.0783 216.707 12.0605 216.83 12.0516C217.224 12.0235 217.251 12.0131 217.515 12.111C217.737 12.191 218.013 12.0754 218.22 12.1673C218.339 12.2192 218.499 12.2607 218.722 12.2355C218.905 12.2147 219.097 12.2088 219.288 12.197C219.591 12.1777 219.591 12.1792 219.974 12.2681C220.024 12.28 220.089 12.2948 220.138 12.2919C220.391 12.28 220.648 12.2696 220.893 12.2429C221.18 12.2118 221.364 12.2681 221.578 12.323C221.747 12.366 221.946 12.3304 222.126 12.3156C222.321 12.3008 222.497 12.3052 222.643 12.363C222.796 12.4223 222.976 12.4149 223.167 12.4031C223.347 12.3927 223.531 12.3586 223.715 12.4001C224.109 12.492 224.109 12.492 224.397 12.4742C224.649 12.4579 224.902 12.4401 225.155 12.4283C225.205 12.4253 225.266 12.4446 225.316 12.4579C225.423 12.4846 225.515 12.5291 225.63 12.5395C225.745 12.5499 225.879 12.5306 226.005 12.5232C226.131 12.5158 226.265 12.4935 226.38 12.5024C226.495 12.5113 226.602 12.5484 226.694 12.581C226.802 12.6196 226.901 12.624 227.047 12.6092C227.23 12.5899 227.422 12.5854 227.609 12.5751C227.713 12.6032 227.82 12.6314 227.92 12.6625C228.023 12.6952 228.134 12.6922 228.276 12.6818C228.747 12.6462 228.751 12.6507 229.145 12.7426C229.325 12.7841 229.513 12.75 229.693 12.7396C229.884 12.7278 230.064 12.7219 230.213 12.7812C230.359 12.8375 230.539 12.8449 230.73 12.8271C230.853 12.8153 230.983 12.8079 231.11 12.8034C231.167 12.8019 231.236 12.8079 231.278 12.8197C231.481 12.882 231.68 12.9383 231.96 12.8983C232.205 12.9102 232.327 13.0318 232.622 13.008C232.871 12.9873 233.131 12.9828 233.377 12.9561C233.602 12.9324 233.763 12.9739 233.878 13.0258C234.085 13.1178 234.376 12.9932 234.583 13.0837C234.702 13.1356 234.855 13.1771 235.084 13.1548C235.337 13.1311 235.418 13.1622 235.49 13.2556C235.532 13.309 235.525 13.352 235.448 13.3936C235.372 13.4366 235.287 13.4291 235.165 13.3802C235.023 13.3253 234.855 13.315 234.652 13.3268C234.453 13.3387 234.33 13.2616 234.165 13.2319C234.001 13.2008 233.805 13.2527 233.633 13.2127C233.227 13.1192 233.227 13.1192 232.952 13.137C232.764 13.1489 232.569 13.1548 232.385 13.1756C232.166 13.2008 232.025 13.1548 231.875 13.1133C231.822 13.0985 231.768 13.0703 231.722 13.0718C231.282 13.094 230.838 13.1148 230.401 13.1519C230.171 13.1711 230.049 13.1178 229.896 13.0807C229.842 13.0673 229.785 13.0407 229.739 13.0436C229.36 13.0644 228.984 13.0911 228.605 13.1163C228.532 13.1563 228.452 13.1949 228.383 13.2379C228.31 13.2823 228.211 13.3016 228.065 13.3001C227.824 13.3001 227.587 13.3624 227.345 13.2838C227.096 13.2038 227.077 13.2082 226.836 13.2275C226.53 13.2527 226.204 13.2468 225.917 13.3046C225.867 13.315 225.814 13.3431 225.814 13.3639C225.81 13.3772 225.89 13.3965 225.94 13.4084C226.108 13.444 226.304 13.3921 226.472 13.4291C226.583 13.4529 226.675 13.4884 226.786 13.5136C226.832 13.524 226.901 13.5225 226.962 13.5211C227.027 13.5196 227.089 13.5092 227.15 13.5107C227.207 13.5122 227.269 13.5211 227.315 13.5344C227.525 13.5908 227.747 13.6427 227.935 13.7094C228.119 13.7746 228.291 13.7301 228.475 13.7272C229.21 13.831 229.21 13.8324 229.704 13.7998C229.827 13.7924 229.953 13.7835 230.079 13.785C230.133 13.785 230.183 13.8117 230.236 13.8265C230.39 13.871 230.535 13.911 230.75 13.8873C230.933 13.8665 231.129 13.8621 231.316 13.8488C231.569 13.8324 231.569 13.8324 231.998 13.9259C232.105 13.9496 232.22 13.9466 232.358 13.9348C232.477 13.9244 232.599 13.9466 232.683 13.9896C232.718 14.0074 232.706 14.0371 232.718 14.0623C232.339 14.086 231.956 14.1023 231.588 14.1379C231.351 14.1601 231.244 14.0964 231.087 14.0623C231.033 14.0504 230.976 14.0252 230.926 14.0282C230.55 14.0504 230.175 14.0756 229.8 14.1053C229.754 14.1082 229.697 14.1423 229.693 14.1631C229.685 14.2016 229.781 14.2387 229.919 14.2372C230.102 14.2358 230.282 14.2105 230.447 14.2713C230.585 14.3247 230.757 14.3485 230.96 14.3247C231.083 14.3114 231.213 14.3114 231.336 14.2995C231.661 14.2639 231.956 14.2713 232.201 14.3722C232.389 14.3989 232.572 14.3737 232.752 14.3603C232.886 14.3499 233.017 14.3395 233.112 14.3677C233.315 14.427 233.514 14.4863 233.794 14.4463C234.096 14.4878 234.326 14.5753 234.579 14.6465C234.698 14.6806 234.79 14.6999 234.927 14.6776C234.985 14.6687 235.054 14.6687 235.115 14.6643C235.241 14.6569 235.375 14.6346 235.49 14.6435C235.605 14.6539 235.701 14.6969 235.804 14.7236C235.854 14.7369 235.912 14.7592 235.961 14.7577C236.153 14.7503 236.34 14.7354 236.528 14.7236C236.716 14.7132 236.903 14.7028 237.091 14.6925C237.248 14.731 237.409 14.7696 237.566 14.8081C237.819 14.7918 238.071 14.7755 238.32 14.7607C238.6 14.7429 238.6 14.7443 239.002 14.8363C239.182 14.8778 239.373 14.8511 239.546 14.8318C239.833 14.8007 240.024 14.857 240.227 14.9164C240.269 14.9282 240.346 14.9356 240.396 14.9297C240.595 14.9089 240.767 14.9252 240.913 14.9801C241.016 15.0187 241.119 15.0365 241.246 15.029C241.686 15.0009 242.127 14.9712 242.567 14.946C242.621 14.943 242.682 14.9564 242.732 14.9682C243.122 15.0587 243.126 15.0631 243.413 15.0394C243.67 15.0187 243.907 15.0098 244.11 15.0913C244.152 15.1091 244.217 15.1343 244.263 15.1328C244.577 15.118 244.895 15.1017 245.205 15.0765C245.347 15.0646 245.447 15.0691 245.558 15.1032C245.699 15.1462 245.826 15.1981 246.059 15.1788C246.707 15.1239 246.71 15.1328 247.476 15.2351C247.53 15.2425 247.603 15.2307 247.664 15.2248C247.794 15.2099 247.89 15.2307 248.005 15.2648C248.261 15.3419 248.269 15.3375 248.514 15.3211C248.702 15.3078 248.897 15.3048 249.081 15.2826C249.364 15.25 249.552 15.3078 249.762 15.3627C249.931 15.4057 250.126 15.3701 250.306 15.3567C250.501 15.3419 250.678 15.3463 250.823 15.4027C250.923 15.4412 251.03 15.462 251.156 15.4546C251.597 15.4279 252.037 15.3982 252.477 15.3716C252.531 15.3686 252.596 15.3804 252.646 15.3908C253.082 15.4828 253.082 15.4872 253.515 15.4531C253.653 15.4427 253.768 15.4398 253.871 15.4709C253.971 15.5006 254.078 15.5287 254.181 15.5569C254.369 15.5465 254.561 15.5436 254.744 15.5258C254.886 15.5124 254.986 15.5184 255.097 15.5495C255.242 15.5895 255.365 15.6592 255.594 15.6251C255.713 15.6088 255.851 15.6132 255.97 15.5984C256.111 15.5791 256.207 15.591 256.318 15.6295C256.456 15.6755 256.598 15.723 256.82 15.6992C257.065 15.6725 257.325 15.6681 257.574 15.6473C257.712 15.6355 257.808 15.6473 257.919 15.6859C258.057 15.7348 258.214 15.766 258.428 15.7467C258.865 15.7096 258.869 15.717 259.294 15.8104C259.401 15.8342 259.516 15.8312 259.654 15.8193C259.772 15.809 259.895 15.8312 259.979 15.8742C260.059 15.9217 260.052 15.9513 260.059 15.9765ZM225.936 2.60349C225.81 2.6109 225.683 2.6198 225.499 2.4908C225.488 2.46856 225.496 2.44187 225.469 2.4226C225.408 2.38256 225.312 2.35439 225.197 2.34994C224.99 2.34401 224.741 2.39442 224.745 2.43297C224.749 2.46559 224.814 2.49376 224.94 2.52045C224.994 2.53083 225.036 2.54862 225.086 2.56048C225.232 2.59459 225.346 2.66132 225.557 2.62722C225.519 2.53529 225.538 2.58125 225.557 2.62722C225.538 2.68356 225.595 2.7236 225.733 2.73991C225.771 2.74436 225.829 2.74139 225.86 2.73249C225.978 2.69987 225.997 2.6554 225.909 2.53826C225.894 2.55753 225.905 2.59163 225.94 2.60052C225.974 2.60942 226.059 2.60201 226.101 2.59163C226.208 2.56346 226.262 2.52639 226.235 2.49525C226.219 2.47894 226.147 2.45818 226.101 2.45818C226.02 2.45818 225.948 2.4908 225.936 2.60349ZM256.9 19.7991C256.621 19.8272 256.299 19.8169 256.02 19.8747C255.97 19.8851 255.92 19.9118 255.916 19.9325C255.912 19.9459 255.989 19.9652 256.035 19.9755C256.138 19.9993 256.253 19.9918 256.387 19.9844C256.59 19.974 256.709 20.0422 256.866 20.0764C256.916 20.0867 256.981 20.0941 257.034 20.0912C257.344 20.0734 257.651 20.0541 257.961 20.0334C258.015 20.0289 258.072 20.0185 258.118 20.0052C258.271 19.9622 258.256 19.934 258.107 19.9014C257.942 19.8658 257.812 19.8065 257.643 19.7783C257.402 19.7383 257.157 19.7917 256.9 19.7991ZM235.153 20.8815C234.966 20.8934 234.782 20.9052 234.594 20.9171C234.533 20.9215 234.468 20.923 234.41 20.9289C234.292 20.9393 234.204 20.9705 234.146 21.0194C234.234 21.0579 234.342 21.0802 234.46 21.0757C234.648 21.0668 234.832 21.0476 235.019 21.0431C235.222 21.0372 235.341 21.1039 235.498 21.138C235.548 21.1484 235.609 21.1499 235.666 21.1514C235.95 21.1573 236.122 21.0802 236.069 20.9719C236.03 20.8874 235.885 20.837 235.709 20.8474C235.525 20.8578 235.337 20.8696 235.153 20.8815ZM258.21 17.6075C258.256 17.5823 258.306 17.5646 258.329 17.5423C258.398 17.4667 258.371 17.4103 258.244 17.351C258.091 17.2784 257.904 17.3273 257.731 17.3347C257.689 17.3362 257.643 17.3673 257.62 17.3866C257.605 17.4 257.605 17.4281 257.628 17.4356C257.816 17.4949 258.015 17.5497 258.21 17.6075ZM224.99 13.2275C224.806 13.2393 224.619 13.2482 224.435 13.2646C224.389 13.269 224.347 13.2972 224.32 13.3164C224.27 13.352 224.324 13.401 224.481 13.4054C224.661 13.4113 224.849 13.3861 225.036 13.3743C225.274 13.3594 225.415 13.3046 225.327 13.2571C225.243 13.2112 225.128 13.2023 224.99 13.2275ZM23.4165 10.0588C23.539 10.0514 23.6654 10.0455 23.7879 10.0351C23.9028 10.0247 23.991 9.99209 24.0484 9.94316C23.9527 9.90461 23.8454 9.88385 23.7267 9.8883C23.5391 9.8972 23.3553 9.90906 23.1715 9.92389C23.0566 9.93278 22.9456 9.9654 22.9188 10.0158C22.892 10.0544 23.1484 10.0766 23.4165 10.0588ZM208.796 9.83047C208.846 9.84382 208.895 9.87051 208.945 9.87051C209.068 9.87051 209.194 9.86161 209.309 9.84678C209.359 9.84085 209.397 9.81416 209.42 9.7934C209.435 9.78006 209.432 9.75634 209.409 9.74448C209.298 9.6733 208.853 9.69851 208.781 9.78006C208.773 9.79489 208.792 9.81416 208.796 9.83047ZM196.714 1.71086C196.726 1.73459 196.73 1.75831 196.745 1.78203C196.776 1.82652 196.86 1.85914 196.982 1.88139C197.078 1.84432 197.128 1.80281 197.124 1.75832C197.12 1.7346 197.109 1.71086 197.093 1.68714C197.063 1.64265 196.978 1.61004 196.856 1.5878C196.76 1.62339 196.714 1.6649 196.714 1.71086ZM267.06 21.1395C267.025 21.1588 266.991 21.1781 266.952 21.1958C267.056 21.2388 267.152 21.2522 267.224 21.2285C267.27 21.2136 267.297 21.1914 267.332 21.1721C267.228 21.1291 267.136 21.1173 267.06 21.1395ZM264.678 21.3412C264.727 21.3545 264.773 21.3723 264.827 21.3812C264.915 21.396 264.996 21.3708 265.057 21.3174C265.007 21.3041 264.961 21.2863 264.908 21.2774C264.819 21.2626 264.739 21.2878 264.678 21.3412ZM266.186 21.0698C266.16 21.1054 266.213 21.1351 266.355 21.1603C266.389 21.141 266.435 21.1232 266.458 21.1024C266.497 21.0683 266.432 21.0372 266.294 21.0135C266.255 21.0313 266.221 21.0505 266.186 21.0698ZM258.103 19.4714C258.076 19.507 258.129 19.5366 258.271 19.5618C258.306 19.5426 258.352 19.5248 258.375 19.504C258.413 19.4699 258.348 19.4388 258.21 19.415C258.172 19.4328 258.137 19.4521 258.103 19.4714ZM247.089 8.97937C247.055 8.99864 247.021 9.01792 246.982 9.03571C247.086 9.07871 247.181 9.09205 247.254 9.06833C247.3 9.0535 247.327 9.03126 247.361 9.01198C247.258 8.96898 247.166 8.95713 247.089 8.97937ZM236.54 3.41307C236.631 3.42345 236.708 3.4027 236.773 3.34784C236.723 3.3345 236.677 3.3167 236.624 3.3078C236.536 3.29297 236.455 3.31819 236.394 3.37157C236.444 3.3864 236.494 3.39973 236.54 3.41307ZM230.937 3.06463C230.903 3.0839 230.868 3.10318 230.83 3.12097C230.933 3.16397 231.029 3.17731 231.102 3.15359C231.148 3.13876 231.175 3.11652 231.209 3.09724C231.106 3.05424 231.014 3.04387 230.937 3.06463ZM192.946 1.70938C192.912 1.72866 192.877 1.74793 192.839 1.76573C192.942 1.80873 193.038 1.82207 193.111 1.79834C193.157 1.78352 193.184 1.76127 193.218 1.742C193.115 1.699 193.023 1.68862 192.946 1.70938ZM3.77953 13.7731C3.72975 13.7598 3.68001 13.7465 3.63406 13.7316C3.52301 13.7717 3.48855 13.8087 3.54982 13.8369C3.58812 13.8547 3.64551 13.8651 3.6953 13.8784C3.81018 13.8384 3.83697 13.8028 3.77953 13.7731Z" fill="#FFE492"/>
<path d="M25.9888 8.53731C25.5485 8.56548 25.1119 8.60105 24.6716 8.61885C24.438 8.62774 24.3538 8.69151 24.2581 8.75082C24.1815 8.79826 24.0934 8.81309 23.9517 8.82199C22.7569 8.89464 21.566 8.97175 20.375 9.04737C20.2257 9.02809 20.1529 8.99696 20.1874 8.95989C20.2065 8.93765 20.2525 8.90651 20.2985 8.90354C21.1141 8.84868 21.9259 8.79233 22.7454 8.74933C22.979 8.73747 23.0441 8.67223 23.1628 8.61885C23.2011 8.60105 23.2318 8.57437 23.2815 8.56399C23.3313 8.55212 23.4041 8.55361 23.4692 8.55065C24.7865 8.46613 26.1038 8.3831 27.4211 8.29858C27.5705 8.31786 27.6432 8.34899 27.6087 8.38606C27.5896 8.4083 27.5436 8.43944 27.4977 8.44241C26.9922 8.47355 26.4905 8.50469 25.9888 8.53731Z" fill="#FFE492"/>
<path d="M267.11 16.4333C266.91 16.4511 266.658 16.4763 266.451 16.3903C266.351 16.3488 266.244 16.3354 266.114 16.3443C265.926 16.3592 265.735 16.371 265.543 16.3799C265.494 16.3814 265.428 16.3651 265.379 16.3517C265.271 16.3251 265.18 16.2806 265.065 16.2687C264.95 16.2569 264.812 16.2895 264.693 16.2821C264.536 16.2717 264.471 16.2317 264.513 16.1946C264.536 16.1738 264.582 16.1442 264.632 16.1397C265.34 16.0849 265.344 16.0849 265.543 16.1382C265.697 16.1798 265.838 16.2257 266.057 16.2005C266.24 16.1797 266.436 16.1753 266.623 16.162C266.884 16.1442 266.884 16.1456 267.305 16.2391C267.412 16.2628 267.527 16.2613 267.665 16.248C267.784 16.2376 267.898 16.2613 267.994 16.3013C267.933 16.3518 267.845 16.3844 267.726 16.3933C267.535 16.4081 267.347 16.4185 267.11 16.4333Z" fill="#FFE492"/>
<path d="M260.06 15.9763C260.543 15.9452 261.029 15.9185 261.512 15.8829C261.711 15.8681 261.868 15.8844 262.006 15.9348C262.155 15.9897 262.324 15.9853 262.507 15.9749C262.622 15.9689 262.733 15.9927 262.81 16.0342C262.84 16.0505 262.833 16.0801 262.844 16.1039C262.423 16.1306 261.998 16.1587 261.573 16.1824C261.523 16.1854 261.462 16.1706 261.416 16.1587C261.313 16.1335 261.224 16.089 261.113 16.0801C260.876 16.0594 260.639 16.0994 260.397 16.1068C260.282 16.1098 260.171 16.0876 260.095 16.0475C260.064 16.0283 260.072 16.0001 260.06 15.9763Z" fill="#FFE492"/>
<path d="M85.6903 3.22771C86.192 3.19509 86.6936 3.16397 87.1952 3.13135C87.3446 3.15211 87.4135 3.18176 87.3829 3.21883C87.3637 3.24107 87.3178 3.27221 87.2718 3.27517C86.2685 3.3419 85.2653 3.40564 84.2658 3.4694C84.1165 3.44864 84.0476 3.41899 84.0782 3.38193C84.0973 3.35968 84.1433 3.32855 84.1893 3.32558C84.6871 3.29148 85.1887 3.26033 85.6903 3.22771Z" fill="#FFE492"/>
<path d="M8.39091 11.4676C8.16498 11.4706 7.9276 11.5254 7.67487 11.4839C7.62509 11.4765 7.55614 11.4528 7.55997 11.4394C7.56763 11.4172 7.61359 11.389 7.66337 11.3801C7.88164 11.343 8.15355 11.3386 8.2646 11.2348C8.31821 11.1814 8.41778 11.1636 8.55181 11.1533C8.69349 11.1414 8.79303 11.1458 8.90408 11.177C9.04959 11.217 9.17215 11.2911 9.40191 11.2526C9.4134 11.2763 9.44014 11.303 9.42865 11.3252C9.41716 11.3475 9.36746 11.3683 9.32151 11.3846C9.27939 11.3994 9.22189 11.4127 9.16828 11.4172C8.91554 11.435 8.66279 11.4498 8.39091 11.4676Z" fill="#FFE492"/>
<path d="M207.548 11.1696C207.735 11.1577 207.931 11.1518 208.115 11.1311C208.26 11.1147 208.352 11.1251 208.467 11.1607C208.662 11.223 208.674 11.2171 209.152 11.226C209.206 11.2274 209.271 11.2497 209.302 11.2689C209.321 11.2793 209.294 11.3075 209.271 11.3223C209.237 11.3416 209.187 11.3668 209.141 11.3668C208.838 11.3713 208.532 11.4587 208.237 11.3579C208.088 11.3075 207.923 11.2838 207.72 11.306C207.598 11.3194 207.467 11.3253 207.341 11.3312C207.218 11.3372 207.092 11.3208 207.016 11.2764C206.905 11.2111 206.97 11.1859 207.169 11.1904C207.295 11.1933 207.421 11.177 207.548 11.1696Z" fill="#FFE492"/>
<path d="M276.951 21.39C277.192 21.3752 277.433 21.3574 277.678 21.3456C277.728 21.3426 277.789 21.3589 277.835 21.3693C278.019 21.4138 277.992 21.4894 278 21.5561C278.004 21.6258 277.579 21.6821 277.399 21.6347C277.2 21.5813 277.02 21.5205 276.744 21.5532C276.637 21.565 276.51 21.5383 276.441 21.4953C276.338 21.4331 276.396 21.4078 276.591 21.4123C276.706 21.4153 276.828 21.3989 276.951 21.39Z" fill="#FFE492"/>
<path d="M155.377 1.20855C155.626 1.19224 155.875 1.16704 156.123 1.16556C156.269 1.16408 156.342 1.213 156.307 1.24859C156.288 1.27083 156.242 1.30197 156.196 1.30493C155.698 1.34052 155.201 1.37018 154.703 1.4028C154.557 1.38204 154.484 1.35091 154.519 1.31532C154.538 1.29308 154.584 1.26342 154.63 1.25897C154.879 1.23822 155.128 1.22486 155.377 1.20855Z" fill="#FFE492"/>
<path d="M272.176 16.5635C272.417 16.5486 272.662 16.5264 272.903 16.519C273.029 16.516 273.129 16.5501 273.144 16.5887C273.152 16.6065 273.091 16.6376 273.041 16.645C272.696 16.6954 272.325 16.7014 271.965 16.7266C271.85 16.734 271.727 16.7103 271.659 16.6687C271.555 16.605 271.613 16.5813 271.808 16.5857C271.93 16.5872 272.053 16.5709 272.176 16.5635Z" fill="#FFE492"/>
<path d="M213.873 11.3695C213.995 11.3621 214.122 11.3428 214.241 11.3488C214.367 11.3562 214.447 11.3992 214.486 11.4422C214.528 11.4911 214.524 11.5371 214.486 11.5786C214.424 11.6498 214.363 11.6468 214.221 11.5994C214.003 11.5252 213.988 11.5341 213.555 11.5371C213.505 11.5371 213.444 11.5148 213.406 11.4956C213.348 11.4659 213.379 11.42 213.513 11.3933C213.613 11.374 213.75 11.3769 213.873 11.3695Z" fill="#FFE492"/>
<path d="M263.203 16.0773C263.383 16.0655 263.563 16.0462 263.743 16.0462C263.87 16.0447 263.969 16.0788 263.981 16.1159C263.985 16.1337 263.927 16.1633 263.881 16.1722C263.663 16.2123 263.418 16.2152 263.18 16.2286C263.069 16.2345 262.947 16.2108 262.878 16.1693C262.774 16.107 262.836 16.0788 263.023 16.0877C263.081 16.0907 263.142 16.0818 263.203 16.0773Z" fill="#FFE492"/>
<path d="M234.878 14.2581C234.61 14.2759 234.357 14.2537 234.376 14.2152C234.403 14.1647 234.514 14.1321 234.629 14.1232C234.813 14.1084 234.997 14.0965 235.184 14.0876C235.303 14.0817 235.41 14.1039 235.506 14.1425C235.448 14.1899 235.36 14.224 235.246 14.2344C235.127 14.2448 235 14.2507 234.878 14.2581Z" fill="#FFE492"/>
<path d="M233.119 14.0683C233.299 14.0564 233.479 14.0372 233.659 14.0372C233.785 14.0357 233.885 14.0698 233.896 14.1068C233.9 14.1246 233.843 14.1543 233.797 14.1632C233.578 14.2032 233.333 14.2062 233.096 14.2195C232.985 14.2255 232.862 14.2017 232.793 14.1602C232.69 14.0979 232.751 14.0698 232.939 14.0787C232.996 14.0816 233.058 14.0727 233.119 14.0683Z" fill="#FFE492"/>
<path d="M211.703 11.3579C211.883 11.346 212.063 11.3267 212.243 11.3252C212.369 11.3238 212.468 11.3579 212.48 11.3949C212.484 11.4127 212.426 11.4409 212.38 11.4513C212.162 11.4913 211.917 11.4943 211.68 11.5076C211.569 11.5136 211.446 11.4898 211.377 11.4483C211.274 11.386 211.335 11.3579 211.523 11.3668C211.58 11.3697 211.641 11.3608 211.703 11.3579Z" fill="#FFE492"/>
<path d="M210.695 11.2703C210.886 11.2584 210.948 11.251 211.009 11.251C211.124 11.251 211.242 11.2688 211.311 11.3118C211.415 11.3741 211.353 11.3919 211.166 11.3948C210.925 11.3978 210.687 11.4289 210.446 11.4349C210.32 11.4378 210.22 11.4022 210.212 11.3652C210.209 11.3474 210.266 11.3162 210.312 11.3103C210.473 11.288 210.649 11.2747 210.695 11.2703Z" fill="#FFE492"/>
<path d="M231.56 2.54699C231.438 2.5544 231.307 2.57516 231.193 2.56775C231.039 2.55737 230.978 2.51734 231.016 2.48027C231.039 2.45951 231.082 2.42986 231.128 2.42541C231.373 2.40465 231.622 2.39129 231.867 2.37646C232.012 2.39871 232.077 2.42984 232.039 2.46691C232.016 2.48767 231.974 2.51584 231.928 2.52177C231.809 2.5366 231.683 2.53957 231.56 2.54699Z" fill="#FFE492"/>
<path d="M82.9439 3.40267C83.0626 3.40118 83.1697 3.42046 83.2616 3.45753C83.2042 3.50498 83.12 3.53611 83.0051 3.54946C82.9476 3.55539 82.8826 3.55983 82.8213 3.56132C82.7026 3.56428 82.5953 3.54352 82.5034 3.50645C82.5609 3.45901 82.6489 3.42787 82.76 3.41452C82.8174 3.40859 82.8826 3.40712 82.9439 3.40267Z" fill="#FFE492"/>
<path d="M270.866 16.5578C270.862 16.5148 271.096 16.4658 271.307 16.4673C271.418 16.4688 271.533 16.4896 271.598 16.5296C271.697 16.5904 271.64 16.6141 271.452 16.6097C271.337 16.6067 271.215 16.6319 271.1 16.6274C270.97 16.626 270.893 16.5934 270.866 16.5578Z" fill="#FFE492"/>
<path d="M214.982 11.5491C214.978 11.5328 214.959 11.5135 214.971 11.4987C215.043 11.4171 215.484 11.3919 215.599 11.4631C215.618 11.4764 215.626 11.4987 215.61 11.512C215.587 11.5328 215.545 11.5595 215.499 11.5654C215.38 11.5802 215.258 11.5876 215.135 11.5891C215.082 11.5891 215.032 11.5639 214.982 11.5491Z" fill="#FFE492"/>
<path d="M9.75288 11.2301C9.30101 11.2613 9.29336 11.2583 9.37377 11.1842C9.44653 11.1174 9.58058 11.0774 9.77588 11.0774C9.83332 11.0774 9.89456 11.0744 9.94435 11.0804C9.99796 11.0878 10.0746 11.1026 10.0861 11.1204C10.1091 11.1545 10.0439 11.1916 9.92901 11.2168C9.87923 11.2286 9.81415 11.2257 9.75288 11.2301Z" fill="#FFE492"/>
<path d="M88.6009 3.19371C88.4668 3.21892 88.352 3.21003 88.2677 3.16258C88.1835 3.11513 88.3175 3.05878 88.5511 3.04544C88.6124 3.04247 88.6775 3.03062 88.7349 3.03655C88.7924 3.041 88.8499 3.05878 88.8843 3.07657C88.9456 3.10623 88.9073 3.14627 88.7847 3.18037C88.735 3.19372 88.6621 3.19075 88.6009 3.19371Z" fill="#FFE492"/>
<path d="M270.069 16.4462C270.103 16.427 270.138 16.4077 270.176 16.3899C270.317 16.4151 270.379 16.4448 270.34 16.4789C270.317 16.4996 270.271 16.5174 270.237 16.5367C270.095 16.5115 270.038 16.4803 270.069 16.4462Z" fill="#FFE492"/>
<path d="M15.8181 28.11C15.8181 28.0922 15.8717 28.064 15.9138 28.0581C15.9943 28.0477 16.0938 28.0684 16.1627 28.11C16.2585 28.1693 16.2011 28.2004 16.0249 28.1841C15.9024 28.1722 15.8181 28.1426 15.8181 28.11Z" fill="#FFE492"/>
<path d="M216.544 10.1686C216.594 10.1819 216.644 10.1953 216.689 10.2101C216.624 10.265 216.544 10.2887 216.46 10.2739C216.406 10.265 216.36 10.2472 216.31 10.2338C216.375 10.179 216.452 10.1582 216.544 10.1686Z" fill="#FFE492"/>
<path d="M215.218 10.1016C215.294 10.0793 215.386 10.0912 215.494 10.1342C215.459 10.1535 215.428 10.1757 215.386 10.1905C215.314 10.2143 215.218 10.2024 215.115 10.1579C215.145 10.1401 215.18 10.1208 215.218 10.1016Z" fill="#FFE492"/>
<path d="M214.201 10.1669C214.251 10.1803 214.301 10.1936 214.347 10.2084C214.282 10.2633 214.205 10.287 214.117 10.2722C214.063 10.2633 214.018 10.2455 213.968 10.2322C214.033 10.1773 214.109 10.1551 214.201 10.1669Z" fill="#FFE492"/>
<path d="M213.457 10.0884C213.514 10.1181 213.484 10.1536 213.373 10.1937C213.323 10.1803 213.266 10.17 213.227 10.1522C213.166 10.124 213.197 10.0869 213.311 10.0469C213.357 10.0617 213.407 10.0751 213.457 10.0884Z" fill="#FFE492"/>
</svg>
